<?xml version="1.0" encoding="UTF-8"?>
<svg width="28px" height="27px" viewBox="0 0 28 27" version="1.1" xmlns="http://www.w3.org/2000/svg" xmlns:xlink="http://www.w3.org/1999/xlink">
    <!-- Generator: Sketch 57.1 (83088) - https://sketch.com -->
    <title>add-contact-icon</title>
    <desc>Created with Sketch.</desc>
    <g id="add-contact-icon" stroke="none" stroke-width="1" fill="none" fill-rule="evenodd">
        <g transform="translate(1.000000, 1.000000)" id="Shape">
            <path d="M16,14 C18.21,14 20,12.21 20,10 C20,7.79 18.21,6 16,6 C13.79,6 12,7.79 12,10 C12,12.21 13.79,14 16,14 Z M16,16 C13.33,16 8,17.34 8,20 L8,22 L24,22 L24,20 C24,17.34 18.67,16 16,16 Z" fill="#000000" fill-rule="nonzero"></path>
            <polygon points="0 0 24 0 24 24 0 24"></polygon>
        </g>
        <g id="+-icon" transform="translate(1.000000, 8.000000)">
            <polygon id="Shape" fill="#000000" fill-rule="nonzero" points="9.16666667 5.5952381 5.5952381 5.5952381 5.5952381 9.16666667 4.4047619 9.16666667 4.4047619 5.5952381 0.833333333 5.5952381 0.833333333 4.4047619 4.4047619 4.4047619 4.4047619 0.833333333 5.5952381 0.833333333 5.5952381 4.4047619 9.16666667 4.4047619"></polygon>
            <polygon id="Shape" points="0 0 10 0 10 10 0 10"></polygon>
        </g>
    </g>
</svg>