<?xml version="1.0" encoding="UTF-8"?>
<svg width="22px" height="22px" viewBox="0 0 22 22" version="1.1" xmlns="http://www.w3.org/2000/svg" xmlns:xlink="http://www.w3.org/1999/xlink">
    <!-- Generator: Sketch 57.1 (83088) - https://sketch.com -->
    <title>attach-icon</title>
    <desc>Created with Sketch.</desc>
    <g id="attach-icon" stroke="none" stroke-width="1" fill="none" fill-rule="evenodd">
        <path d="M15.125,5.5 L15.125,16.0416667 C15.125,18.0675 13.4841667,19.7083333 11.4583333,19.7083333 C9.4325,19.7083333 7.79166667,18.0675 7.79166667,16.0416667 L7.79166667,4.58333333 C7.79166667,3.31833333 8.81833333,2.29166667 10.0833333,2.29166667 C11.3483333,2.29166667 12.375,3.31833333 12.375,4.58333333 L12.375,14.2083333 C12.375,14.7125 11.9625,15.125 11.4583333,15.125 C10.9541667,15.125 10.5416667,14.7125 10.5416667,14.2083333 L10.5416667,5.5 L9.16666667,5.5 L9.16666667,14.2083333 C9.16666667,15.4733333 10.1933333,16.5 11.4583333,16.5 C12.7233333,16.5 13.75,15.4733333 13.75,14.2083333 L13.75,4.58333333 C13.75,2.5575 12.1091667,0.916666667 10.0833333,0.916666667 C8.0575,0.916666667 6.41666667,2.5575 6.41666667,4.58333333 L6.41666667,16.0416667 C6.41666667,18.8283333 8.67166667,21.0833333 11.4583333,21.0833333 C14.245,21.0833333 16.5,18.8283333 16.5,16.0416667 L16.5,5.5 L15.125,5.5 Z" id="Path" fill="#000000" fill-rule="nonzero"></path>
        <polygon id="Path" points="0 0 22 0 22 22 0 22"></polygon>
    </g>
</svg>