<?xml version="1.0" encoding="UTF-8"?>
<svg width="24px" height="24px" viewBox="0 0 24 24" version="1.1" xmlns="http://www.w3.org/2000/svg" xmlns:xlink="http://www.w3.org/1999/xlink">
    <!-- Generator: Sketch 57.1 (83088) - https://sketch.com -->
    <title>attach-icon</title>
    <desc>Created with Sketch.</desc>
    <g id="attach-icon" stroke="none" stroke-width="1" fill="none" fill-rule="evenodd">
        <polygon id="Path" points="0 0 24 0 24 24 0 24"></polygon>
        <path d="M14,2 L20,8 L20,22 L4,22 L4,2 L13,2 L14,2 Z M13,3.399 L5.4,3.4 L5.4,20.6 L18.6,20.6 L18.6,9 L13,9 L13,3.399 Z M14.4,4.3 L14.4,7.6 L17.7,7.6 L14.4,4.3 Z" id="Combined-Shape" fill="#000000" fill-rule="nonzero"></path>
        <polygon id="Shape" fill="#000000" fill-rule="nonzero" points="16.25 15 12.75 15 12.75 18.5 11.25 18.5 11.25 15 7.75 15 7.75 13.5 11.25 13.5 11.25 10 12.75 10 12.75 13.5 16.25 13.5"></polygon>
    </g>
</svg>