<?xml version="1.0" encoding="UTF-8"?>
<svg width="24px" height="24px" viewBox="0 0 24 24" version="1.1" xmlns="http://www.w3.org/2000/svg" xmlns:xlink="http://www.w3.org/1999/xlink">
    <!-- Generator: Sketch 57.1 (83088) - https://sketch.com -->
    <title>camera-icon</title>
    <desc>Created with Sketch.</desc>
    <g id="camera-icon" stroke="none" stroke-width="1" fill="none" fill-rule="evenodd">
        <polygon id="Shape" points="0 0 24 0 24 24 0 24"></polygon>
        <path d="M12,7.8 C14.5405098,7.8 16.6,9.85949015 16.6,12.4 C16.6,14.9405098 14.5405098,17 12,17 C9.45949015,17 7.4,14.9405098 7.4,12.4 C7.4,9.85949015 9.45949015,7.8 12,7.8 Z M12,9.2 C10.3033812,9.2 8.8,10.7033812 8.8,12.4 C8.8,14.0966188 10.3033812,15.6 12,15.6 C13.6966188,15.6 15.2,14.0966188 15.2,12.4 C15.2,10.7033812 13.6966188,9.2 12,9.2 Z" id="Combined-Shape" fill="#000000" fill-rule="nonzero"></path>
        <path d="M9.5,3.5 L7.5,5.5 L2,5.5 L2,20 L22,20 L22,5.5 L16.5,5.5 L14.5,3.5 L9.5,3.5 Z M3.5,18.6 L3.5,7 L8,7 L10,5 L14,5 L16,7 L20.5,7 L20.5,18.6 L3.5,18.6 Z" id="Shape" fill="#000000" fill-rule="nonzero"></path>
    </g>
</svg>