<?xml version="1.0" encoding="UTF-8"?>
<svg width="24px" height="24px" viewBox="0 0 24 24" version="1.1" xmlns="http://www.w3.org/2000/svg" xmlns:xlink="http://www.w3.org/1999/xlink">
    <!-- Generator: Sketch 57.1 (83088) - https://sketch.com -->
    <title>clear-photo-icon</title>
    <desc>Created with Sketch.</desc>
    <g id="clear-photo-icon" stroke="none" stroke-width="1" fill="none" fill-rule="evenodd">
        <circle id="Oval" fill="#000000" fill-rule="nonzero" cx="12" cy="13" r="3.2"></circle>
        <path d="M9,3 L7.17,5 L4,5 C2.9,5 2,5.9 2,7 L2,19 C2,20.1 2.9,21 4,21 L20,21 C21.1,21 22,20.1 22,19 L22,7 C22,5.9 21.1,5 20,5 L16.83,5 L15,3 L9,3 Z M12,18 C9.24,18 7,15.76 7,13 C7,10.24 9.24,8 12,8 C14.76,8 17,10.24 17,13 C17,15.76 14.76,18 12,18 Z" id="Shape" fill="#000000" fill-rule="nonzero"></path>
        <polygon id="Shape" points="0 0 24 0 24 24 0 24"></polygon>
        <path d="M2,2 L22,22" id="Line" stroke="#000000" stroke-width="2" stroke-linecap="square"></path>
    </g>
</svg>