<?xml version="1.0" encoding="UTF-8"?>
<svg width="24px" height="24px" viewBox="0 0 24 24" version="1.1" xmlns="http://www.w3.org/2000/svg" xmlns:xlink="http://www.w3.org/1999/xlink">
    <!-- Generator: Sketch 57.1 (83088) - https://sketch.com -->
    <title>contacts-icon</title>
    <desc>Created with Sketch.</desc>
    <g id="contacts-icon" stroke="none" stroke-width="1" fill="none" fill-rule="evenodd">
        <g id="Shape">
            <polygon points="0 0 24 0 24 24 0 24"></polygon>
        </g>
        <g id="Group" transform="translate(1.000000, 5.000000)" fill="#000000">
            <path d="M6.995,0.5 C8.7989125,0.5 10.26,1.9610875 10.26,3.765 C10.26,5.5689125 8.7989125,7.03 6.995,7.03 C5.1910875,7.03 3.73,5.5689125 3.73,3.765 C3.73,1.9610875 5.1910875,0.5 6.995,0.5 Z M6.995,1.89928571 C5.96419286,1.89928571 5.12928571,2.73419286 5.12928571,3.765 C5.12928571,4.79580714 5.96419286,5.63071429 6.995,5.63071429 C8.02580714,5.63071429 8.86071429,4.79580714 8.86071429,3.765 C8.86071429,2.73419286 8.02580714,1.89928571 6.995,1.89928571 Z" id="Shape" fill-rule="nonzero"></path>
            <path d="M7,8.4 C10.8659932,8.4 14,10.9072054 14,14 L14,14 L0,14 C0,10.9072054 3.13400675,8.4 7,8.4 Z M7,9.8 C3.89510401,9.8 2.40701771,11.0627995 1.74502921,12.7 L12.2707465,12.7 L12.2707465,12.7 C11.6293211,11.0403982 10.1321258,9.8 7,9.8 Z" id="Combined-Shape"></path>
            <path d="M14.995,0.5 C16.7989125,0.5 18.26,1.9610875 18.26,3.765 C18.26,5.5689125 16.7989125,7.03 14.995,7.03 C13.1910875,7.03 11.73,5.5689125 11.73,3.765 C11.73,1.9610875 13.1910875,0.5 14.995,0.5 Z M14.995,1.89928571 C13.9641929,1.89928571 13.1292857,2.73419286 13.1292857,3.765 C13.1292857,4.79580714 13.9641929,5.63071429 14.995,5.63071429 C16.0258071,5.63071429 16.8607143,4.79580714 16.8607143,3.765 C16.8607143,2.73419286 16.0258071,1.89928571 14.995,1.89928571 Z" id="Shape" fill-rule="nonzero"></path>
            <path d="M15,8.4 C18.8659932,8.4 22,10.9072054 22,14 L22,14 L13.5625201,14 L12.5982884,11.5121177 L10.4522036,9.83 C10.5705473,9.70992233 10.7022826,9.60703904 10.8474095,9.52135012 C12.0091059,8.83543618 13.4453688,8.4 15,8.4 Z M15,9.8 C13.7482108,9.8 12.7457973,10.0190049 11.951768,10.3519027 C12.204309,10.5867436 12.4584719,10.8559289 12.7142566,11.1594584 L13.5625201,12.7 L20.3305795,12.7 L20.3305795,12.7 C19.6891541,11.0403982 18.1321258,9.8 15,9.8 Z" id="Combined-Shape"></path>
        </g>
    </g>
</svg>