<?xml version="1.0" encoding="UTF-8"?>
<svg width="16px" height="16px" viewBox="0 0 16 16" version="1.1" xmlns="http://www.w3.org/2000/svg" xmlns:xlink="http://www.w3.org/1999/xlink">
    <!-- Generator: Sketch 57.1 (83088) - https://sketch.com -->
    <title>countdown-icon-temp</title>
    <desc>Created with Sketch.</desc>
    <g id="countdown-icon-temp" stroke="none" stroke-width="1" fill="none" fill-rule="evenodd">
        <polygon id="Path" points="0 0 16 0 16 16 0 16"></polygon>
        <path d="M10.8266667,5.16666667 C10.0466667,4.38666667 9.02666667,3.99333333 8,3.99333333 L8,7.99333333 L5.17333333,10.82 C6.73333333,12.38 9.26666667,12.38 10.8333333,10.82 C12.3933333,9.26 12.3933333,6.72666667 10.8266667,5.16666667 Z M8,1.32666667 C4.32,1.32666667 1.33333333,4.31333333 1.33333333,7.99333333 C1.33333333,11.6733333 4.32,14.66 8,14.66 C11.68,14.66 14.6666667,11.6733333 14.6666667,7.99333333 C14.6666667,4.31333333 11.68,1.32666667 8,1.32666667 Z M8,13.3266667 C5.05333333,13.3266667 2.66666667,10.94 2.66666667,7.99333333 C2.66666667,5.04666667 5.05333333,2.66 8,2.66 C10.9466667,2.66 13.3333333,5.04666667 13.3333333,7.99333333 C13.3333333,10.94 10.9466667,13.3266667 8,13.3266667 Z" id="Shape" fill="#000000" fill-rule="nonzero"></path>
    </g>
</svg>