<?xml version="1.0" encoding="UTF-8"?>
<svg width="24px" height="24px" viewBox="0 0 24 24" version="1.1" xmlns="http://www.w3.org/2000/svg" xmlns:xlink="http://www.w3.org/1999/xlink">
    <!-- Generator: Sketch 57.1 (83088) - https://sketch.com -->
    <title>emoji-icon</title>
    <desc>Created with Sketch.</desc>
    <g id="emoji-icon" stroke="none" stroke-width="1" fill="none" fill-rule="evenodd">
        <g id="Shape">
            <polygon points="0 0 24 0 24 24 0 24"></polygon>
            <path d="M11.99,2 C6.47,2 2,6.48 2,12 C2,17.52 6.47,22 11.99,22 C17.52,22 22,17.52 22,12 C22,6.48 17.52,2 11.99,2 Z M12,20 C7.58,20 4,16.42 4,12 C4,7.58 7.58,4 12,4 C16.42,4 20,7.58 20,12 C20,16.42 16.42,20 12,20 Z M15.5,11 C16.33,11 17,10.33 17,9.5 C17,8.67 16.33,8 15.5,8 C14.67,8 14,8.67 14,9.5 C14,10.33 14.67,11 15.5,11 Z M8.5,11 C9.33,11 10,10.33 10,9.5 C10,8.67 9.33,8 8.5,8 C7.67,8 7,8.67 7,9.5 C7,10.33 7.67,11 8.5,11 Z" fill="#000000" fill-rule="nonzero"></path>
        </g>
        <path d="M17.2836848,17.0208524 C16.3152848,14.7151381 14.3305593,13.5 12,13.5 C9.66944075,13.5 7.68471522,14.7151381 6.71631521,17.0208524 L8.28368479,17.6791476 C8.97682324,16.028818 10.3305593,15.2 12,15.2 C13.6694407,15.2 15.0231768,16.028818 15.7163152,17.6791476 L17.2836848,17.0208524 Z" id="Oval" fill="#000000" fill-rule="nonzero" transform="translate(12.000000, 15.589574) scale(1, -1) translate(-12.000000, -15.589574) "></path>
    </g>
</svg>