<?xml version="1.0" encoding="UTF-8"?>
<svg width="14px" height="14px" viewBox="0 0 14 14" version="1.1" xmlns="http://www.w3.org/2000/svg" xmlns:xlink="http://www.w3.org/1999/xlink">
    <!-- Generator: Sketch 57.1 (83088) - https://sketch.com -->
    <title>emoticon-icon-14</title>
    <desc>Created with Sketch.</desc>
    <g id="emoticon-icon-14" stroke="none" stroke-width="1" fill="none" fill-rule="evenodd">
        <polygon id="Shape" points="0 0 14 0 14 14 0 14"></polygon>
        <path d="M8,8 L5,8 L5,6 L8,6 L8,8 Z M11,2 C12.089,2.935 12.5,4.866 12.5,7 C12.5,9.134 12.089,11.054 11,12 L9,12 C10.188,10.911 10.857,9.128 10.857,7.346 L10.857,6.532 C10.857,4.706 10.188,3.078 9,2 L11,2 Z M3.5,8.8 L3.5,11 L1,11 L1,8.8 L3.5,8.8 Z M3.5,3 L3.5,5.2 L1,5.2 L1,3 L3.5,3 Z" id=":-)" fill="#000000" fill-rule="nonzero"></path>
    </g>
</svg>