<?xml version="1.0" encoding="UTF-8"?>
<svg width="24px" height="24px" viewBox="0 0 24 24" version="1.1" xmlns="http://www.w3.org/2000/svg" xmlns:xlink="http://www.w3.org/1999/xlink">
    <!-- Generator: Sketch 57.1 (83088) - https://sketch.com -->
    <title>emoticon-icon</title>
    <desc>Created with Sketch.</desc>
    <g id="emoticon-icon" stroke="none" stroke-width="1" fill="none" fill-rule="evenodd">
        <path d="M14.060741,13.091314 L9.60194371,13.091314 L9.60194371,11.1113586 L14.060741,11.1113586 L14.060741,13.091314 Z M16.6798947,5 C18.2233246,6.32516704 19.4393602,8.95991091 19.4393602,11.9844098 C19.4393602,15.0089087 18.2233246,17.6592428 16.6798947,19 L14.7934805,19 C16.4772221,17.4565702 17.5529459,15.1024499 17.5529459,12.5768374 L17.5529459,11.4231626 C17.5529459,8.83518931 16.4772221,6.52783964 14.7934805,5 L16.6798947,5 Z M7.40939461,14.5808868 L7.40939461,16.7068232 L5,16.7068232 L5,14.5808868 L7.40939461,14.5808868 Z M7.40939461,8.62826483 L7.40939461,10.7542013 L5,10.7542013 L5,8.62826483 L7.40939461,8.62826483 Z" id=":-)" fill="#000000" fill-rule="nonzero"></path>
    </g>
</svg>