<?xml version="1.0" encoding="UTF-8"?>
<svg width="24px" height="24px" viewBox="0 0 24 24" version="1.1" xmlns="http://www.w3.org/2000/svg" xmlns:xlink="http://www.w3.org/1999/xlink">
    <!-- Generator: Sketch 57.1 (83088) - https://sketch.com -->
    <title>file-download-icon</title>
    <desc>Created with Sketch.</desc>
    <g id="file-download-icon" stroke="none" stroke-width="1" fill="none" fill-rule="evenodd">
        <polygon id="Path" points="0 0 24 0 24 24 0 24"></polygon>
        <polygon id="↵" fill="#000000" fill-rule="nonzero" transform="translate(12.000000, 14.823600) rotate(-90.000000) translate(-12.000000, -14.823600) " points="7.6763995 14.8289818 10.9834775 11.6236005 10.9834775 14.1267412 16.3236005 14.1267412 16.3236005 15.5236005 10.9834775 15.5236005 10.9834775 18.0236005"></polygon>
        <path d="M14,2 L20,8 L20,22 L4,22 L4,2 L13,2 L14,2 Z M13,3.399 L5.4,3.4 L5.4,20.6 L18.6,20.6 L18.6,9 L13,9 L13,3.399 Z M14.4,4.3 L14.4,7.6 L17.7,7.6 L14.4,4.3 Z" id="Combined-Shape" fill="#000000" fill-rule="nonzero"></path>
    </g>
</svg>