<?xml version="1.0" encoding="UTF-8"?>
<svg width="24px" height="24px" viewBox="0 0 24 24" version="1.1" xmlns="http://www.w3.org/2000/svg" xmlns:xlink="http://www.w3.org/1999/xlink">
    <!-- Generator: Sketch 57.1 (83088) - https://sketch.com -->
    <title>file-download-icon</title>
    <desc>Created with Sketch.</desc>
    <g id="file-download-icon" stroke="none" stroke-width="1" fill="none" fill-rule="evenodd">
        <polygon id="Path" points="0 0 24 0 24 24 0 24"></polygon>
        <path d="M13.75,3 L6.75,3 C5.7875,3 5.00875,3.7875 5.00875,4.75 L5,18.75 C5,19.7125 5.77875,20.5 6.74125,20.5 L17.25,20.5 C18.2125,20.5 19,19.7125 19,18.75 L19,8.25 L13.75,3 Z M6.5,19 L6.5,4.5 L13.5,4.5 L13.5,8.5 L17.5,8.5 L17.5,19 L6.5,19 Z" id="Shape" fill="#000000" fill-rule="nonzero"></path>
        <polygon id="Path" fill="#000000" fill-rule="nonzero" points="12.75 15.4285714 12.75 9 11.25 9 11.25 15.4285714 11.25 16.7142857 12 18 12.75 16.7142857"></polygon>
        <path d="M10.2110913,11.587794 L10.2106504,15.877794 L14.5016504,15.8783532 L14.5016504,16.5783532 L10.2106504,16.577794 L10.2110913,16.587794 L9.51109127,16.587794 L9.51065043,16.577794 L9.50165043,16.5783532 L9.50165043,15.8783532 L9.51065043,15.877794 L9.51109127,11.587794 L10.2110913,11.587794 Z" id="Combined-Shape" stroke="#000000" stroke-width="0.8" fill="#000000" transform="translate(12.001650, 14.087794) rotate(-45.000000) translate(-12.001650, -14.087794) "></path>
    </g>
</svg>