<?xml version="1.0" encoding="UTF-8"?>
<svg width="24px" height="24px" viewBox="0 0 24 24" version="1.1" xmlns="http://www.w3.org/2000/svg" xmlns:xlink="http://www.w3.org/1999/xlink">
    <!-- Generator: Sketch 57.1 (83088) - https://sketch.com -->
    <title>gear-icon</title>
    <desc>Created with Sketch.</desc>
    <g id="gear-icon" stroke="none" stroke-width="1" fill="none" fill-rule="evenodd">
        <rect id="Rectangle" x="0" y="0" width="24" height="24"></rect>
        <path d="M9.89141013,3.5753903 L9.89141013,6.12643363 L7.87095789,7.29805682 L5.66857834,6.0265124 L3.58596253,9.6337088 L5.78741013,10.9047152 L5.78741013,13.2460654 L3.55008905,14.5377834 L5.63028181,18.1407829 L7.87156688,16.8530769 L9.89141013,18.024347 L9.89141013,20.5753903 L14.0574101,20.5753903 L14.0574101,18.024347 L16.0778624,16.8527238 L18.3257103,18.1505194 L20.4096537,14.5410235 L18.1325261,13.2458927 L18.1654588,10.9016841 L20.3985359,9.6187017 L18.3159213,6.01150737 L16.0787129,7.29686435 L14.0784808,6.15045207 L14.0608264,3.5753903 L9.89141013,3.5753903 Z" id="Rectangle" stroke="#000000"></path>
        <path d="M12,8.57735027 L9.03589838,10.2886751 L9.03589838,13.7113249 L12,15.4226497 L14.9641016,13.7113249 L14.9641016,10.2886751 L12,8.57735027 Z" id="Polygon" stroke="#000000"></path>
    </g>
</svg>