<?xml version="1.0" encoding="UTF-8"?>
<svg width="24px" height="24px" viewBox="0 0 24 24" version="1.1" xmlns="http://www.w3.org/2000/svg" xmlns:xlink="http://www.w3.org/1999/xlink">
    <!-- Generator: Sketch 57.1 (83088) - https://sketch.com -->
    <title>gear-icon</title>
    <desc>Created with Sketch.</desc>
    <g id="gear-icon" stroke="none" stroke-width="1" fill="none" fill-rule="evenodd">
        <rect id="Rectangle" x="0" y="0" width="24" height="24"></rect>
        <path d="M10.0914101,3.7753903 L10.0914101,6.24165096 L7.87117699,7.52912343 L5.74178342,6.29971748 L3.85916761,9.56050372 L5.98741013,10.7892451 L5.98741013,13.3615355 L3.82329413,14.6109884 L5.70369776,17.8679431 L7.87202959,16.6221516 L10.0914101,17.9091296 L10.0914101,20.3753903 L13.8574101,20.3753903 L13.8574101,17.9091296 L16.0776433,16.6216572 L18.2525052,17.8773143 L20.1357996,14.6153527 L17.9308852,13.3612937 L17.9670783,10.7850016 L20.1251193,9.54513015 L18.2425051,6.28434682 L16.0788341,7.52745396 L13.8792738,6.26679882 L13.8621928,3.7753903 L10.0914101,3.7753903 Z" id="Rectangle" stroke="#000000" stroke-width="1.4"></path>
        <path d="M12,8.80829038 L9.23589838,10.4041452 L9.23589838,13.5958548 L12,15.1917096 L14.7641016,13.5958548 L14.7641016,10.4041452 L12,8.80829038 Z" id="Polygon" stroke="#000000" stroke-width="1.4"></path>
    </g>
</svg>