<?xml version="1.0" encoding="UTF-8"?>
<svg width="24px" height="24px" viewBox="0 0 24 24" version="1.1" xmlns="http://www.w3.org/2000/svg" xmlns:xlink="http://www.w3.org/1999/xlink">
    <!-- Generator: Sketch 57.1 (83088) - https://sketch.com -->
    <title>info-icon</title>
    <desc>Created with Sketch.</desc>
    <g id="info-icon" stroke="none" stroke-width="1" fill="none" fill-rule="evenodd">
        <polygon id="Path" points="0 0 24 0 24 24 0 24"></polygon>
        <path d="M11,7 L13,7 L13,9 L11,9 L11,7 Z M11,11 L13,11 L13,17 L11,17 L11,11 Z M12,2 C6.48,2 2,6.48 2,12 C2,17.52 6.48,22 12,22 C17.52,22 22,17.52 22,12 C22,6.48 17.52,2 12,2 Z M12,20.5 C7.59,20.5 3.5,16.41 3.5,12 C3.5,7.59 7.59,3.5 12,3.5 C16.41,3.5 20.5,7.59 20.5,12 C20.5,16.41 16.41,20.5 12,20.5 Z" id="Shape" fill="#000000" fill-rule="nonzero"></path>
    </g>
</svg>