<?xml version="1.0" encoding="UTF-8"?>
<svg width="24px" height="24px" viewBox="0 0 24 24" version="1.1" xmlns="http://www.w3.org/2000/svg" xmlns:xlink="http://www.w3.org/1999/xlink">
    <!-- Generator: Sketch 57.1 (83088) - https://sketch.com -->
    <title>lenny-icon</title>
    <desc>Created with Sketch.</desc>
    <g id="lenny-icon" stroke="none" stroke-width="1" fill="none" fill-rule="evenodd">
        <path d="M2.00323799,8.47490556 C1.5513559,9.35276568 1.25778085,9.9989186 1.12250405,10.4133837 C0.918149725,11.043716 0.815974096,11.7718973 0.815974096,12.5979493 C0.815974096,13.4326359 0.932540658,14.1953554 1.16567728,14.8861306 C1.30958877,15.3121086 1.59309017,15.9251624 2.01618996,16.7253103 L1.49379385,16.7253103 C1.07357228,16.0690739 0.813096384,15.6502977 0.712358338,15.4689692 C0.611620291,15.2876408 0.502249196,15.0415558 0.38424177,14.730707 C0.223060896,14.3047289 0.110811614,13.8499754 0.0474905559,13.3664328 C0.015830027,13.1160268 0,12.8771373 0,12.6497572 C0,11.7978011 0.133835683,11.0393989 0.401511063,10.3745278 C0.571326627,9.951428 0.925343594,9.31822692 1.46357258,8.47490556 L2.00323799,8.47490556 Z M8.11440907,8.56125202 C8.59219523,8.76848458 8.99658046,8.99154405 9.3275769,9.23043713 L9.75067458,9.53696708 L9.74203994,10.2450081 C9.01096954,9.84493414 8.4338931,9.57294549 8.01079331,9.429034 C7.30274875,9.19014092 6.5112474,9.07069617 5.63626552,9.07069617 C5.07213246,9.07069617 4.55118066,9.11674716 4.0733945,9.20885051 C3.34520233,9.34988378 2.64724205,9.60172512 1.97949271,9.96438208 L1.49595251,10.2320561 L1.49595251,9.50242849 C2.13491955,9.03327702 2.76380335,8.67638187 3.38262277,8.43173233 C4.10505848,8.14390934 4.83036153,8 5.5585537,8 C6.39899683,8 7.2509401,8.18708214 8.11440907,8.56125202 Z M6.57528332,8.7425796 C6.94081852,8.7425796 7.2487845,8.86850027 7.4991905,9.12034539 C7.7495965,9.3721905 7.87479763,9.67943693 7.87479763,10.0420939 C7.87479763,10.4162638 7.74455968,10.7278275 7.48407987,10.9767944 C7.22360006,11.2257613 6.92067091,11.3502428 6.57528332,11.3502428 C6.19247875,11.3502428 5.8787564,11.2207244 5.63410685,10.9616838 C5.38945731,10.7026431 5.26713438,10.4004317 5.26713438,10.0550459 C5.26713438,9.68663244 5.39593323,9.37578828 5.65353481,9.12250405 C5.91113638,8.86921982 6.21838282,8.7425796 6.57528332,8.7425796 Z M5.73772261,10.0507285 C5.73772261,10.2752305 5.81975093,10.4695081 5.98381004,10.6335672 C6.14786914,10.7976263 6.34502493,10.8796546 6.57528332,10.8796546 C6.79690703,10.8796546 6.99046508,10.7983458 7.1559633,10.6357258 C7.32146152,10.4731059 7.40420939,10.2752305 7.40420939,10.0420939 C7.40420939,9.81759197 7.32290062,9.62331437 7.16028063,9.45925526 C6.99766064,9.29519616 6.80266349,9.21316784 6.57528332,9.21316784 C6.34790316,9.21316784 6.15146692,9.29447661 5.9859687,9.4570966 C5.82047048,9.61971659 5.73772261,9.81759193 5.73772261,10.0507285 Z M7.48947652,15.1019968 C8.38172779,15.5596353 9.03219799,15.8546495 9.44090664,15.987048 C10.0597261,16.1885241 10.7850291,16.2892607 11.6168376,16.2892607 C12.448646,16.2892607 13.2099264,16.1726941 13.9007016,15.9395575 C14.3266796,15.795646 14.9397334,15.5121446 15.7398813,15.0890448 L15.7398813,15.6114409 C15.0318367,16.0546883 14.5950719,16.3230792 14.4295737,16.4166217 C14.2640754,16.5101642 14.0359791,16.6116202 13.7452779,16.720993 C13.3854992,16.859148 13.0300431,16.9577259 12.6788991,17.0167296 C12.327755,17.0757333 11.9895681,17.1052348 11.6643281,17.1052348 C10.8123721,17.1052348 10.0525308,16.96996 9.38478144,16.6994064 C8.95592518,16.5295908 8.32416319,16.1770129 7.48947652,15.6416622 L7.48947652,15.1019968 Z M13.4268753,14.9206692 C12.8138124,14.9206692 12.3317161,14.7314284 11.980572,14.3529412 C11.629428,13.9744539 11.4538586,13.474369 11.4538586,12.8526713 L12.2223421,12.8526713 C12.2367333,13.2268412 12.2957361,13.5132208 12.3993524,13.7118187 C12.5835591,14.0687192 12.9159897,14.2471668 13.3966541,14.2471668 C13.7852151,14.2471668 14.0636797,14.143552 14.2320561,13.9363195 C14.4004326,13.7290869 14.4846195,13.4844411 14.4846195,13.2023745 C14.4846195,13.0008984 14.4270558,12.8066208 14.3119266,12.6195359 C14.2486055,12.5130414 14.1651381,12.4108658 14.0615219,12.3130059 L13.716136,11.9719374 C13.3851396,11.6466974 13.1707146,11.3581592 13.0728548,11.1063141 C12.974995,10.854469 12.9260658,9.98453703 12.9260658,8.49649217 L13.6945494,8.49649217 C13.6945494,9.93560712 13.7355635,10.7479753 13.8175931,10.9336212 C13.8996226,11.119267 14.0787898,11.3459242 14.3550998,11.6135996 C14.7350262,11.982013 14.9875871,12.2611971 15.1127901,12.4511603 C15.2379931,12.6411235 15.3005936,12.8886475 15.3005936,13.1937399 C15.3005936,13.6974301 15.1300611,14.1111695 14.7889908,14.4349703 C14.4479206,14.7587712 13.9938866,14.9206692 13.4268753,14.9206692 Z M21.4808419,8.56125202 C21.958628,8.76848458 22.3630133,8.99154405 22.6940097,9.23043713 L23.1171074,9.53696708 L23.1084727,10.2450081 C22.3774024,9.84493414 21.8003259,9.57294549 21.3772261,9.429034 C20.6691816,9.19014092 19.8776802,9.07069617 19.0026983,9.07069617 C18.4385653,9.07069617 17.9176135,9.11674716 17.4398273,9.20885051 C16.7116351,9.34988378 16.0136749,9.60172512 15.3459255,9.96438208 L14.8623853,10.2320561 L14.8623853,9.50242849 C15.5013524,9.03327702 16.1302362,8.67638187 16.7490556,8.43173233 C17.4714913,8.14390934 18.1967943,8 18.9249865,8 C19.7654296,8 20.6173729,8.18708214 21.4808419,8.56125202 Z M19.9417161,8.7425796 C20.3072513,8.7425796 20.6152173,8.86850027 20.8656233,9.12034539 C21.1160293,9.3721905 21.2412304,9.67943693 21.2412304,10.0420939 C21.2412304,10.4162638 21.1109925,10.7278275 20.8505127,10.9767944 C20.5900329,11.2257613 20.2871037,11.3502428 19.9417161,11.3502428 C19.5589116,11.3502428 19.2451892,11.2207244 19.0005397,10.9616838 C18.7558901,10.7026431 18.6335672,10.4004317 18.6335672,10.0550459 C18.6335672,9.68663244 18.762366,9.37578828 19.0199676,9.12250405 C19.2775692,8.86921982 19.5848156,8.7425796 19.9417161,8.7425796 Z M19.1041554,10.0507285 C19.1041554,10.2752305 19.1861837,10.4695081 19.3502428,10.6335672 C19.514302,10.7976263 19.7114577,10.8796546 19.9417161,10.8796546 C20.1633398,10.8796546 20.3568979,10.7983458 20.5223961,10.6357258 C20.6878943,10.4731059 20.7706422,10.2752305 20.7706422,10.0420939 C20.7706422,9.81759197 20.6893334,9.62331437 20.5267134,9.45925526 C20.3640934,9.29519616 20.1690963,9.21316784 19.9417161,9.21316784 C19.714336,9.21316784 19.5178997,9.29447661 19.3524015,9.4570966 C19.1869033,9.61971659 19.1041554,9.81759193 19.1041554,10.0507285 Z M21.996762,16.7253103 C22.4544006,15.833059 22.7494147,15.1825888 22.8818133,14.7738802 C23.0832894,14.1550608 23.1840259,13.4297577 23.1840259,12.5979493 C23.1840259,11.7661408 23.0674593,11.0048604 22.8343227,10.3140853 C22.6904112,9.88810724 22.4069098,9.27505347 21.98381,8.47490556 L22.5062062,8.47490556 C22.9494536,9.18295011 23.2178445,9.61971495 23.3113869,9.78521317 C23.4049294,9.95071139 23.5063855,10.1788077 23.6157582,10.4695089 C23.7539133,10.8292876 23.8524912,11.1847437 23.9114949,11.5358877 C23.9704986,11.8870318 24,12.2252187 24,12.5504587 C24,13.4024148 23.8647252,14.1622561 23.5941716,14.8300054 C23.424356,15.2588617 23.0717782,15.8906236 22.5364274,16.7253103 L21.996762,16.7253103 Z" id="(͡°͜ʖ͡°)" fill="#000000" fill-rule="nonzero"></path>
    </g>
</svg>