<?xml version="1.0" encoding="UTF-8"?>
<svg width="24px" height="24px" viewBox="0 0 24 24" version="1.1" xmlns="http://www.w3.org/2000/svg" xmlns:xlink="http://www.w3.org/1999/xlink">
    <!-- Generator: Sketch 57.1 (83088) - https://sketch.com -->
    <title>regex-search-icon</title>
    <desc>Created with Sketch.</desc>
    <g id="regex-search-icon" stroke="none" stroke-width="1" fill="none" fill-rule="evenodd">
        <path d="M2.4,3.7 L5.775,3.7 L5.775,4.99199219 L3.89414063,4.99199219 L3.89414063,18.9490234 L5.775,18.9490234 L5.775,20.2410156 L2.4,20.2410156 L2.4,3.7 Z M21.605,3.7 L21.605,20.2410156 L18.23,20.2410156 L18.23,18.9490234 L20.1020703,18.9490234 L20.1020703,4.99199219 L18.23,4.99199219 L18.23,3.7 L21.605,3.7 Z M10.4,15.6 L10.4,18.1 L7.9,18.1 L7.9,15.6 L10.4,15.6 Z M14.5695313,4.6 L14.5695313,6.55996094 L16.4855469,5.89199219 L16.8371094,6.86757812 L14.9210938,7.49160156 L16.1076172,9.14394531 L15.2375,9.76796875 L14.0861328,8.05410156 L12.9259766,9.76796875 L12.0294922,9.14394531 L13.2335938,7.49160156 L11.3,6.86757812 L11.6515625,5.89199219 L13.55,6.57753906 L13.55,4.6 L14.5695313,4.6 Z" id="[]" fill="#000000" fill-rule="nonzero"></path>
    </g>
</svg>