<?xml version="1.0" encoding="UTF-8"?>
<svg width="24px" height="24px" viewBox="0 0 24 24" version="1.1" xmlns="http://www.w3.org/2000/svg" xmlns:xlink="http://www.w3.org/1999/xlink">
    <!-- Generator: Sketch 57.1 (83088) - https://sketch.com -->
    <title>timer-12h-icon</title>
    <desc>Created with Sketch.</desc>
    <g id="timer-12h-icon" stroke="none" stroke-width="1" fill="none" fill-rule="evenodd">
        <g id="timer">
            <rect id="Rectangle" x="0" y="0" width="24" height="24"></rect>
            <g id="timer-icon" transform="translate(3.000000, 0.000000)" fill="#000000" fill-rule="nonzero">
                <path d="M12.5333333,5.46666667 C11.5583333,4.49166667 10.2833333,4 9,4 L9,9 L5.46666667,12.5333333 C7.41666667,14.4833333 10.5833333,14.4833333 12.5416667,12.5333333 C14.4916667,10.5833333 14.4916667,7.41666667 12.5333333,5.46666667 Z M9,0.666666667 C4.4,0.666666667 0.666666667,4.4 0.666666667,9 C0.666666667,13.6 4.4,17.3333333 9,17.3333333 C13.6,17.3333333 17.3333333,13.6 17.3333333,9 C17.3333333,4.4 13.6,0.666666667 9,0.666666667 Z M9,15.6666667 C5.31666667,15.6666667 2.33333333,12.6833333 2.33333333,9 C2.33333333,5.31666667 5.31666667,2.33333333 9,2.33333333 C12.6833333,2.33333333 15.6666667,5.31666667 15.6666667,9 C15.6666667,12.6833333 12.6833333,15.6666667 9,15.6666667 Z" id="Shape"></path>
            </g>
        </g>
        <path d="M7.5,20.0276562 L7.5,19.6233594 C7.88086128,19.5862498 8.14648362,19.5242387 8.296875,19.4373242 C8.44726638,19.3504097 8.55956994,19.1448454 8.63378906,18.820625 L9.04980469,18.820625 L9.04980469,22.9983594 L8.48730469,22.9983594 L8.48730469,20.0276562 L7.5,20.0276562 Z M10.4501953,22.9983594 C10.4697267,22.6370294 10.5444329,22.3225795 10.6743164,22.055 C10.8041999,21.7874205 11.0576153,21.5442589 11.4345703,21.3255078 L11.9970703,21.0003125 C12.2490247,20.8538274 12.4257807,20.7288286 12.5273438,20.6253125 C12.6875008,20.4632023 12.7675781,20.2776573 12.7675781,20.0686719 C12.7675781,19.82453 12.6943367,19.6306843 12.5478516,19.4871289 C12.4013665,19.3435735 12.2060559,19.2717969 11.9619141,19.2717969 C11.6005841,19.2717969 11.3505866,19.4085143 11.2119141,19.6819531 C11.1376949,19.8284382 11.0966797,20.0315612 11.0888672,20.2913281 L10.5527344,20.2913281 C10.5585938,19.9260919 10.6259759,19.6282433 10.7548828,19.3977734 C10.9833996,18.9915214 11.3867159,18.7883984 11.9648438,18.7883984 C12.4453149,18.7883984 12.7963856,18.91828 13.0180664,19.1780469 C13.2397472,19.4378138 13.3505859,19.7268734 13.3505859,20.0452344 C13.3505859,20.3811736 13.2324231,20.6682801 12.9960938,20.9065625 C12.8593743,21.0452351 12.6142596,21.2132021 12.2607422,21.4104687 L11.859375,21.633125 C11.6679678,21.7385943 11.5175787,21.8391792 11.4082031,21.9348828 C11.2128896,22.1048055 11.089844,22.2932802 11.0390625,22.5003125 L13.3300781,22.5003125 L13.3300781,22.9983594 L10.4501953,22.9983594 Z M13.9863281,18.68 L14.5136719,18.68 L14.5136719,20.2854687 C14.6386725,20.1272648 14.7509761,20.0159378 14.8505859,19.9514844 C15.0205087,19.8401557 15.2324206,19.7844922 15.4863281,19.7844922 C15.9414085,19.7844922 16.2499992,19.9436703 16.4121094,20.2620312 C16.5000004,20.4358602 16.5439453,20.6770688 16.5439453,20.9856641 L16.5439453,22.9983594 L16.0019531,22.9983594 L16.0019531,21.0208203 C16.0019531,20.7903504 15.9726565,20.6214068 15.9140625,20.5139844 C15.8183589,20.3421085 15.6386732,20.2561719 15.375,20.2561719 C15.1562489,20.2561719 14.9580087,20.3313664 14.7802734,20.4817578 C14.6025382,20.6321492 14.5136719,20.916326 14.5136719,21.3342969 L14.5136719,22.9983594 L13.9863281,22.9983594 L13.9863281,18.68 Z" id="12h" fill="#000000" fill-rule="nonzero"></path>
    </g>
</svg>