<?xml version="1.0" encoding="UTF-8"?>
<svg width="24px" height="24px" viewBox="0 0 24 24" version="1.1" xmlns="http://www.w3.org/2000/svg" xmlns:xlink="http://www.w3.org/1999/xlink">
    <!-- Generator: Sketch 57.1 (83088) - https://sketch.com -->
    <title>timer-1min-icon</title>
    <desc>Created with Sketch.</desc>
    <g id="timer-1min-icon" stroke="none" stroke-width="1" fill="none" fill-rule="evenodd">
        <g id="timer">
            <rect id="Rectangle" x="0" y="0" width="24" height="24"></rect>
            <g id="timer-icon" transform="translate(3.000000, 0.000000)" fill="#000000" fill-rule="nonzero">
                <path d="M12.5333333,5.46666667 C11.5583333,4.49166667 10.2833333,4 9,4 L9,9 L5.46666667,12.5333333 C7.41666667,14.4833333 10.5833333,14.4833333 12.5416667,12.5333333 C14.4916667,10.5833333 14.4916667,7.41666667 12.5333333,5.46666667 Z M9,0.666666667 C4.4,0.666666667 0.666666667,4.4 0.666666667,9 C0.666666667,13.6 4.4,17.3333333 9,17.3333333 C13.6,17.3333333 17.3333333,13.6 17.3333333,9 C17.3333333,4.4 13.6,0.666666667 9,0.666666667 Z M9,15.6666667 C5.31666667,15.6666667 2.33333333,12.6833333 2.33333333,9 C2.33333333,5.31666667 5.31666667,2.33333333 9,2.33333333 C12.6833333,2.33333333 15.6666667,5.31666667 15.6666667,9 C15.6666667,12.6833333 12.6833333,15.6666667 9,15.6666667 Z" id="Shape"></path>
            </g>
        </g>
        <path d="M6,20.0330078 L6,19.6287109 C6.38086128,19.5916014 6.64648362,19.5295903 6.796875,19.4426758 C6.94726638,19.3557613 7.05956994,19.1501969 7.13378906,18.8259766 L7.54980469,18.8259766 L7.54980469,23.0037109 L6.98730469,23.0037109 L6.98730469,20.0330078 L6,20.0330078 Z M9.14941406,19.8660156 L9.67089844,19.8660156 L9.67089844,20.3113281 C9.79589906,20.1570305 9.90917918,20.0447269 10.0107422,19.9744141 C10.1845712,19.8552728 10.3818348,19.7957031 10.6025391,19.7957031 C10.8525403,19.7957031 11.0537102,19.8572259 11.2060547,19.9802734 C11.2919926,20.0505863 11.3701168,20.1541009 11.4404297,20.2908203 C11.5576178,20.1228507 11.6953117,19.9983402 11.8535156,19.9172852 C12.0117195,19.8362301 12.1894521,19.7957031 12.3867188,19.7957031 C12.8085959,19.7957031 13.0957024,19.9480454 13.2480469,20.2527344 C13.3300785,20.4167977 13.3710938,20.6374986 13.3710938,20.9148438 L13.3710938,23.0037109 L12.8232422,23.0037109 L12.8232422,20.8240234 C12.8232422,20.615038 12.7709966,20.4714848 12.6665039,20.3933594 C12.5620112,20.315234 12.4345711,20.2761719 12.2841797,20.2761719 C12.0771474,20.2761719 11.8989265,20.3455071 11.7495117,20.4841797 C11.6000969,20.6228523 11.5253906,20.8542953 11.5253906,21.1785156 L11.5253906,23.0037109 L10.9892578,23.0037109 L10.9892578,20.9558594 C10.9892578,20.7429677 10.9638674,20.5876958 10.9130859,20.4900391 C10.8330074,20.343554 10.6835948,20.2703125 10.4648438,20.2703125 C10.265624,20.2703125 10.0844735,20.3474602 9.92138672,20.5017578 C9.75829997,20.6560555 9.67675781,20.9353495 9.67675781,21.3396484 L9.67675781,23.0037109 L9.14941406,23.0037109 L9.14941406,19.8660156 Z M14.1474609,19.8806641 L14.6835938,19.8806641 L14.6835938,23.0037109 L14.1474609,23.0037109 L14.1474609,19.8806641 Z M14.1474609,18.7 L14.6835938,18.7 L14.6835938,19.2976563 L14.1474609,19.2976563 L14.1474609,18.7 Z M15.4804688,19.8660156 L15.9814453,19.8660156 L15.9814453,20.3113281 C16.1298836,20.1277335 16.2871085,19.9958988 16.453125,19.9158203 C16.6191415,19.8357418 16.8037099,19.7957031 17.0068359,19.7957031 C17.4521507,19.7957031 17.7529289,19.950975 17.9091797,20.2615234 C17.9951176,20.4314462 18.0380859,20.6746078 18.0380859,20.9910156 L18.0380859,23.0037109 L17.5019531,23.0037109 L17.5019531,21.0261719 C17.5019531,20.8347647 17.4736331,20.6804693 17.4169922,20.5632813 C17.3232417,20.3679678 17.1533215,20.2703125 16.9072266,20.2703125 C16.7822259,20.2703125 16.6796879,20.2830077 16.5996094,20.3083984 C16.4550774,20.3513674 16.3281255,20.437304 16.21875,20.5662109 C16.1308589,20.6697271 16.0737306,20.7766596 16.0473633,20.8870117 C16.020996,20.9973638 16.0078125,21.1550771 16.0078125,21.3601563 L16.0078125,23.0037109 L15.4804688,23.0037109 L15.4804688,19.8660156 Z" id="1min" fill="#000000" fill-rule="nonzero"></path>
    </g>
</svg>