<?xml version="1.0" encoding="UTF-8"?>
<svg width="24px" height="24px" viewBox="0 0 24 24" version="1.1" xmlns="http://www.w3.org/2000/svg" xmlns:xlink="http://www.w3.org/1999/xlink">
    <!-- Generator: Sketch 57.1 (83088) - https://sketch.com -->
    <title>upside-down-emoji-icon</title>
    <desc>Created with Sketch.</desc>
    <g id="upside-down-emoji-icon" stroke="none" stroke-width="1" fill="none" fill-rule="evenodd">
        <polygon id="Shape" points="0 0 24 0 24 24 0 24"></polygon>
        <g id="emoji-icon" transform="translate(12.000000, 12.000000) scale(1, -1) translate(-12.000000, -12.000000) translate(2.000000, 2.000000)" fill="#000000" fill-rule="nonzero">
            <path d="M9.99,0 C4.47,0 0,4.48 0,10 C0,15.52 4.47,20 9.99,20 C15.52,20 20,15.52 20,10 C20,4.48 15.52,0 9.99,0 Z M10,18 C5.58,18 2,14.42 2,10 C2,5.58 5.58,2 10,2 C14.42,2 18,5.58 18,10 C18,14.42 14.42,18 10,18 Z M13.5,9 C14.33,9 15,8.33 15,7.5 C15,6.67 14.33,6 13.5,6 C12.67,6 12,6.67 12,7.5 C12,8.33 12.67,9 13.5,9 Z M6.5,9 C7.33,9 8,8.33 8,7.5 C8,6.67 7.33,6 6.5,6 C5.67,6 5,6.67 5,7.5 C5,8.33 5.67,9 6.5,9 Z" id="Shape"></path>
            <path d="M15.2836848,15.0208524 C14.3152848,12.7151381 12.3305593,11.5 10,11.5 C7.66944075,11.5 5.68471522,12.7151381 4.71631521,15.0208524 L6.28368479,15.6791476 C6.97682324,14.028818 8.33055925,13.2 10,13.2 C11.6694407,13.2 13.0231768,14.028818 13.7163152,15.6791476 L15.2836848,15.0208524 Z" id="Oval" transform="translate(10.000000, 13.589574) scale(1, -1) translate(-10.000000, -13.589574) "></path>
        </g>
    </g>
</svg>