<?xml version="1.0" encoding="utf-8"?>
<!-- Generator: Adobe Illustrator 23.0.1, SVG Export Plug-In . SVG Version: 6.00 Build 0)  -->
<svg version="1.1" xmlns="http://www.w3.org/2000/svg" xmlns:xlink="http://www.w3.org/1999/xlink" x="0px" y="0px" width="24px"
	 height="24px" viewBox="0 0 24 24" enable-background="new 0 0 24 24" xml:space="preserve">
<g id="Bounding_Box">
	<rect fill="none" width="24" height="24"/>
</g>
<g id="Master">
	<g id="ui_x5F_spec_x5F_header_copy">
	</g>
	<path d="M12,3c-0.46,0-0.93,0.04-1.4,0.14C7.84,3.67,5.64,5.9,5.12,8.66c-0.48,2.61,0.48,5.01,2.22,6.56C7.77,15.6,8,16.13,8,16.69
		V19c0,1.1,0.9,2,2,2h0.28c0.35,0.6,0.98,1,1.72,1s1.38-0.4,1.72-1H14c1.1,0,2-0.9,2-2v-2.31c0-0.55,0.22-1.09,0.64-1.46
		C18.09,13.95,19,12.08,19,10C19,6.13,15.87,3,12,3z M14,19h-4v-1h4V19z M14,17h-4v-1h4V17z M12.5,11.41V14h-1v-2.59L9.67,9.59
		l0.71-0.71L12,10.5l1.62-1.62l0.71,0.71L12.5,11.41z"/>
</g>
</svg>
