<?xml version="1.0" encoding="UTF-8"?>
<svg width="24px" height="24px" viewBox="0 0 24 24" version="1.1" xmlns="http://www.w3.org/2000/svg" xmlns:xlink="http://www.w3.org/1999/xlink">
    <!-- Generator: Sketch 57.1 (83088) - https://sketch.com -->
    <title>contacts-icon</title>
    <desc>Created with Sketch.</desc>
    <g id="contacts-icon" stroke="none" stroke-width="1" fill="none" fill-rule="evenodd">
        <g id="Shape">
            <polygon points="0 0 24 0 24 24 0 24"></polygon>
            <path d="M16,12 C17.66,12 18.99,10.66 18.99,9 C18.99,7.34 17.66,6 16,6 C14.34,6 13,7.34 13,9 C13,10.66 14.34,12 16,12 Z M8,12 C9.66,12 10.99,10.66 10.99,9 C10.99,7.34 9.66,6 8,6 C6.34,6 5,7.34 5,9 C5,10.66 6.34,12 8,12 Z M8,14 C5.67,14 1,15.17 1,17.5 L1,20 L15,20 L15,17.5 C15,15.17 10.33,14 8,14 Z M16,14 C15.71,14 15.38,14.02 15.03,14.05 C16.19,14.89 17,16.02 17,17.5 L17,20 L23,20 L23,17.5 C23,15.17 18.33,14 16,14 Z" fill="#000000" fill-rule="nonzero"></path>
        </g>
    </g>
</svg>