<?xml version="1.0" encoding="UTF-8"?>
<svg width="22px" height="22px" viewBox="0 0 22 22" version="1.1" xmlns="http://www.w3.org/2000/svg" xmlns:xlink="http://www.w3.org/1999/xlink">
    <!-- Generator: Sketch 57.1 (83088) - https://sketch.com -->
    <title>12h-dark</title>
    <desc>Created with Sketch.</desc>
    <g id="12h-dark" stroke="none" stroke-width="1" fill="none" fill-rule="evenodd">
        <polygon id="Path" points="0 0 22 0 22 22 0 22"></polygon>
        <path d="M16.9583333,3.20833333 L16.9583333,4.58333333 L15.8116667,4.58333333 L15.8125,7.5068777 L11.9296667,10.9793333 L15.8125,14.455831 L15.8116667,17.4163333 L16.9583333,17.4166667 L16.9583333,18.7916667 L5.04166667,18.7916667 L5.04166667,17.4166667 L6.18666667,17.4163333 L6.1875,14.455831 L10.0686667,10.9793333 L6.1875,7.5068777 L6.18666667,4.58333333 L5.04166667,4.58333333 L5.04166667,3.20833333 L16.9583333,3.20833333 Z M10.9996667,11.8113333 L7.390625,15.041006 L7.38966667,16.2703333 L14.6086667,16.2703333 L14.609375,15.041006 L10.9996667,11.8113333 Z M14.6066667,4.58333333 L7.39166667,4.58333333 L7.39366667,5.72833333 L14.6046667,5.72833333 L14.6066667,4.58333333 Z" id="Combined-Shape" fill="#B3B3B3"></path>
        <path d="M1.8336285,8.95869476 C1.51249419,8.95935315 1.24917539,8.97567599 0.878740921,9.01572296 L0.325,9.07558684 L0.325,6.66266589 L0.904616219,6.75615237 C1.17083746,6.79909128 1.35605359,6.80971844 1.82409173,6.80971844 L2.74325613,6.80971844 C3.21249425,6.80971844 3.34723293,6.80280876 3.70711394,6.76282198 L4.32239733,6.69445716 L4.25976412,7.3103504 C4.20327217,7.86585454 4.18240236,8.30620756 4.18240236,8.90826521 L4.18240236,13.9636694 C4.18240236,14.4846009 4.20240162,14.8165885 4.25706023,15.1900891 L4.34082603,15.7624886 L1.67089555,15.7624886 L1.75951533,15.1864601 C1.81257443,14.8415759 1.83362852,14.4857618 1.83362852,13.9636694 L1.83362852,8.95869473 Z M8.4502612,13.4336966 L10.3663261,13.4336966 C10.9555321,13.4336966 11.4388351,13.4065725 11.7500973,13.3594115 L12.325,13.2723051 L12.325,15.7169311 L11.7826001,15.6707694 C11.2897105,15.6288213 10.9030201,15.6126249 10.3163715,15.6126249 L7.10928701,15.6126249 C6.38814117,15.6126249 6.22809076,15.6192477 5.87723197,15.6593458 L5.25795508,15.7301203 L5.32320595,15.1102371 C5.38750546,14.4993917 5.46560276,14.1136384 5.6112707,13.7102941 C5.90882051,12.9058076 6.40328504,12.1994297 7.11746058,11.5512282 C7.51598378,11.1982505 7.86476869,10.9406862 8.81497687,10.3040776 C9.61949212,9.75315959 9.79638965,9.53801396 9.79638965,9.2479564 C9.79638965,8.87391489 9.51371041,8.6489555 8.91764305,8.6489555 C8.4940612,8.6489555 8.21842666,8.77629543 8.05680879,9.02742829 C7.94254022,9.18874862 7.89403506,9.33426411 7.83338753,9.73280501 L7.76058614,10.2112141 L5.32209341,9.9213234 L5.41865034,9.3971572 C5.57263971,8.56121488 5.785969,8.06835066 6.22104525,7.56272183 C6.82473058,6.86244685 7.75501082,6.5 8.8876703,6.5 C10.8904162,6.5 12.2150999,7.53332102 12.2150999,9.20799273 C12.2150999,10.0016886 11.9412944,10.6140708 11.3459703,11.1729363 C11.0249259,11.4710489 10.8675072,11.586902 9.61524743,12.4441636 C9.20176002,12.7354842 8.72830735,13.1332965 8.5031201,13.3764846 C8.48464987,13.3961862 8.46705783,13.4152139 8.4502612,13.4336966 Z" id="12H" stroke="#FFFFFF" fill="#FFFFFF" fill-rule="nonzero"></path>
        <path d="M3.7623297,15.2624886 L2.25370118,15.2624886 C2.31364668,14.8728429 2.33362852,14.4831971 2.33362852,13.9636694 L2.33362852,8.45867393 L1.85406449,8.45867393 C1.48440054,8.45867393 1.19466394,8.47865577 0.825,8.51861944 L0.825,7.24977293 C1.13471844,7.29972752 1.35451862,7.30971844 1.82409173,7.30971844 L2.74325613,7.30971844 C3.25279292,7.30971844 3.40265668,7.29972752 3.7623297,7.25976385 C3.7023842,7.84922797 3.68240236,8.30881017 3.68240236,8.90826521 L3.68240236,13.9636694 C3.68240236,14.493188 3.7023842,14.852861 3.7623297,15.2624886 Z M10.3163715,15.1126249 L7.10928701,15.1126249 C6.32999546,15.1126249 6.17014078,15.1226158 5.82045867,15.1625795 C5.88040418,14.5930972 5.9503406,14.2434151 6.08022252,13.8837421 C6.34997729,13.1544051 6.79956857,12.5149864 7.4489782,11.9255223 C7.79866031,11.6158038 8.09838783,11.3860127 9.09747956,10.7166213 C10.016644,10.0871935 10.2963896,9.75749319 10.2963896,9.2479564 C10.2963896,8.56857402 9.76687103,8.1489555 8.91764305,8.1489555 C8.33816985,8.1489555 7.89856948,8.34877384 7.64879655,8.73841962 C7.47895095,8.97820163 7.40901453,9.19800182 7.33907811,9.65758401 L5.91037693,9.48773842 C6.05024977,8.7284287 6.23008629,8.31880109 6.59975023,7.88919164 C7.09929609,7.30971844 7.88857856,7 8.8876703,7 C10.6360808,7 11.7150999,7.83923706 11.7150999,9.20799273 C11.7150999,9.86739328 11.4952997,10.3469573 11.0057448,10.8065395 C10.7259991,11.0663034 10.6260899,11.1462307 9.32727066,12.0354223 C8.8876703,12.3451408 8.38812443,12.7647593 8.1383515,13.0345141 C7.83862398,13.3542234 7.71873297,13.5540418 7.56886921,13.9336966 L10.3663261,13.9336966 C10.9957539,13.9336966 11.4952997,13.9037239 11.825,13.8537693 L11.825,15.1725704 C11.3554269,15.1326067 10.9557902,15.1126249 10.3163715,15.1126249 Z" id="12H" stroke="#000000" stroke-width="0.4" fill="#000000" fill-rule="nonzero"></path>
        <path d="M19.1481082,12.1621934 L16.3175374,12.1621934 L16.3175374,13.8156984 C16.3175374,14.3369508 16.3341545,14.6011637 16.3884982,14.9725119 L16.472264,15.5449114 L13.8888373,15.5449114 L13.9800975,14.9669302 C14.0327979,14.6331607 14.0502092,14.3528386 14.0502092,13.8156984 L14.0502092,8.68921304 C14.0502092,8.15542522 14.033189,7.88310205 13.9797931,7.53602859 L13.8911733,6.96 L16.4702725,6.96 L16.3887424,7.53071068 C16.3355687,7.9029267 16.3175374,8.19323055 16.3175374,8.67968425 L16.3175374,10.0187394 L19.1481082,10.0187394 L19.1481082,8.68921304 C19.1481082,8.15697116 19.1292313,7.84550097 19.078681,7.54219949 L18.9816478,6.96 L21.570163,6.96 L21.4863972,7.53239959 C21.4321376,7.90317366 21.4154364,8.16705226 21.4154364,8.67968425 L21.4154364,13.8156984 C21.4154364,14.3334564 21.4316079,14.5889662 21.4866414,14.9742008 L21.5681715,15.5449114 L18.9890723,15.5449114 L19.0776921,14.9688829 C19.131088,14.6218094 19.1481082,14.3494862 19.1481082,13.8156984 L19.1481082,12.1621934 Z" id="Path" stroke="#FFFFFF" fill="#FFFFFF" fill-rule="nonzero"></path>
        <path d="M19.571878,7.46 L20.9916667,7.46 C20.934494,7.85068011 20.9154364,8.13654361 20.9154364,8.67968425 L20.9154364,13.8156984 C20.9154364,14.3683678 20.934494,14.6447026 20.9916667,15.0449114 L19.571878,15.0449114 C19.6290507,14.6732889 19.6481082,14.3778966 19.6481082,13.8156984 L19.6481082,11.6621934 L15.8175374,11.6621934 L15.8175374,13.8156984 C15.8175374,14.3683678 15.8365949,14.6542313 15.8937676,15.0449114 L14.4739789,15.0449114 C14.5311516,14.6828177 14.5502092,14.3778966 14.5502092,13.8156984 L14.5502092,8.68921304 C14.5502092,8.12701483 14.5311516,7.83162255 14.4739789,7.46 L15.8937676,7.46 C15.8365949,7.8602089 15.8175374,8.17465874 15.8175374,8.67968425 L15.8175374,10.5187394 L19.6481082,10.5187394 L19.6481082,8.68921304 C19.6481082,8.14607239 19.6290507,7.8030362 19.571878,7.46 Z" id="Path" stroke="#000000" stroke-width="0.4" fill="#000000" fill-rule="nonzero"></path>
    </g>
</svg>