<?xml version="1.0" encoding="UTF-8"?>
<svg width="22px" height="22px" viewBox="0 0 22 22" version="1.1" xmlns="http://www.w3.org/2000/svg" xmlns:xlink="http://www.w3.org/1999/xlink">
    <!-- Generator: Sketch 57.1 (83088) - https://sketch.com -->
    <title>12h</title>
    <desc>Created with Sketch.</desc>
    <g id="12h" stroke="none" stroke-width="1" fill="none" fill-rule="evenodd">
        <polygon id="Path" points="0 0 22 0 22 22 0 22"></polygon>
        <path d="M16.9583333,3.20833333 L16.9583333,4.58333333 L15.8116667,4.58333333 L15.8125,7.5068777 L11.9296667,10.9793333 L15.8125,14.455831 L15.8116667,17.4163333 L16.9583333,17.4166667 L16.9583333,18.7916667 L5.04166667,18.7916667 L5.04166667,17.4166667 L6.18666667,17.4163333 L6.1875,14.455831 L10.0686667,10.9793333 L6.1875,7.5068777 L6.18666667,4.58333333 L5.04166667,4.58333333 L5.04166667,3.20833333 L16.9583333,3.20833333 Z M10.9996667,11.8113333 L7.390625,15.041006 L7.38966667,16.2703333 L14.6086667,16.2703333 L14.609375,15.041006 L10.9996667,11.8113333 Z M14.6066667,4.58333333 L7.39166667,4.58333333 L7.39366667,5.72833333 L14.6046667,5.72833333 L14.6066667,4.58333333 Z" id="Combined-Shape" fill="#EFEFEF" opacity="0.75"></path>
        <path d="M1.8336285,9.2920281 C1.51249419,9.29268649 1.24917539,9.30900932 0.878740921,9.34905629 L0.325,9.40892018 L0.325,6.99599922 L0.904616219,7.08948571 C1.17083746,7.13242462 1.35605359,7.14305177 1.82409173,7.14305177 L2.74325613,7.14305177 C3.21249425,7.14305177 3.34723293,7.1361421 3.70711394,7.09615532 L4.32239733,7.0277905 L4.25976412,7.64368374 C4.20327217,8.19918787 4.18240236,8.63954089 4.18240236,9.24159855 L4.18240236,14.2970027 C4.18240236,14.8179342 4.20240162,15.1499218 4.25706023,15.5234224 L4.34082603,16.095822 L1.67089555,16.095822 L1.75951533,15.5197934 C1.81257443,15.1749093 1.83362852,14.8190951 1.83362852,14.2970027 L1.83362852,9.29202806 Z M8.4502612,13.76703 L10.3663261,13.76703 C10.9555321,13.76703 11.4388351,13.7399058 11.7500973,13.6927449 L12.325,13.6056384 L12.325,16.0502644 L11.7826001,16.0041027 C11.2897105,15.9621547 10.9030201,15.9459582 10.3163715,15.9459582 L7.10928701,15.9459582 C6.38814117,15.9459582 6.22809076,15.952581 5.87723197,15.9926791 L5.25795508,16.0634536 L5.32320595,15.4435704 C5.38750546,14.8327251 5.46560276,14.4469717 5.6112707,14.0436275 C5.90882051,13.2391409 6.40328504,12.532763 7.11746058,11.8845615 C7.51598378,11.5315838 7.86476869,11.2740196 8.81497687,10.637411 C9.61949212,10.0864929 9.79638965,9.87134729 9.79638965,9.58128974 C9.79638965,9.20724822 9.51371041,8.98228883 8.91764305,8.98228883 C8.4940612,8.98228883 8.21842666,9.10962876 8.05680879,9.36076162 C7.94254022,9.52208195 7.89403506,9.66759745 7.83338753,10.0661383 L7.76058614,10.5445475 L5.32209341,10.2546567 L5.41865034,9.73049054 C5.57263971,8.89454821 5.785969,8.40168399 6.22104525,7.89605517 C6.82473058,7.19578018 7.75501082,6.83333333 8.8876703,6.83333333 C10.8904162,6.83333333 12.2150999,7.86665436 12.2150999,9.54132607 C12.2150999,10.335022 11.9412944,10.9474041 11.3459703,11.5062696 C11.0249259,11.8043822 10.8675072,11.9202353 9.61524743,12.7774969 C9.20176002,13.0688176 8.72830735,13.4666299 8.5031201,13.709818 C8.48464987,13.7295196 8.46705783,13.7485472 8.4502612,13.76703 Z" id="12H" stroke="#000000" fill="#000000" fill-rule="nonzero"></path>
        <path d="M3.7623297,15.595822 L2.25370118,15.595822 C2.31364668,15.2061762 2.33362852,14.8165304 2.33362852,14.2970027 L2.33362852,8.79200727 L1.85406449,8.79200727 C1.48440054,8.79200727 1.19466394,8.8119891 0.825,8.85195277 L0.825,7.58310627 C1.13471844,7.63306085 1.35451862,7.64305177 1.82409173,7.64305177 L2.74325613,7.64305177 C3.25279292,7.64305177 3.40265668,7.63306085 3.7623297,7.59309718 C3.7023842,8.18256131 3.68240236,8.64214351 3.68240236,9.24159855 L3.68240236,14.2970027 C3.68240236,14.8265213 3.7023842,15.1861944 3.7623297,15.595822 Z M10.3163715,15.4459582 L7.10928701,15.4459582 C6.32999546,15.4459582 6.17014078,15.4559491 5.82045867,15.4959128 C5.88040418,14.9264305 5.9503406,14.5767484 6.08022252,14.2170754 C6.34997729,13.4877384 6.79956857,12.8483197 7.4489782,12.2588556 C7.79866031,11.9491371 8.09838783,11.719346 9.09747956,11.0499546 C10.016644,10.4205268 10.2963896,10.0908265 10.2963896,9.58128974 C10.2963896,8.90190736 9.76687103,8.48228883 8.91764305,8.48228883 C8.33816985,8.48228883 7.89856948,8.68210718 7.64879655,9.07175295 C7.47895095,9.31153497 7.40901453,9.53133515 7.33907811,9.99091735 L5.91037693,9.82107175 C6.05024977,9.06176203 6.23008629,8.65213442 6.59975023,8.22252498 C7.09929609,7.64305177 7.88857856,7.33333333 8.8876703,7.33333333 C10.6360808,7.33333333 11.7150999,8.17257039 11.7150999,9.54132607 C11.7150999,10.2007266 11.4952997,10.6802906 11.0057448,11.1398728 C10.7259991,11.3996367 10.6260899,11.479564 9.32727066,12.3687557 C8.8876703,12.6784741 8.38812443,13.0980926 8.1383515,13.3678474 C7.83862398,13.6875568 7.71873297,13.8873751 7.56886921,14.26703 L10.3663261,14.26703 C10.9957539,14.26703 11.4952997,14.2370572 11.825,14.1871026 L11.825,15.5059037 C11.3554269,15.4659401 10.9557902,15.4459582 10.3163715,15.4459582 Z" id="12H" stroke="#FFFFFF" stroke-width="0.4" fill="#FFFFFF" fill-rule="nonzero"></path>
        <path d="M19.1481082,12.4938601 L16.3175374,12.4938601 L16.3175374,14.1473651 C16.3175374,14.6686174 16.3341545,14.9328304 16.3884982,15.3041785 L16.472264,15.8765781 L13.8888373,15.8765781 L13.9800975,15.2985968 C14.0327979,14.9648274 14.0502092,14.6845053 14.0502092,14.1473651 L14.0502092,9.0208797 C14.0502092,8.48709188 14.033189,8.21476872 13.9797931,7.86769526 L13.8911733,7.29166667 L16.4702725,7.29166667 L16.3887424,7.86237734 C16.3355687,8.23459337 16.3175374,8.52489722 16.3175374,9.01135092 L16.3175374,10.3504061 L19.1481082,10.3504061 L19.1481082,9.0208797 C19.1481082,8.48863783 19.1292313,8.17716764 19.078681,7.87386616 L18.9816478,7.29166667 L21.570163,7.29166667 L21.4863972,7.86406626 C21.4321376,8.23484033 21.4154364,8.49871893 21.4154364,9.01135092 L21.4154364,14.1473651 C21.4154364,14.6651231 21.4316079,14.9206329 21.4866414,15.3058674 L21.5681715,15.8765781 L18.9890723,15.8765781 L19.0776921,15.3005495 C19.131088,14.9534761 19.1481082,14.6811529 19.1481082,14.1473651 L19.1481082,12.4938601 Z" id="Path" stroke="#000000" fill="#000000" fill-rule="nonzero"></path>
        <path d="M19.571878,7.79166667 L20.9916667,7.79166667 C20.934494,8.18234678 20.9154364,8.46821028 20.9154364,9.01135092 L20.9154364,14.1473651 C20.9154364,14.7000345 20.934494,14.9763692 20.9916667,15.3765781 L19.571878,15.3765781 C19.6290507,15.0049556 19.6481082,14.7095633 19.6481082,14.1473651 L19.6481082,11.9938601 L15.8175374,11.9938601 L15.8175374,14.1473651 C15.8175374,14.7000345 15.8365949,14.985898 15.8937676,15.3765781 L14.4739789,15.3765781 C14.5311516,15.0144844 14.5502092,14.7095633 14.5502092,14.1473651 L14.5502092,9.0208797 C14.5502092,8.45868149 14.5311516,8.16328921 14.4739789,7.79166667 L15.8937676,7.79166667 C15.8365949,8.19187556 15.8175374,8.50632541 15.8175374,9.01135092 L15.8175374,10.8504061 L19.6481082,10.8504061 L19.6481082,9.0208797 C19.6481082,8.47773906 19.6290507,8.13470286 19.571878,7.79166667 Z" id="Path" stroke="#FFFFFF" stroke-width="0.4" fill="#FFFFFF" fill-rule="nonzero"></path>
    </g>
</svg>