<?xml version="1.0" encoding="UTF-8"?>
<svg width="22px" height="22px" viewBox="0 0 22 22" version="1.1" xmlns="http://www.w3.org/2000/svg" xmlns:xlink="http://www.w3.org/1999/xlink">
    <!-- Generator: Sketch 57.1 (83088) - https://sketch.com -->
    <title>1d-dark</title>
    <desc>Created with Sketch.</desc>
    <g id="1d-dark" stroke="none" stroke-width="1" fill="none" fill-rule="evenodd">
        <polygon id="Path" points="0 0 22 0 22 22 0 22"></polygon>
        <path d="M16.9583333,3.20833333 L16.9583333,4.58333333 L15.8116667,4.58333333 L15.8125,7.5068777 L11.9296667,10.9793333 L15.8125,14.455831 L15.8116667,17.4163333 L16.9583333,17.4166667 L16.9583333,18.7916667 L5.04166667,18.7916667 L5.04166667,17.4166667 L6.18666667,17.4163333 L6.1875,14.455831 L10.0686667,10.9793333 L6.1875,7.5068777 L6.18666667,4.58333333 L5.04166667,4.58333333 L5.04166667,3.20833333 L16.9583333,3.20833333 Z M10.9996667,11.8113333 L7.390625,15.041006 L7.38966667,16.2703333 L14.6086667,16.2703333 L14.609375,15.041006 L10.9996667,11.8113333 Z M14.6066667,4.58333333 L7.39166667,4.58333333 L7.39366667,5.72833333 L14.6046667,5.72833333 L14.6066667,4.58333333 Z" id="Combined-Shape" fill="#B3B3B3"></path>
        <path d="M3.94764795,7.86069803 L3.82852807,7.86069803 C3.39627849,7.86069803 3.04699599,7.88186666 2.55374092,7.93519154 L2,7.99505542 L2,5.21289295 L2.57961622,5.30637944 C2.93229787,5.36326358 3.17850098,5.37738998 3.78983308,5.37738998 L4.97647951,5.37738998 C5.58745404,5.37738998 5.76673845,5.36819591 6.23689349,5.31595646 L6.85217689,5.24759164 L6.78954368,5.86348488 C6.71609755,6.58570509 6.68892261,7.15909637 6.68892261,7.94112291 L6.68892261,14.4676783 C6.68892261,15.1467731 6.71515345,15.5822051 6.78683979,16.0720617 L6.87060558,16.6444613 L3.76165567,16.6444613 L3.85027546,16.0684327 C3.92005218,15.614884 3.94764795,15.1485154 3.94764795,14.4676783 L3.94764795,7.86069803 Z M10.2162367,14.4805766 L10.2162367,7.515478 C10.2162367,6.82784984 10.1933307,6.46135343 10.117635,5.90625159 L10.0362228,5.30922902 L10.6380189,5.33931882 C11.2457868,5.36970722 11.5358112,5.37738998 12.2511381,5.37738998 L14.585736,5.37738998 C16.3239961,5.37738998 17.4900136,5.75609652 18.4117432,6.64907459 C19.4607117,7.64056534 20,9.11365498 20,10.9206373 C20,12.8050259 19.4345103,14.3297005 18.3199675,15.3870751 C17.3902104,16.2587225 16.2329939,16.6444613 14.5986343,16.6444613 L12.2511381,16.6444613 C11.5566501,16.6444613 11.256635,16.6523564 10.6374114,16.6825625 L10.0303068,16.7121773 L10.1183195,16.1107567 C10.1929785,15.600587 10.2162367,15.2214783 10.2162367,14.4805766 Z M12.9317147,14.1224583 L14.4825493,14.1224583 C15.4134172,14.1224583 15.9628843,13.9241723 16.4014539,13.4542827 C16.9224695,12.9007036 17.207132,12.0321926 17.207132,10.9335357 C17.207132,9.82885346 16.9511005,9.03571245 16.4552784,8.51833053 C16.0353857,8.07795524 15.4973801,7.89939302 14.4954476,7.89939302 L12.9317147,7.89939302 L12.9317147,14.1224583 Z" id="1D" stroke="#FFFFFF" fill="#FFFFFF" fill-rule="nonzero"></path>
        <path d="M6.29210926,16.1444613 L4.34446131,16.1444613 C4.42185129,15.6414264 4.44764795,15.1383915 4.44764795,14.4676783 L4.44764795,7.36069803 L3.82852807,7.36069803 C3.35128983,7.36069803 2.97723824,7.38649469 2.5,7.43808801 L2.5,5.8 C2.89984825,5.86449165 3.18361153,5.87738998 3.78983308,5.87738998 L4.97647951,5.87738998 C5.63429439,5.87738998 5.82776935,5.86449165 6.29210926,5.81289833 C6.21471927,6.57389985 6.18892261,7.16722307 6.18892261,7.94112291 L6.18892261,14.4676783 C6.18892261,15.1512898 6.21471927,15.6156297 6.29210926,16.1444613 Z M10.7162367,14.4805766 L10.7162367,7.515478 C10.7162367,6.79317147 10.6904401,6.40622155 10.6130501,5.83869499 C11.1289833,5.86449165 11.4385432,5.87738998 12.2511381,5.87738998 L14.585736,5.87738998 C16.1980273,5.87738998 17.2427921,6.21274659 18.0682853,7.0124431 C19.0098634,7.90242792 19.5,9.24385432 19.5,10.9206373 C19.5,12.6748103 18.9840668,14.06783 17.977997,15.0223065 C17.1525038,15.7962064 16.1206373,16.1444613 14.5986343,16.1444613 L12.2511381,16.1444613 C11.4643399,16.1444613 11.1418816,16.1573596 10.6130501,16.1831563 C10.6904401,15.6543247 10.7162367,15.2544765 10.7162367,14.4805766 Z M12.4317147,14.6224583 L14.4825493,14.6224583 C15.5402124,14.6224583 16.223824,14.37739 16.7655539,13.7969651 C17.3846737,13.1391502 17.707132,12.1459788 17.707132,10.9335357 C17.707132,9.70819423 17.4104704,8.79241275 16.8171472,8.17329287 C16.2883156,7.61866464 15.6176024,7.39939302 14.4954476,7.39939302 L12.4317147,7.39939302 L12.4317147,14.6224583 Z" id="1D" stroke="#000000" stroke-width="0.4" fill="#000000" fill-rule="nonzero"></path>
    </g>
</svg>