<?xml version="1.0" encoding="UTF-8"?>
<svg width="22px" height="22px" viewBox="0 0 22 22" version="1.1" xmlns="http://www.w3.org/2000/svg" xmlns:xlink="http://www.w3.org/1999/xlink">
    <!-- Generator: Sketch 57.1 (83088) - https://sketch.com -->
    <title>1d</title>
    <desc>Created with Sketch.</desc>
    <g id="1d" stroke="none" stroke-width="1" fill="none" fill-rule="evenodd">
        <polygon id="Path" points="0 0 22 0 22 22 0 22"></polygon>
        <path d="M16.9583333,3.20833333 L16.9583333,4.58333333 L15.8116667,4.58333333 L15.8125,7.5068777 L11.9296667,10.9793333 L15.8125,14.455831 L15.8116667,17.4163333 L16.9583333,17.4166667 L16.9583333,18.7916667 L5.04166667,18.7916667 L5.04166667,17.4166667 L6.18666667,17.4163333 L6.1875,14.455831 L10.0686667,10.9793333 L6.1875,7.5068777 L6.18666667,4.58333333 L5.04166667,4.58333333 L5.04166667,3.20833333 L16.9583333,3.20833333 Z M10.9996667,11.8113333 L7.390625,15.041006 L7.38966667,16.2703333 L14.6086667,16.2703333 L14.609375,15.041006 L10.9996667,11.8113333 Z M14.6066667,4.58333333 L7.39166667,4.58333333 L7.39366667,5.72833333 L14.6046667,5.72833333 L14.6066667,4.58333333 Z" id="Combined-Shape" fill="#EFEFEF" opacity="0.75"></path>
        <path d="M3.94764795,8.06069803 L3.82852807,8.06069803 C3.39627849,8.06069803 3.04699599,8.08186666 2.55374092,8.13519154 L2,8.19505542 L2,5.41289295 L2.57961622,5.50637944 C2.93229787,5.56326358 3.17850098,5.57738998 3.78983308,5.57738998 L4.97647951,5.57738998 C5.58745404,5.57738998 5.76673845,5.56819591 6.23689349,5.51595646 L6.85217689,5.44759164 L6.78954368,6.06348488 C6.71609755,6.78570509 6.68892261,7.35909637 6.68892261,8.14112291 L6.68892261,14.6676783 C6.68892261,15.3467731 6.71515345,15.7822051 6.78683979,16.2720617 L6.87060558,16.8444613 L3.76165567,16.8444613 L3.85027546,16.2684327 C3.92005218,15.814884 3.94764795,15.3485154 3.94764795,14.6676783 L3.94764795,8.06069803 Z M10.2162367,14.6805766 L10.2162367,7.715478 C10.2162367,7.02784984 10.1933307,6.66135343 10.117635,6.10625159 L10.0362228,5.50922902 L10.6380189,5.53931882 C11.2457868,5.56970722 11.5358112,5.57738998 12.2511381,5.57738998 L14.585736,5.57738998 C16.3239961,5.57738998 17.4900136,5.95609652 18.4117432,6.84907459 C19.4607117,7.84056534 20,9.31365498 20,11.1206373 C20,13.0050259 19.4345103,14.5297005 18.3199675,15.5870751 C17.3902104,16.4587225 16.2329939,16.8444613 14.5986343,16.8444613 L12.2511381,16.8444613 C11.5566501,16.8444613 11.256635,16.8523564 10.6374114,16.8825625 L10.0303068,16.9121773 L10.1183195,16.3107567 C10.1929785,15.800587 10.2162367,15.4214783 10.2162367,14.6805766 Z M12.9317147,14.3224583 L14.4825493,14.3224583 C15.4134172,14.3224583 15.9628843,14.1241723 16.4014539,13.6542827 C16.9224695,13.1007036 17.207132,12.2321926 17.207132,11.1335357 C17.207132,10.0288535 16.9511005,9.23571245 16.4552784,8.71833053 C16.0353857,8.27795524 15.4973801,8.09939302 14.4954476,8.09939302 L12.9317147,8.09939302 L12.9317147,14.3224583 Z" id="1D" stroke="#000000" fill="#000000" fill-rule="nonzero"></path>
        <path d="M6.29210926,16.3444613 L4.34446131,16.3444613 C4.42185129,15.8414264 4.44764795,15.3383915 4.44764795,14.6676783 L4.44764795,7.56069803 L3.82852807,7.56069803 C3.35128983,7.56069803 2.97723824,7.58649469 2.5,7.63808801 L2.5,6 C2.89984825,6.06449165 3.18361153,6.07738998 3.78983308,6.07738998 L4.97647951,6.07738998 C5.63429439,6.07738998 5.82776935,6.06449165 6.29210926,6.01289833 C6.21471927,6.77389985 6.18892261,7.36722307 6.18892261,8.14112291 L6.18892261,14.6676783 C6.18892261,15.3512898 6.21471927,15.8156297 6.29210926,16.3444613 Z M10.7162367,14.6805766 L10.7162367,7.715478 C10.7162367,6.99317147 10.6904401,6.60622155 10.6130501,6.03869499 C11.1289833,6.06449165 11.4385432,6.07738998 12.2511381,6.07738998 L14.585736,6.07738998 C16.1980273,6.07738998 17.2427921,6.41274659 18.0682853,7.2124431 C19.0098634,8.10242792 19.5,9.44385432 19.5,11.1206373 C19.5,12.8748103 18.9840668,14.26783 17.977997,15.2223065 C17.1525038,15.9962064 16.1206373,16.3444613 14.5986343,16.3444613 L12.2511381,16.3444613 C11.4643399,16.3444613 11.1418816,16.3573596 10.6130501,16.3831563 C10.6904401,15.8543247 10.7162367,15.4544765 10.7162367,14.6805766 Z M12.4317147,14.8224583 L14.4825493,14.8224583 C15.5402124,14.8224583 16.223824,14.57739 16.7655539,13.9969651 C17.3846737,13.3391502 17.707132,12.3459788 17.707132,11.1335357 C17.707132,9.90819423 17.4104704,8.99241275 16.8171472,8.37329287 C16.2883156,7.81866464 15.6176024,7.59939302 14.4954476,7.59939302 L12.4317147,7.59939302 L12.4317147,14.8224583 Z" id="1D" stroke="#FFFFFF" stroke-width="0.4" fill="#FFFFFF" fill-rule="nonzero"></path>
    </g>
</svg>