<?xml version="1.0" encoding="UTF-8"?>
<svg width="22px" height="22px" viewBox="0 0 22 22" version="1.1" xmlns="http://www.w3.org/2000/svg" xmlns:xlink="http://www.w3.org/1999/xlink">
    <!-- Generator: Sketch 57.1 (83088) - https://sketch.com -->
    <title>1h-dark</title>
    <desc>Created with Sketch.</desc>
    <g id="1h-dark" stroke="none" stroke-width="1" fill="none" fill-rule="evenodd">
        <polygon id="Path" points="0 0 22 0 22 22 0 22"></polygon>
        <path d="M16.9583333,3.20833333 L16.9583333,4.58333333 L15.8116667,4.58333333 L15.8125,7.5068777 L11.9296667,10.9793333 L15.8125,14.455831 L15.8116667,17.4163333 L16.9583333,17.4166667 L16.9583333,18.7916667 L5.04166667,18.7916667 L5.04166667,17.4166667 L6.18666667,17.4163333 L6.1875,14.455831 L10.0686667,10.9793333 L6.1875,7.5068777 L6.18666667,4.58333333 L5.04166667,4.58333333 L5.04166667,3.20833333 L16.9583333,3.20833333 Z M10.9996667,11.8113333 L7.390625,15.041006 L7.38966667,16.2703333 L14.6086667,16.2703333 L14.609375,15.041006 L10.9996667,11.8113333 Z M14.6066667,4.58333333 L7.39166667,4.58333333 L7.39366667,5.72833333 L14.6046667,5.72833333 L14.6066667,4.58333333 Z" id="Combined-Shape" fill="#B3B3B3"></path>
        <path d="M3.7743759,7.60231446 L3.5990776,7.60231446 C3.12586458,7.60231446 2.74328669,7.625501 2.20374092,7.68383027 L1.65,7.74369416 L1.65,4.81289295 L2.22961622,4.90637944 C2.61710264,4.96887725 2.88785616,4.98441229 3.55687146,4.98441229 L4.8511932,4.98441229 C5.51922393,4.98441229 5.71644029,4.97429863 6.23098632,4.91712685 L6.84626971,4.84876203 L6.7836365,5.46465527 C6.70336545,6.25398729 6.67365237,6.88093332 6.67365237,7.73540662 L6.67365237,14.8541762 C6.67365237,15.5969399 6.70239174,16.0740135 6.78093261,16.6107095 L6.86469841,17.1831091 L3.57902055,17.1831091 L3.66764033,16.6070805 C3.74414676,16.1097887 3.7743759,15.5989163 3.7743759,14.8541762 L3.7743759,7.60231446 Z M17.1663112,12.1887154 L12.510688,12.1887154 L12.510688,14.8682449 C12.510688,15.6487273 12.5359344,16.0501447 12.6179682,16.6107095 L12.701734,17.1831091 L9.44185755,17.1831091 L9.53311776,16.6051278 C9.61310426,16.0985466 9.63954895,15.672787 9.63954895,14.8682449 L9.63954895,7.29927647 C9.63954895,6.49990266 9.61368784,6.0861248 9.53281339,5.56044088 L9.44419361,4.98441229 L12.6997426,4.98441229 L12.6182125,5.55512297 C12.5379987,6.1166192 12.510688,6.55632171 12.510688,7.28520775 L12.510688,9.50046966 L17.1663112,9.50046966 L17.1663112,7.29927647 C17.1663112,6.50144861 17.1377058,6.02945942 17.0605646,5.56661178 L16.9635313,4.98441229 L20.2284963,4.98441229 L20.1447305,5.55681188 C20.0628263,6.11649098 20.0374503,6.51743162 20.0374503,7.28520775 L20.0374503,14.8682449 C20.0374503,15.643417 20.062031,16.0317921 20.1449747,16.6123984 L20.2265048,17.1831091 L16.9709559,17.1831091 L17.0595757,16.6070805 C17.1404501,16.0813966 17.1663112,15.6676187 17.1663112,14.8682449 L17.1663112,12.1887154 Z" id="1H" stroke="#FFFFFF" fill="#FFFFFF" fill-rule="nonzero"></path>
        <path d="M6.28620208,16.6831091 L4.16182618,16.6831091 C4.24623847,16.1344292 4.2743759,15.5857493 4.2743759,14.8541762 L4.2743759,7.10231446 L3.5990776,7.10231446 C3.07853516,7.10231446 2.67054244,7.13045189 2.15,7.18672675 L2.15,5.4 C2.58613015,5.47034357 2.89564187,5.48441229 3.55687146,5.48441229 L4.8511932,5.48441229 C5.56869764,5.48441229 5.77972836,5.47034357 6.28620208,5.41406871 C6.20178979,6.24412287 6.17365237,6.89128374 6.17365237,7.73540662 L6.17365237,14.8541762 C6.17365237,15.5998181 6.20178979,16.1062918 6.28620208,16.6831091 Z M17.5537615,5.48441229 L19.65,5.48441229 C19.5655877,6.06122958 19.5374503,6.48329102 19.5374503,7.28520775 L19.5374503,14.8682449 C19.5374503,15.6842303 19.5655877,16.0922231 19.65,16.6831091 L17.5537615,16.6831091 C17.6381738,16.1344292 17.6663112,15.6982991 17.6663112,14.8682449 L17.6663112,11.6887154 L12.010688,11.6887154 L12.010688,14.8682449 C12.010688,15.6842303 12.0388254,16.1062918 12.1232377,16.6831091 L10.0269992,16.6831091 C10.1114115,16.1484979 10.139549,15.6982991 10.139549,14.8682449 L10.139549,7.29927647 C10.139549,6.46922231 10.1114115,6.03309216 10.0269992,5.48441229 L12.1232377,5.48441229 C12.0388254,6.0752983 12.010688,6.53956588 12.010688,7.28520775 L12.010688,10.0004697 L17.6663112,10.0004697 L17.6663112,7.29927647 C17.6663112,6.49735974 17.6381738,5.99088601 17.5537615,5.48441229 Z" id="1H" stroke="#000000" stroke-width="0.4" fill="#000000" fill-rule="nonzero"></path>
    </g>
</svg>