<?xml version="1.0" encoding="UTF-8"?>
<svg width="22px" height="22px" viewBox="0 0 22 22" version="1.1" xmlns="http://www.w3.org/2000/svg" xmlns:xlink="http://www.w3.org/1999/xlink">
    <!-- Generator: Sketch 57.1 (83088) - https://sketch.com -->
    <title>1h</title>
    <desc>Created with Sketch.</desc>
    <g id="1h" stroke="none" stroke-width="1" fill="none" fill-rule="evenodd">
        <polygon id="Path" points="0 0 22 0 22 22 0 22"></polygon>
        <path d="M16.9583333,3.20833333 L16.9583333,4.58333333 L15.8116667,4.58333333 L15.8125,7.5068777 L11.9296667,10.9793333 L15.8125,14.455831 L15.8116667,17.4163333 L16.9583333,17.4166667 L16.9583333,18.7916667 L5.04166667,18.7916667 L5.04166667,17.4166667 L6.18666667,17.4163333 L6.1875,14.455831 L10.0686667,10.9793333 L6.1875,7.5068777 L6.18666667,4.58333333 L5.04166667,4.58333333 L5.04166667,3.20833333 L16.9583333,3.20833333 Z M10.9996667,11.8113333 L7.390625,15.041006 L7.38966667,16.2703333 L14.6086667,16.2703333 L14.609375,15.041006 L10.9996667,11.8113333 Z M14.6066667,4.58333333 L7.39166667,4.58333333 L7.39366667,5.72833333 L14.6046667,5.72833333 L14.6066667,4.58333333 Z" id="Combined-Shape" fill="#EFEFEF" opacity="0.75"></path>
        <path d="M3.7743759,8.20231446 L3.5990776,8.20231446 C3.12586458,8.20231446 2.74328669,8.225501 2.20374092,8.28383027 L1.65,8.34369416 L1.65,5.41289295 L2.22961622,5.50637944 C2.61710264,5.56887725 2.88785616,5.58441229 3.55687146,5.58441229 L4.8511932,5.58441229 C5.51922393,5.58441229 5.71644029,5.57429863 6.23098632,5.51712685 L6.84626971,5.44876203 L6.7836365,6.06465527 C6.70336545,6.85398729 6.67365237,7.48093332 6.67365237,8.33540662 L6.67365237,15.4541762 C6.67365237,16.1969399 6.70239174,16.6740135 6.78093261,17.2107095 L6.86469841,17.7831091 L3.57902055,17.7831091 L3.66764033,17.2070805 C3.74414676,16.7097887 3.7743759,16.1989163 3.7743759,15.4541762 L3.7743759,8.20231446 Z M17.1663112,12.7887154 L12.510688,12.7887154 L12.510688,15.4682449 C12.510688,16.2487273 12.5359344,16.6501447 12.6179682,17.2107095 L12.701734,17.7831091 L9.44185755,17.7831091 L9.53311776,17.2051278 C9.61310426,16.6985466 9.63954895,16.272787 9.63954895,15.4682449 L9.63954895,7.89927647 C9.63954895,7.09990266 9.61368784,6.6861248 9.53281339,6.16044088 L9.44419361,5.58441229 L12.6997426,5.58441229 L12.6182125,6.15512297 C12.5379987,6.7166192 12.510688,7.15632171 12.510688,7.88520775 L12.510688,10.1004697 L17.1663112,10.1004697 L17.1663112,7.89927647 C17.1663112,7.10144861 17.1377058,6.62945942 17.0605646,6.16661178 L16.9635313,5.58441229 L20.2284963,5.58441229 L20.1447305,6.15681188 C20.0628263,6.71649098 20.0374503,7.11743162 20.0374503,7.88520775 L20.0374503,15.4682449 C20.0374503,16.243417 20.062031,16.6317921 20.1449747,17.2123984 L20.2265048,17.7831091 L16.9709559,17.7831091 L17.0595757,17.2070805 C17.1404501,16.6813966 17.1663112,16.2676187 17.1663112,15.4682449 L17.1663112,12.7887154 Z" id="1H" stroke="#000000" fill="#000000" fill-rule="nonzero"></path>
        <path d="M6.28620208,17.2831091 L4.16182618,17.2831091 C4.24623847,16.7344292 4.2743759,16.1857493 4.2743759,15.4541762 L4.2743759,7.70231446 L3.5990776,7.70231446 C3.07853516,7.70231446 2.67054244,7.73045189 2.15,7.78672675 L2.15,6 C2.58613015,6.07034357 2.89564187,6.08441229 3.55687146,6.08441229 L4.8511932,6.08441229 C5.56869764,6.08441229 5.77972836,6.07034357 6.28620208,6.01406871 C6.20178979,6.84412287 6.17365237,7.49128374 6.17365237,8.33540662 L6.17365237,15.4541762 C6.17365237,16.1998181 6.20178979,16.7062918 6.28620208,17.2831091 Z M17.5537615,6.08441229 L19.65,6.08441229 C19.5655877,6.66122958 19.5374503,7.08329102 19.5374503,7.88520775 L19.5374503,15.4682449 C19.5374503,16.2842303 19.5655877,16.6922231 19.65,17.2831091 L17.5537615,17.2831091 C17.6381738,16.7344292 17.6663112,16.2982991 17.6663112,15.4682449 L17.6663112,12.2887154 L12.010688,12.2887154 L12.010688,15.4682449 C12.010688,16.2842303 12.0388254,16.7062918 12.1232377,17.2831091 L10.0269992,17.2831091 C10.1114115,16.7484979 10.139549,16.2982991 10.139549,15.4682449 L10.139549,7.89927647 C10.139549,7.06922231 10.1114115,6.63309216 10.0269992,6.08441229 L12.1232377,6.08441229 C12.0388254,6.6752983 12.010688,7.13956588 12.010688,7.88520775 L12.010688,10.6004697 L17.6663112,10.6004697 L17.6663112,7.89927647 C17.6663112,7.09735974 17.6381738,6.59088601 17.5537615,6.08441229 Z" id="1H" stroke="#FFFFFF" stroke-width="0.4" fill="#FFFFFF" fill-rule="nonzero"></path>
    </g>
</svg>