<?xml version="1.0" encoding="UTF-8"?>
<svg width="22px" height="22px" viewBox="0 0 22 22" version="1.1" xmlns="http://www.w3.org/2000/svg" xmlns:xlink="http://www.w3.org/1999/xlink">
    <!-- Generator: Sketch 57.1 (83088) - https://sketch.com -->
    <title>1h</title>
    <desc>Created with Sketch.</desc>
    <g id="1h" stroke="none" stroke-width="1" fill="none" fill-rule="evenodd">
        <polygon id="Path" points="0 0 22 0 22 22 0 22"></polygon>
        <path d="M16.9583333,3.20833333 L16.9583333,4.58333333 L15.8116667,4.58333333 L15.8125,7.5068777 L11.9296667,10.9793333 L15.8125,14.455831 L15.8116667,17.4163333 L16.9583333,17.4166667 L16.9583333,18.7916667 L5.04166667,18.7916667 L5.04166667,17.4166667 L6.18666667,17.4163333 L6.1875,14.455831 L10.0686667,10.9793333 L6.1875,7.5068777 L6.18666667,4.58333333 L5.04166667,4.58333333 L5.04166667,3.20833333 L16.9583333,3.20833333 Z M10.9996667,11.8113333 L7.390625,15.041006 L7.38966667,16.2703333 L14.6086667,16.2703333 L14.609375,15.041006 L10.9996667,11.8113333 Z M14.6066667,4.58333333 L7.39166667,4.58333333 L7.39366667,5.72833333 L14.6046667,5.72833333 L14.6066667,4.58333333 Z" id="Combined-Shape" fill="#EFEFEF" opacity="0.75"></path>
        <path d="M4.456,9.996 L2.944,9.996 L2.944,14.5 L1.728,14.5 L1.728,9.996 L0.216,9.996 L0.216,8.916 L4.456,8.916 L4.456,9.996 Z M7.328,14.596 C5.848,14.596 4.872,13.604 4.872,11.708 C4.872,9.812 5.848,8.82 7.328,8.82 C8.808,8.82 9.784,9.812 9.784,11.708 C9.784,13.604 8.808,14.596 7.328,14.596 Z M7.328,13.516 C8.056,13.516 8.496,13.012 8.496,12.124 L8.496,11.292 C8.496,10.404 8.056,9.9 7.328,9.9 C6.6,9.9 6.16,10.404 6.16,11.292 L6.16,12.124 C6.16,13.012 6.6,13.516 7.328,13.516 Z M10.8,14.5 L10.8,8.916 L12.904,8.916 C14.384,8.916 15.36,9.852 15.36,11.708 C15.36,13.564 14.384,14.5 12.904,14.5 L10.8,14.5 Z M12.016,13.42 L12.904,13.42 C13.624,13.42 14.072,13.028 14.072,12.14 L14.072,11.276 C14.072,10.388 13.624,9.996 12.904,9.996 L12.016,9.996 L12.016,13.42 Z M18.616,14.596 C17.136,14.596 16.16,13.604 16.16,11.708 C16.16,9.812 17.136,8.82 18.616,8.82 C20.096,8.82 21.072,9.812 21.072,11.708 C21.072,13.604 20.096,14.596 18.616,14.596 Z M18.616,13.516 C19.344,13.516 19.784,13.012 19.784,12.124 L19.784,11.292 C19.784,10.404 19.344,9.9 18.616,9.9 C17.888,9.9 17.448,10.404 17.448,11.292 L17.448,12.124 C17.448,13.012 17.888,13.516 18.616,13.516 Z" id="TODO" fill="#FF0014" fill-rule="nonzero"></path>
    </g>
</svg>