<?xml version="1.0" encoding="UTF-8"?>
<svg width="22px" height="22px" viewBox="0 0 22 22" version="1.1" xmlns="http://www.w3.org/2000/svg" xmlns:xlink="http://www.w3.org/1999/xlink">
    <!-- Generator: Sketch 57.1 (83088) - https://sketch.com -->
    <title>1min-dark</title>
    <desc>Created with Sketch.</desc>
    <g id="1min-dark" stroke="none" stroke-width="1" fill="none" fill-rule="evenodd">
        <polygon id="Path" points="0 0 22 0 22 22 0 22"></polygon>
        <path d="M16.9583333,3.20833333 L16.9583333,4.58333333 L15.8116667,4.58333333 L15.8125,7.5068777 L11.9296667,10.9793333 L15.8125,14.455831 L15.8116667,17.4163333 L16.9583333,17.4166667 L16.9583333,18.7916667 L5.04166667,18.7916667 L5.04166667,17.4166667 L6.18666667,17.4163333 L6.1875,14.455831 L10.0686667,10.9793333 L6.1875,7.5068777 L6.18666667,4.58333333 L5.04166667,4.58333333 L5.04166667,3.20833333 L16.9583333,3.20833333 Z M10.9996667,11.8113333 L7.390625,15.041006 L7.38966667,16.2703333 L14.6086667,16.2703333 L14.609375,15.041006 L10.9996667,11.8113333 Z M14.6066667,4.58333333 L7.39166667,4.58333333 L7.39366667,5.72833333 L14.6046667,5.72833333 L14.6066667,4.58333333 Z" id="Combined-Shape" fill="#B3B3B3"></path>
        <g id="text" transform="translate(2.566667, 1.500000)" fill-rule="nonzero">
            <path d="M1.63309042,16.9146526 L1.63309042,18.0730737 C1.63309042,18.6093841 1.64926487,18.8888655 1.695185,19.1691649 L1.79034045,19.75 L-0.586203031,19.75 L-0.493741125,19.1711349 C-0.447823641,18.8836649 -0.431327853,18.5970818 -0.431327853,18.0730737 L-0.431327853,14.0263819 C-0.431327853,13.5098531 -0.448580352,13.2020228 -0.494037339,12.910321 L-0.583951518,12.3333333 L1.97560255,12.3333333 L2.05990772,12.7291827 C2.11306301,12.9787699 2.21489962,13.2867095 2.34684478,13.5928454 L3.62990759,16.5368558 L4.90645227,13.5933014 C5.05556104,13.2502375 5.126702,13.0260611 5.18338674,12.7370879 L5.26258692,12.3333333 L7.82445951,12.3333333 L7.74912408,12.8993055 C7.69935071,13.2732376 7.68482336,13.5201658 7.68482336,14.0263819 L7.68482336,18.0730737 C7.68482336,18.6338468 7.70036424,18.8994618 7.74620353,19.1649188 L7.84723574,19.75 L5.46778142,19.75 L5.5576956,19.1730123 C5.60480127,18.8707308 5.62040509,18.60404 5.62040509,18.0730737 L5.62065764,16.9328141 L4.96203477,18.384237 C4.81112642,18.7172697 4.66370247,19.1393003 4.61794519,19.3541506 L4.53364002,19.75 L2.69231743,19.75 L2.62277919,19.3320643 C2.59032543,19.1370122 2.4732336,18.8034687 2.2818397,18.3658107 L1.63309042,16.9146526 Z M7.88622308,12.3333333 L10.3682833,12.3333333 L10.2702758,12.9162379 C10.2234789,13.1945648 10.2085248,13.4192572 10.2085248,13.8732203 L10.2085248,18.2101131 C10.2085248,18.6592685 10.22385,18.8909755 10.2702758,19.1670955 L10.3682833,19.75 L7.88133968,19.75 L7.97934718,19.1670955 C8.02577302,18.8909755 8.04109826,18.6592685 8.04109826,18.2101131 L8.04109826,13.8732203 C8.04109826,13.4152228 8.02771422,13.2191498 7.97868499,12.9121984 L7.88622308,12.3333333 Z M12.672138,16.084776 L12.672138,18.0408291 C12.672138,18.5311193 12.6937936,18.8953262 12.7354298,19.1768468 L12.8201979,19.75 L10.4004059,19.75 L10.493927,19.1703584 C10.5336661,18.9240568 10.5562156,18.5371136 10.5562156,18.032768 L10.5562156,13.8732203 C10.5562156,13.4660066 10.5393313,13.2043856 10.4935062,12.910321 L10.403592,12.3333333 L12.6704554,12.3333333 L12.7935206,12.6543581 C12.8467707,12.7932649 12.971105,12.9942707 13.2585223,13.3991368 L15.1314974,16.0478959 L15.1314974,13.9457705 C15.1314974,13.4745894 15.1139056,13.1788775 15.0697463,12.9162379 L14.9717388,12.3333333 L17.402295,12.3333333 L17.3098331,12.9121984 C17.2638647,13.1999869 17.2474198,13.4702432 17.2474198,13.9457705 L17.2474198,18.2101131 C17.2474198,18.6525635 17.2646654,18.923022 17.3079636,19.1602097 L17.4156287,19.75 L15.1595784,19.75 L15.0184755,19.4849844 C14.8948646,19.2528215 14.765283,19.0509969 14.5020285,18.6759025 L12.672138,16.084776 Z" id="MIN" stroke="#FFFFFF" fill="#FFFFFF"></path>
            <path d="M4.12891283,19.25 L3.11599866,19.25 C3.07307857,18.9920436 2.93573428,18.61317 2.73830185,18.1617462 L1.50220321,15.3967755 C1.33910686,15.0340243 1.2618507,14.8163735 1.06441828,14.1634213 C1.09875435,14.5906616 1.13309042,15.251675 1.13309042,15.4290201 L1.13309042,18.0730737 C1.13309042,18.6292923 1.15025846,18.9356156 1.20176257,19.25 L-1.44773082e-13,19.25 C0.0515041101,18.9275544 0.0686721468,18.61317 0.0686721468,18.0730737 L0.0686721468,14.0263819 C0.0686721468,13.5024079 0.0515041101,13.16384 -1.44773082e-13,12.8333333 L1.57087536,12.8333333 C1.63096349,13.1154732 1.74255573,13.454041 1.88848404,13.7926089 L3.63103976,17.7909338 L5.36501147,13.7926089 C5.53669184,13.3976131 5.613948,13.1396566 5.67403613,12.8333333 L7.25349551,12.8333333 C7.2019914,13.220268 7.18482336,13.4862856 7.18482336,14.0263819 L7.18482336,18.0730737 C7.18482336,18.6615369 7.2019914,18.9517379 7.25349551,19.25 L6.05173294,19.25 C6.10323705,18.9194933 6.12040509,18.6292923 6.12040509,18.0730737 L6.12040509,15.3967755 C6.15474116,14.6954564 6.18049321,14.2843384 6.18907723,14.1634213 C6.07748499,14.5987228 5.91438865,15.0501466 5.79421239,15.3403476 L4.50660964,18.1778685 C4.33492927,18.556742 4.18041694,19.0081658 4.12891283,19.25 Z M8.47242611,12.8333333 L9.7771969,12.8333333 C9.72569279,13.1396566 9.70852476,13.3895519 9.70852476,13.8732203 L9.70852476,18.2101131 C9.70852476,18.6857203 9.72569279,18.9436767 9.7771969,19.25 L8.47242611,19.25 C8.52393022,18.9436767 8.54109826,18.6857203 8.54109826,18.2101131 L8.54109826,13.8732203 C8.54109826,13.3734296 8.52393022,13.1557789 8.47242611,12.8333333 Z M16.816092,19.25 L15.4598171,19.25 C15.3138887,18.9759213 15.1593764,18.7421482 14.9104399,18.3874581 L12.6957631,15.251675 C12.5326668,15.0098409 12.3180663,14.6632119 12.1120499,14.2843384 C12.1206339,14.3971943 12.1206339,14.3971943 12.146386,14.6954564 C12.15497,14.8486181 12.172138,15.2113693 12.172138,15.3967755 L12.172138,18.0408291 C12.172138,18.5809255 12.1978901,18.959799 12.2408102,19.25 L10.9875435,19.25 C11.0304636,18.9839824 11.0562156,18.5809255 11.0562156,18.032768 L11.0562156,13.8732203 C11.0562156,13.454041 11.0390476,13.16384 10.9875435,12.8333333 L12.3266504,12.8333333 C12.4039065,13.0348618 12.5584189,13.276696 12.8502755,13.6878141 L15.0220321,16.759108 C15.2280486,17.049309 15.5027371,17.4684883 15.6915855,17.7909338 C15.6572495,17.4765494 15.6314974,16.9928811 15.6314974,16.6543132 L15.6314974,13.9457705 C15.6314974,13.4701633 15.6143294,13.1396566 15.5628253,12.8333333 L16.816092,12.8333333 C16.7645878,13.1557789 16.7474198,13.454041 16.7474198,13.9457705 L16.7474198,18.2101131 C16.7474198,18.6615369 16.7645878,18.9678601 16.816092,19.25 Z" id="MIN" stroke="#000000" stroke-width="0.4" fill="#000000"></path>
            <path d="M7.47032313,2.02130314 C7.13646082,2.02154582 6.86621696,2.04169463 6.48214886,2.09243086 L5.91666667,2.16713229 L5.91666667,-0.608162362 L6.51335074,-0.490563136 C6.78201544,-0.437612568 6.96813265,-0.424563591 7.44557823,-0.424563591 L8.39217687,-0.424563591 C8.87202495,-0.424563591 9.00730591,-0.433040817 9.37439801,-0.482881529 L9.99160288,-0.566680473 L9.93994406,0.0540412719 C9.88113284,0.760704794 9.85935374,1.32223615 9.85935374,2.08707398 L9.85935374,8.44887781 C9.85935374,9.11432745 9.88045779,9.54240808 9.9381191,10.0238777 L10.0051201,10.5833333 L7.32111158,10.5833333 L7.39192658,10.0208751 C7.44812872,9.57448153 7.47032313,9.11614751 7.47032313,8.44887781 L7.47032313,2.02130313 Z" id="1" stroke="#FFFFFF" fill="#FFFFFF"></path>
            <path d="M9.44166667,10.0833333 L7.8880102,10.0833333 C7.9497449,9.59299667 7.97032313,9.10266002 7.97032313,8.44887781 L7.97032313,1.52130091 L7.47644558,1.52130091 C7.0957483,1.52130091 6.79736395,1.54644638 6.41666667,1.59673732 L6.41666667,-3.64153152e-14 C6.73562925,0.0628636741 6.9619898,0.075436409 7.44557823,0.075436409 L8.39217687,0.075436409 C8.91692177,0.075436409 9.0712585,0.0628636741 9.44166667,0.0125727348 C9.37993197,0.75436409 9.35935374,1.33270989 9.35935374,2.08707398 L9.35935374,8.44887781 C9.35935374,9.11523275 9.37993197,9.56785121 9.44166667,10.0833333 Z" id="1" stroke="#000000" stroke-width="0.4" fill="#000000"></path>
        </g>
    </g>
</svg>