<?xml version="1.0" encoding="UTF-8"?>
<svg width="22px" height="22px" viewBox="0 0 22 22" version="1.1" xmlns="http://www.w3.org/2000/svg" xmlns:xlink="http://www.w3.org/1999/xlink">
    <!-- Generator: Sketch 57.1 (83088) - https://sketch.com -->
    <title>1mo</title>
    <desc>Created with Sketch.</desc>
    <g id="1mo" stroke="none" stroke-width="1" fill="none" fill-rule="evenodd">
        <polygon id="Path" points="0 0 22 0 22 22 0 22"></polygon>
        <path d="M16.9583333,3.20833333 L16.9583333,4.58333333 L15.8116667,4.58333333 L15.8125,7.5068777 L11.9296667,10.9793333 L15.8125,14.455831 L15.8116667,17.4163333 L16.9583333,17.4166667 L16.9583333,18.7916667 L5.04166667,18.7916667 L5.04166667,17.4166667 L6.18666667,17.4163333 L6.1875,14.455831 L10.0686667,10.9793333 L6.1875,7.5068777 L6.18666667,4.58333333 L5.04166667,4.58333333 L5.04166667,3.20833333 L16.9583333,3.20833333 Z M10.9996667,11.8113333 L7.390625,15.041006 L7.38966667,16.2703333 L14.6086667,16.2703333 L14.609375,15.041006 L10.9996667,11.8113333 Z M14.6066667,4.58333333 L7.39166667,4.58333333 L7.39366667,5.72833333 L14.6046667,5.72833333 L14.6066667,4.58333333 Z" id="Combined-Shape" fill="#EFEFEF" opacity="0.75"></path>
        <path d="M1.83265306,9.63243481 C1.61588598,9.63611844 1.42251584,9.65153348 1.16145341,9.68386497 L0.6,9.75339861 L0.6,7.39915168 L1.19084722,7.50832248 C1.39847846,7.54668649 1.54184204,7.55610973 1.91632653,7.55610973 L2.66734694,7.55610973 C3.04490948,7.55610973 3.14900224,7.54999455 3.43686641,7.51335349 L4.05295852,7.43493362 L3.99804145,8.05356378 C3.95178935,8.57458477 3.93469388,8.98780966 3.93469388,9.55236908 L3.93469388,14.2842893 C3.93469388,14.7732864 3.95111124,15.0854875 3.99596956,15.4366423 L4.06793577,16 L1.69571013,16 L1.77179572,15.4334494 C1.81537309,15.1089623 1.83265306,14.7744187 1.83265306,14.2842893 L1.83265306,9.63243343 Z" id="1" stroke="#000000" fill="#000000" fill-rule="nonzero"></path>
        <path d="M3.5,15.5 L2.26734694,15.5 C2.31632653,15.1352868 2.33265306,14.7705736 2.33265306,14.2842893 L2.33265306,9.13154613 L1.94081633,9.13154613 C1.63877551,9.13154613 1.40204082,9.15024938 1.1,9.18765586 L1.1,8 C1.35306122,8.0467581 1.53265306,8.05610973 1.91632653,8.05610973 L2.66734694,8.05610973 C3.08367347,8.05610973 3.20612245,8.0467581 3.5,8.00935162 C3.45102041,8.56109726 3.43469388,8.99127182 3.43469388,9.55236908 L3.43469388,14.2842893 C3.43469388,14.7799252 3.45102041,15.1165835 3.5,15.5 Z" id="1" stroke="#FFFFFF" stroke-width="0.4" fill="#FFFFFF" fill-rule="nonzero"></path>
        <path d="M7.29420989,12.6361942 L7.29420989,14.1056695 C7.29420989,14.7207797 7.3115345,15.0438028 7.36092152,15.3690987 L7.44822682,15.9441496 L5.02053858,15.9441496 L5.10538954,15.3709342 C5.1547187,15.0376883 5.17237636,14.7066661 5.17237636,14.1056695 L5.17237636,9.50349819 C5.17237636,8.91112831 5.15393497,8.55607012 5.10513382,8.2181493 L5.02260496,7.64668275 L7.66657049,7.64668275 L7.74614618,8.04986623 C7.80349819,8.34044975 7.91263554,8.69655763 8.05396384,9.0503871 L9.42575478,12.4468424 L10.7906125,9.05082433 C10.9501823,8.65466573 11.0271066,8.39310032 11.0881588,8.05725502 L11.1627954,7.64668275 L13.8102201,7.64668275 L13.7409915,8.20789641 C13.6879364,8.63799579 13.6723764,8.92338833 13.6723764,9.50349819 L13.6723764,14.1056695 C13.6723764,14.7488743 13.6890446,15.0562818 13.7384708,15.3651406 L13.8311287,15.9441496 L11.4007714,15.9441496 L11.4833003,15.372683 C11.5338223,15.022846 11.5505428,14.7144754 11.5505428,14.1056695 L11.5507853,12.6585505 L10.8107005,14.4184391 C10.649288,14.8028162 10.4918925,15.2890161 10.4421655,15.5409661 L10.3625898,15.9441496 L8.4552652,15.9441496 L8.38991722,15.5203461 C8.35413453,15.2882834 8.22877843,14.9029666 8.02408176,14.3978901 L7.29420989,12.6361942 Z M17.6597105,7.5 C18.7866799,7.5 19.6836628,7.84477133 20.3949702,8.56556291 C21.1323825,9.31280731 21.4748787,10.4042392 21.4748787,11.7770808 C21.4748787,14.3769161 20.0001939,16.1 17.6687575,16.1 C15.3234888,16.1 13.7942099,14.3681923 13.7942099,11.7770808 C13.7942099,10.4633873 14.2053158,9.31912468 14.9722589,8.5629746 C15.6917404,7.84446641 16.5699031,7.5 17.6597105,7.5 Z M17.6868516,14.009047 C18.6722916,14.009047 19.285766,13.2111608 19.285766,11.7770808 C19.285766,10.9784838 19.0776145,10.3595023 18.7195254,9.99658444 C18.4432136,9.72341758 18.0903828,9.58178528 17.6778046,9.58178528 C16.6804402,9.58178528 16.0517491,10.3810587 16.0517491,11.7862485 C16.0517491,12.5790809 16.2703983,13.2236324 16.6360837,13.5942479 C16.9129593,13.8679721 17.2660995,14.009047 17.6868516,14.009047 Z" id="1MO" stroke="#000000" fill="#000000" fill-rule="nonzero"></path>
        <path d="M9.95162847,15.4441496 L8.8840772,15.4441496 C8.83884198,15.1507841 8.69408926,14.7199035 8.48600724,14.2065139 L7.18323281,11.0620024 C7.01133896,10.6494572 6.79420989,10.8969843 6.79420989,11.0986731 L6.79420989,14.1056695 C6.79420989,14.7382388 6.81230398,15.0866104 6.86658625,15.4441496 L5.6,15.4441496 C5.65428227,15.0774427 5.67237636,14.7199035 5.67237636,14.1056695 L5.67237636,9.50349819 C5.67237636,8.90759952 5.65428227,8.5225573 5.6,8.14668275 L7.25560917,8.14668275 C7.31893848,8.46755127 7.43655006,8.85259349 7.59034982,9.23763571 L9.42689988,13.784801 L11.2544029,9.23763571 C11.4353438,8.78841978 11.5167672,8.49505428 11.5800965,8.14668275 L13.2447527,8.14668275 C13.1904704,8.586731 13.1723764,8.88926417 13.1723764,9.50349819 L13.1723764,14.1056695 C13.1723764,14.7749095 13.1904704,15.1049457 13.2447527,15.4441496 L11.9781665,15.4441496 C12.0324487,15.068275 12.0505428,14.7382388 12.0505428,14.1056695 L12.0505428,11.0620024 C12.086731,10.264415 11.8334138,10.6677925 11.7067551,10.9978287 L10.3496984,14.2248492 C10.1687575,14.6557298 10.0059107,15.1691194 9.95162847,15.4441496 Z M17.6597105,8 C18.6548854,8 19.4238842,8.2933655 20.0390832,8.91676719 C20.6995175,9.58600724 21.0523522,10.5852835 21.0523522,11.7770808 C21.0523522,14.0965018 19.7224367,15.6 17.6687575,15.6 C15.6150784,15.6 14.2942099,14.1056695 14.2942099,11.7770808 C14.2942099,10.5944511 14.6560917,9.57683957 15.325573,8.91676719 C15.9498191,8.2933655 16.7007238,8 17.6597105,8 Z M17.6868516,14.509047 C18.980579,14.509047 19.785766,13.4639324 19.785766,11.7770808 C19.785766,10.851146 19.5324487,10.1085645 19.0710495,9.64101327 C18.7001206,9.27430639 18.2206273,9.08178528 17.6778046,9.08178528 C16.3750302,9.08178528 15.5517491,10.1268999 15.5517491,11.7862485 C15.5517491,12.7030157 15.8141134,13.4731001 16.2845597,13.9498191 C16.6554885,14.3165259 17.1349819,14.509047 17.6868516,14.509047 Z" id="1MO" stroke="#FFFFFF" stroke-width="0.4" fill="#FFFFFF" fill-rule="nonzero"></path>
    </g>
</svg>