<?xml version="1.0" encoding="UTF-8"?>
<svg width="22px" height="22px" viewBox="0 0 22 22" version="1.1" xmlns="http://www.w3.org/2000/svg" xmlns:xlink="http://www.w3.org/1999/xlink">
    <!-- Generator: Sketch 57.1 (83088) - https://sketch.com -->
    <title>1mo</title>
    <desc>Created with Sketch.</desc>
    <g id="1mo" stroke="none" stroke-width="1" fill="none" fill-rule="evenodd">
        <polygon id="Path" points="0 0 22 0 22 22 0 22"></polygon>
        <path d="M16.9583333,3.20833333 L16.9583333,4.58333333 L15.8116667,4.58333333 L15.8125,7.5068777 L11.9296667,10.9793333 L15.8125,14.455831 L15.8116667,17.4163333 L16.9583333,17.4166667 L16.9583333,18.7916667 L5.04166667,18.7916667 L5.04166667,17.4166667 L6.18666667,17.4163333 L6.1875,14.455831 L10.0686667,10.9793333 L6.1875,7.5068777 L6.18666667,4.58333333 L5.04166667,4.58333333 L5.04166667,3.20833333 L16.9583333,3.20833333 Z M10.9996667,11.8113333 L7.390625,15.041006 L7.38966667,16.2703333 L14.6086667,16.2703333 L14.609375,15.041006 L10.9996667,11.8113333 Z M14.6066667,4.58333333 L7.39166667,4.58333333 L7.39366667,5.72833333 L14.6046667,5.72833333 L14.6066667,4.58333333 Z" id="Combined-Shape" fill="#EFEFEF" opacity="0.75"></path>
        <path d="M1.83265306,9.03243481 C1.61588598,9.03611844 1.42251584,9.05153348 1.16145341,9.08386497 L0.6,9.15339861 L0.6,6.79915168 L1.19084722,6.90832248 C1.39847846,6.94668649 1.54184204,6.95610973 1.91632653,6.95610973 L2.66734694,6.95610973 C3.04490948,6.95610973 3.14900224,6.94999455 3.43686641,6.91335349 L4.05295852,6.83493362 L3.99804145,7.45356378 C3.95178935,7.97458477 3.93469388,8.38780966 3.93469388,8.95236908 L3.93469388,13.6842893 C3.93469388,14.1732864 3.95111124,14.4854875 3.99596956,14.8366423 L4.06793577,15.4 L1.69571013,15.4 L1.77179572,14.8334494 C1.81537309,14.5089623 1.83265306,14.1744187 1.83265306,13.6842893 L1.83265306,9.03243343 Z" id="1" stroke="#000000" fill="#000000" fill-rule="nonzero"></path>
        <path d="M3.5,14.9 L2.26734694,14.9 C2.31632653,14.5352868 2.33265306,14.1705736 2.33265306,13.6842893 L2.33265306,8.53154613 L1.94081633,8.53154613 C1.63877551,8.53154613 1.40204082,8.55024938 1.1,8.58765586 L1.1,7.4 C1.35306122,7.4467581 1.53265306,7.45610973 1.91632653,7.45610973 L2.66734694,7.45610973 C3.08367347,7.45610973 3.20612245,7.4467581 3.5,7.40935162 C3.45102041,7.96109726 3.43469388,8.39127182 3.43469388,8.95236908 L3.43469388,13.6842893 C3.43469388,14.1799252 3.45102041,14.5165835 3.5,14.9 Z" id="1" stroke="#FFFFFF" stroke-width="0.4" fill="#FFFFFF" fill-rule="nonzero"></path>
        <path d="M7.29420989,12.0361942 L7.29420989,13.5056695 C7.29420989,14.1207797 7.3115345,14.4438028 7.36092152,14.7690987 L7.44822682,15.3441496 L5.02053858,15.3441496 L5.10538954,14.7709342 C5.1547187,14.4376883 5.17237636,14.1066661 5.17237636,13.5056695 L5.17237636,8.90349819 C5.17237636,8.31112831 5.15393497,7.95607012 5.10513382,7.6181493 L5.02260496,7.04668275 L7.66657049,7.04668275 L7.74614618,7.44986623 C7.80349819,7.74044975 7.91263554,8.09655763 8.05396384,8.4503871 L9.42575478,11.8468424 L10.7906125,8.45082433 C10.9501823,8.05466573 11.0271066,7.79310032 11.0881588,7.45725502 L11.1627954,7.04668275 L13.8102201,7.04668275 L13.7409915,7.60789641 C13.6879364,8.03799579 13.6723764,8.32338833 13.6723764,8.90349819 L13.6723764,13.5056695 C13.6723764,14.1488743 13.6890446,14.4562818 13.7384708,14.7651406 L13.8311287,15.3441496 L11.4007714,15.3441496 L11.4833003,14.772683 C11.5338223,14.422846 11.5505428,14.1144754 11.5505428,13.5056695 L11.5507853,12.0585505 L10.8107005,13.8184391 C10.649288,14.2028162 10.4918925,14.6890161 10.4421655,14.9409661 L10.3625898,15.3441496 L8.4552652,15.3441496 L8.38991722,14.9203461 C8.35413453,14.6882834 8.22877843,14.3029666 8.02408176,13.7978901 L7.29420989,12.0361942 Z M17.6597105,6.9 C18.7866799,6.9 19.6836628,7.24477133 20.3949702,7.96556291 C21.1323825,8.71280731 21.4748787,9.80423924 21.4748787,11.1770808 C21.4748787,13.7769161 20.0001939,15.5 17.6687575,15.5 C15.3234888,15.5 13.7942099,13.7681923 13.7942099,11.1770808 C13.7942099,9.86338734 14.2053158,8.71912468 14.9722589,7.9629746 C15.6917404,7.24446641 16.5699031,6.9 17.6597105,6.9 Z M17.6868516,13.409047 C18.6722916,13.409047 19.285766,12.6111608 19.285766,11.1770808 C19.285766,10.3784838 19.0776145,9.7595023 18.7195254,9.39658444 C18.4432136,9.12341758 18.0903828,8.98178528 17.6778046,8.98178528 C16.6804402,8.98178528 16.0517491,9.78105869 16.0517491,11.1862485 C16.0517491,11.9790809 16.2703983,12.6236324 16.6360837,12.9942479 C16.9129593,13.2679721 17.2660995,13.409047 17.6868516,13.409047 Z" id="1MO" stroke="#000000" fill="#000000" fill-rule="nonzero"></path>
        <path d="M9.95162847,14.8441496 L8.8840772,14.8441496 C8.83884198,14.5507841 8.69408926,14.1199035 8.48600724,13.6065139 L7.18323281,10.4620024 C7.01133896,10.0494572 6.79420989,10.2969843 6.79420989,10.4986731 L6.79420989,13.5056695 C6.79420989,14.1382388 6.81230398,14.4866104 6.86658625,14.8441496 L5.6,14.8441496 C5.65428227,14.4774427 5.67237636,14.1199035 5.67237636,13.5056695 L5.67237636,8.90349819 C5.67237636,8.30759952 5.65428227,7.9225573 5.6,7.54668275 L7.25560917,7.54668275 C7.31893848,7.86755127 7.43655006,8.25259349 7.59034982,8.63763571 L9.42689988,13.184801 L11.2544029,8.63763571 C11.4353438,8.18841978 11.5167672,7.89505428 11.5800965,7.54668275 L13.2447527,7.54668275 C13.1904704,7.986731 13.1723764,8.28926417 13.1723764,8.90349819 L13.1723764,13.5056695 C13.1723764,14.1749095 13.1904704,14.5049457 13.2447527,14.8441496 L11.9781665,14.8441496 C12.0324487,14.468275 12.0505428,14.1382388 12.0505428,13.5056695 L12.0505428,10.4620024 C12.086731,9.66441496 11.8334138,10.0677925 11.7067551,10.3978287 L10.3496984,13.6248492 C10.1687575,14.0557298 10.0059107,14.5691194 9.95162847,14.8441496 Z M17.6597105,7.4 C18.6548854,7.4 19.4238842,7.6933655 20.0390832,8.31676719 C20.6995175,8.98600724 21.0523522,9.98528347 21.0523522,11.1770808 C21.0523522,13.4965018 19.7224367,15 17.6687575,15 C15.6150784,15 14.2942099,13.5056695 14.2942099,11.1770808 C14.2942099,9.99445115 14.6560917,8.97683957 15.325573,8.31676719 C15.9498191,7.6933655 16.7007238,7.4 17.6597105,7.4 Z M17.6868516,13.909047 C18.980579,13.909047 19.785766,12.8639324 19.785766,11.1770808 C19.785766,10.251146 19.5324487,9.50856454 19.0710495,9.04101327 C18.7001206,8.67430639 18.2206273,8.48178528 17.6778046,8.48178528 C16.3750302,8.48178528 15.5517491,9.52689988 15.5517491,11.1862485 C15.5517491,12.1030157 15.8141134,12.8731001 16.2845597,13.3498191 C16.6554885,13.7165259 17.1349819,13.909047 17.6868516,13.909047 Z" id="1MO" stroke="#FFFFFF" stroke-width="0.4" fill="#FFFFFF" fill-rule="nonzero"></path>
    </g>
</svg>