<?xml version="1.0" encoding="UTF-8"?>
<svg width="22px" height="22px" viewBox="0 0 22 22" version="1.1" xmlns="http://www.w3.org/2000/svg" xmlns:xlink="http://www.w3.org/1999/xlink">
    <!-- Generator: Sketch 57.1 (83088) - https://sketch.com -->
    <title>1w-dark</title>
    <desc>Created with Sketch.</desc>
    <g id="1w-dark" stroke="none" stroke-width="1" fill="none" fill-rule="evenodd">
        <rect id="Rectangle" x="0" y="0" width="22" height="22"></rect>
        <path d="M16.9583333,3.20833333 L16.9583333,4.58333333 L15.8116667,4.58333333 L15.8125,7.5068777 L11.9296667,10.9793333 L15.8125,14.455831 L15.8116667,17.4163333 L16.9583333,17.4166667 L16.9583333,18.7916667 L5.04166667,18.7916667 L5.04166667,17.4166667 L6.18666667,17.4163333 L6.1875,14.455831 L10.0686667,10.9793333 L6.1875,7.5068777 L6.18666667,4.58333333 L5.04166667,4.58333333 L5.04166667,3.20833333 L16.9583333,3.20833333 Z M10.9996667,11.8113333 L7.390625,15.041006 L7.38966667,16.2703333 L14.6086667,16.2703333 L14.609375,15.041006 L10.9996667,11.8113333 Z M14.6066667,4.58333333 L7.39166667,4.58333333 L7.39366667,5.72833333 L14.6046667,5.72833333 L14.6066667,4.58333333 Z" id="Combined-Shape" fill="#B3B3B3"></path>
        <path d="M2.74574808,8.38317637 C2.4648227,8.38513892 2.22847526,8.40372415 1.89881553,8.44727292 L1.33333333,8.52197435 L1.33333333,5.89183764 L1.9300174,6.00943686 C2.17086603,6.05690522 2.33736248,6.06857855 2.76870748,6.06857855 L3.6292517,6.06857855 C4.06350029,6.06857855 4.18444998,6.06099938 4.51606467,6.0159755 L5.13326955,5.93217655 L5.08161073,6.5528983 C5.02825401,7.19402162 5.0085034,7.70325236 5.0085034,8.39733998 L5.0085034,14.180798 C5.0085034,14.7840698 5.02760262,15.1714839 5.07978577,15.607211 L5.14678678,16.1666667 L2.60401974,16.1666667 L2.67483474,15.6042084 C2.72565848,15.2005336 2.7457483,14.7856612 2.7457483,14.180798 L2.7457483,8.3831762 Z M14.6621546,10.9920796 L13.7081908,14.6229385 C13.5631826,15.2127173 13.5004019,15.504851 13.4751548,15.7239132 L13.424127,16.1666667 L11.1500514,16.1666667 L11.0745707,15.7573387 C11.0608567,15.6829821 11.0608567,15.6829821 11.0496624,15.6244606 C11.0462652,15.607134 11.0462652,15.607134 11.042879,15.5903136 C11.0148613,15.4521344 10.9904603,15.3553079 10.7951515,14.6042557 L9.10869216,8.00083617 C8.92003322,7.30272934 8.82362399,6.98903599 8.70235418,6.68550987 L8.42846784,6 L11.3391253,6 L11.3647746,6.47292192 C11.3843302,6.83348834 11.4331324,7.15107021 11.544427,7.63393603 L12.3358537,11.1507335 L13.29127,7.54725308 C13.4106763,7.093979 13.4815646,6.73606777 13.5109688,6.44904404 L13.5569712,6 L15.7600343,6 L15.8110621,6.44275346 C15.8394517,6.68908204 15.9296519,7.11403177 16.0414887,7.52205956 L17.0051415,11.1150979 L17.8014213,7.61430658 C17.8949637,7.22877697 17.9580555,6.78845303 17.9680958,6.4835445 L17.9840184,6 L20.8913129,6 L20.6341127,6.67746601 C20.4897552,7.05770409 20.3992972,7.35612165 20.2367841,7.99505554 L18.5409564,14.5813178 C18.5055805,14.7347912 18.4043978,15.1564305 18.3885884,15.229757 C18.333361,15.4394038 18.3222345,15.4840314 18.3122613,15.5370339 C18.3081399,15.5597335 18.3081399,15.5597335 18.3038961,15.5867032 C18.2992341,15.6172708 18.2957238,15.643091 18.2840067,15.7319604 L18.2267492,16.1666667 L15.9364733,16.1666667 L15.8713093,15.7426092 C15.8298942,15.4730988 15.7254959,14.9935395 15.6273888,14.6317294 L14.6621546,10.9920796 Z" id="1W" stroke="#FFFFFF" fill="#FFFFFF" fill-rule="nonzero"></path>
        <path d="M4.58333333,15.6666667 L3.17091837,15.6666667 C3.22704082,15.2209061 3.2457483,14.7751455 3.2457483,14.180798 L3.2457483,7.88300083 L2.79676871,7.88300083 C2.45068027,7.88300083 2.17942177,7.90586035 1.83333333,7.95157938 L1.83333333,6.5 C2.12329932,6.55714879 2.32908163,6.56857855 2.76870748,6.56857855 L3.6292517,6.56857855 C4.10629252,6.56857855 4.24659864,6.55714879 4.58333333,6.51142976 C4.52721088,7.18578554 4.5085034,7.71155445 4.5085034,8.39733998 L4.5085034,14.180798 C4.5085034,14.7865752 4.52721088,15.1980466 4.58333333,15.6666667 Z M17.7882883,15.6666667 L16.3655084,15.6666667 C16.3230373,15.3902848 16.2168597,14.8951005 16.1106821,14.5035595 L14.9745817,10.2196399 C14.8577864,9.77051926 14.7622265,9.33291457 14.6666667,8.74560302 C14.5498713,9.40201005 14.4436937,9.85113065 14.3481338,10.2196399 L13.2226512,14.5035595 C13.0952381,15.0217755 13.010296,15.3902848 12.9784427,15.6666667 L11.5662806,15.6666667 C11.5131918,15.3787688 11.5131918,15.3787688 11.279601,14.4805276 L9.59137709,7.87039363 C9.41087516,7.20247069 9.30469755,6.84547739 9.16666667,6.5 L10.8655084,6.5 C10.8867439,6.89154104 10.9398327,7.23701843 11.0566281,7.74371859 L12.0440798,12.1312814 C12.1184041,12.4882747 12.2351995,13.0755863 12.298906,13.4786432 C12.4369369,12.7646566 12.5112613,12.4422111 12.5962033,12.1197655 L13.7747748,7.67462312 C13.9021879,7.19095477 13.9765122,6.81092965 14.0083655,6.5 L15.3143501,6.5 C15.3462033,6.77638191 15.4417632,7.22550251 15.5585586,7.65159129 L16.7477477,12.0852178 C16.8220721,12.3846315 16.8751609,12.6149497 17.045045,13.4786432 C17.0981338,13.2137772 17.0981338,13.2137772 17.1618404,12.8107203 C17.1936937,12.6264657 17.2786358,12.1773451 17.2998713,12.0737018 L18.287323,7.73220268 C18.3935006,7.29459799 18.4572072,6.82244556 18.467825,6.5 L20.1666667,6.5 C20.018018,6.89154104 19.9224582,7.20247069 19.752574,7.87039363 L18.0537323,14.4690117 C17.979408,14.7914573 17.9263192,14.9987437 17.9050837,15.1023869 C17.8201416,15.4248325 17.8201416,15.4248325 17.7882883,15.6666667 Z" id="1W" stroke="#000000" stroke-width="0.4" fill="#000000" fill-rule="nonzero"></path>
    </g>
</svg>