<?xml version="1.0" encoding="UTF-8"?>
<svg width="22px" height="22px" viewBox="0 0 22 22" version="1.1" xmlns="http://www.w3.org/2000/svg" xmlns:xlink="http://www.w3.org/1999/xlink">
    <!-- Generator: Sketch 57.1 (83088) - https://sketch.com -->
    <title>1w-dark</title>
    <desc>Created with Sketch.</desc>
    <g id="1w-dark" stroke="none" stroke-width="1" fill="none" fill-rule="evenodd">
        <rect id="Rectangle" x="0" y="0" width="22" height="22"></rect>
        <path d="M16.9583333,3.20833333 L16.9583333,4.58333333 L15.8116667,4.58333333 L15.8125,7.5068777 L11.9296667,10.9793333 L15.8125,14.455831 L15.8116667,17.4163333 L16.9583333,17.4166667 L16.9583333,18.7916667 L5.04166667,18.7916667 L5.04166667,17.4166667 L6.18666667,17.4163333 L6.1875,14.455831 L10.0686667,10.9793333 L6.1875,7.5068777 L6.18666667,4.58333333 L5.04166667,4.58333333 L5.04166667,3.20833333 L16.9583333,3.20833333 Z M10.9996667,11.8113333 L7.390625,15.041006 L7.38966667,16.2703333 L14.6086667,16.2703333 L14.609375,15.041006 L10.9996667,11.8113333 Z M14.6066667,4.58333333 L7.39166667,4.58333333 L7.39366667,5.72833333 L14.6046667,5.72833333 L14.6066667,4.58333333 Z" id="Combined-Shape" fill="#B3B3B3"></path>
        <path d="M2.74574808,9.2165097 C2.4648227,9.21847225 2.22847526,9.23705749 1.89881553,9.28060625 L1.33333333,9.35530768 L1.33333333,6.72517097 L1.9300174,6.8427702 C2.17086603,6.89023855 2.33736248,6.90191189 2.76870748,6.90191189 L3.6292517,6.90191189 C4.06350029,6.90191189 4.18444998,6.89433271 4.51606467,6.84930883 L5.13326955,6.76550988 L5.08161073,7.38623163 C5.02825401,8.02735495 5.0085034,8.53658569 5.0085034,9.23067332 L5.0085034,15.0141313 C5.0085034,15.6174031 5.02760262,16.0048172 5.07978577,16.4405443 L5.14678678,17 L2.60401974,17 L2.67483474,16.4375417 C2.72565848,16.0338669 2.7457483,15.6189946 2.7457483,15.0141313 L2.7457483,9.21650953 Z M14.6621546,11.825413 L13.7081908,15.4562718 C13.5631826,16.0460507 13.5004019,16.3381843 13.4751548,16.5572465 L13.424127,17 L11.1500514,17 L11.0745707,16.5906721 C11.0608567,16.5163155 11.0608567,16.5163155 11.0496624,16.457794 C11.0462652,16.4404673 11.0462652,16.4404673 11.042879,16.423647 C11.0148613,16.2854678 10.9904603,16.1886412 10.7951515,15.4375891 L9.10869216,8.8341695 C8.92003322,8.13606267 8.82362399,7.82236932 8.70235418,7.5188432 L8.42846784,6.83333333 L11.3391253,6.83333333 L11.3647746,7.30625526 C11.3843302,7.66682168 11.4331324,7.98440355 11.544427,8.46726936 L12.3358537,11.9840668 L13.29127,8.38058641 C13.4106763,7.92731234 13.4815646,7.56940111 13.5109688,7.28237738 L13.5569712,6.83333333 L15.7600343,6.83333333 L15.8110621,7.27608679 C15.8394517,7.52241538 15.9296519,7.94736511 16.0414887,8.35539289 L17.0051415,11.9484312 L17.8014213,8.44763992 C17.8949637,8.0621103 17.9580555,7.62178636 17.9680958,7.31687783 L17.9840184,6.83333333 L20.8913129,6.83333333 L20.6341127,7.51079934 C20.4897552,7.89103742 20.3992972,8.18945498 20.2367841,8.82838887 L18.5409564,15.4146512 C18.5055805,15.5681245 18.4043978,15.9897638 18.3885884,16.0630903 C18.333361,16.2727371 18.3222345,16.3173647 18.3122613,16.3703672 C18.3081399,16.3930668 18.3081399,16.3930668 18.3038961,16.4200366 C18.2992341,16.4506041 18.2957238,16.4764244 18.2840067,16.5652937 L18.2267492,17 L15.9364733,17 L15.8713093,16.5759426 C15.8298942,16.3064321 15.7254959,15.8268728 15.6273888,15.4650627 L14.6621546,11.825413 Z" id="1W" stroke="#FFFFFF" fill="#FFFFFF" fill-rule="nonzero"></path>
        <path d="M4.58333333,16.5 L3.17091837,16.5 C3.22704082,16.0542394 3.2457483,15.6084788 3.2457483,15.0141313 L3.2457483,8.71633416 L2.79676871,8.71633416 C2.45068027,8.71633416 2.17942177,8.73919368 1.83333333,8.78491272 L1.83333333,7.33333333 C2.12329932,7.39048213 2.32908163,7.40191189 2.76870748,7.40191189 L3.6292517,7.40191189 C4.10629252,7.40191189 4.24659864,7.39048213 4.58333333,7.34476309 C4.52721088,8.01911887 4.5085034,8.54488778 4.5085034,9.23067332 L4.5085034,15.0141313 C4.5085034,15.6199086 4.52721088,16.0313799 4.58333333,16.5 Z M17.7882883,16.5 L16.3655084,16.5 C16.3230373,16.2236181 16.2168597,15.7284338 16.1106821,15.3368928 L14.9745817,11.0529732 C14.8577864,10.6038526 14.7622265,10.1662479 14.6666667,9.57893635 C14.5498713,10.2353434 14.4436937,10.684464 14.3481338,11.0529732 L13.2226512,15.3368928 C13.0952381,15.8551089 13.010296,16.2236181 12.9784427,16.5 L11.5662806,16.5 C11.5131918,16.2121022 11.5131918,16.2121022 11.279601,15.313861 L9.59137709,8.70372697 C9.41087516,8.03580402 9.30469755,7.67881072 9.16666667,7.33333333 L10.8655084,7.33333333 C10.8867439,7.72487437 10.9398327,8.07035176 11.0566281,8.57705193 L12.0440798,12.9646147 C12.1184041,13.321608 12.2351995,13.9089196 12.298906,14.3119765 C12.4369369,13.5979899 12.5112613,13.2755444 12.5962033,12.9530988 L13.7747748,8.50795645 C13.9021879,8.02428811 13.9765122,7.64426298 14.0083655,7.33333333 L15.3143501,7.33333333 C15.3462033,7.60971524 15.4417632,8.05883585 15.5585586,8.48492462 L16.7477477,12.9185511 C16.8220721,13.2179648 16.8751609,13.4482831 17.045045,14.3119765 C17.0981338,14.0471106 17.0981338,14.0471106 17.1618404,13.6440536 C17.1936937,13.459799 17.2786358,13.0106784 17.2998713,12.9070352 L18.287323,8.56553601 C18.3935006,8.12793132 18.4572072,7.65577889 18.467825,7.33333333 L20.1666667,7.33333333 C20.018018,7.72487437 19.9224582,8.03580402 19.752574,8.70372697 L18.0537323,15.3023451 C17.979408,15.6247906 17.9263192,15.8320771 17.9050837,15.9357203 C17.8201416,16.2581658 17.8201416,16.2581658 17.7882883,16.5 Z" id="1W" stroke="#000000" stroke-width="0.4" fill="#000000" fill-rule="nonzero"></path>
    </g>
</svg>