<?xml version="1.0" encoding="UTF-8"?>
<svg width="22px" height="22px" viewBox="0 0 22 22" version="1.1" xmlns="http://www.w3.org/2000/svg" xmlns:xlink="http://www.w3.org/1999/xlink">
    <!-- Generator: Sketch 57.1 (83088) - https://sketch.com -->
    <title>1y-dark</title>
    <desc>Created with Sketch.</desc>
    <g id="1y-dark" stroke="none" stroke-width="1" fill="none" fill-rule="evenodd">
        <polygon id="Path" points="0 0 22 0 22 22 0 22"></polygon>
        <path d="M16.9583333,3.20833333 L16.9583333,4.58333333 L15.8116667,4.58333333 L15.8125,7.5068777 L11.9296667,10.9793333 L15.8125,14.455831 L15.8116667,17.4163333 L16.9583333,17.4166667 L16.9583333,18.7916667 L5.04166667,18.7916667 L5.04166667,17.4166667 L6.18666667,17.4163333 L6.1875,14.455831 L10.0686667,10.9793333 L6.1875,7.5068777 L6.18666667,4.58333333 L5.04166667,4.58333333 L5.04166667,3.20833333 L16.9583333,3.20833333 Z M10.9996667,11.8113333 L7.390625,15.041006 L7.38966667,16.2703333 L14.6086667,16.2703333 L14.609375,15.041006 L10.9996667,11.8113333 Z M14.6066667,4.58333333 L7.39166667,4.58333333 L7.39366667,5.72833333 L14.6046667,5.72833333 L14.6066667,4.58333333 Z" id="Combined-Shape" fill="#B3B3B3"></path>
        <path d="M4.13321995,8.02130091 L4.0345805,8.02130091 C3.61741951,8.02130091 3.2804167,8.04189086 2.80417139,8.09379412 L2.25,8.1541901 L2.25,5.41213486 L2.83024493,5.50648126 C3.16999967,5.56172454 3.40705668,5.57543641 3.99716553,5.57543641 L5.14455782,5.57543641 C5.73458826,5.57543641 5.90718795,5.56651341 6.36100892,5.51568018 L6.97628172,5.44676246 L6.91414186,6.0627567 C6.84315578,6.76644385 6.81689342,7.32507069 6.81689342,8.08707398 L6.81689342,14.4488778 C6.81689342,15.1104397 6.8422323,15.5344741 6.91148028,16.0115037 L6.99448989,16.5833333 L3.95135318,16.5833333 L4.03916934,16.007902 C4.10656147,15.5663029 4.13321995,15.1121232 4.13321995,14.4488778 L4.13321995,8.02130091 Z M13.7070879,12.0954404 L10.6281045,7.58475996 C10.4611384,7.33775092 10.2900456,7.10641003 9.68378696,6.30060389 L9.08144226,5.5 L12.8456845,5.5 L12.9570148,5.8474174 C13.0520856,6.14409588 13.214319,6.45148264 13.5600907,6.97264204 L15.1287431,9.43334149 L16.7156504,6.98793031 C17.0580235,6.44343657 17.2283797,6.11570318 17.3027723,5.8602158 L17.4076595,5.5 L21.1723252,5.5 L20.5653107,6.30179952 C20.2219423,6.75535141 19.8192049,7.30522142 19.6346752,7.58611701 L16.5566123,12.1077605 L16.5566123,14.4492253 C16.5566123,15.1010883 16.5868314,15.5760895 16.6590791,15.9991684 L16.758835,16.5833333 L13.5212963,16.5833333 L13.6024735,16.0128903 C13.6730186,15.5171605 13.7070879,15.0331868 13.7070879,14.4492253 L13.7070879,12.0954404 Z" id="1Y" stroke="#FFFFFF" fill="#FFFFFF" fill-rule="nonzero"></path>
        <path d="M6.41666667,16.0833333 L4.53344671,16.0833333 C4.60827664,15.5929967 4.63321995,15.10266 4.63321995,14.4488778 L4.63321995,7.52130091 L4.0345805,7.52130091 C3.57312925,7.52130091 3.21145125,7.54644638 2.75,7.59673732 L2.75,6 C3.13662132,6.06286367 3.41099773,6.07543641 3.99716553,6.07543641 L5.14455782,6.07543641 C5.78061224,6.07543641 5.96768707,6.06286367 6.41666667,6.01257273 C6.34183673,6.75436409 6.31689342,7.33270989 6.31689342,8.08707398 L6.31689342,14.4488778 C6.31689342,15.1152328 6.34183673,15.5678512 6.41666667,16.0833333 Z M16.1662138,16.0833333 L14.0974864,16.0833333 C14.1659873,15.6019682 14.2070879,15.095268 14.2070879,14.4492253 L14.2070879,11.9410595 L11.042346,7.30475293 C10.8368433,7.00073283 10.5217391,6.58270519 10.0833333,6 L12.480865,6 C12.5904665,6.34202261 12.7685688,6.68404523 13.1384737,7.24141541 L15.125,10.3576214 L17.1389266,7.25408291 C17.4814312,6.70938023 17.6869339,6.32935511 17.7828351,6 L20.1666667,6 C19.9748641,6.25335008 19.4542572,6.95006281 19.2213542,7.30475293 L16.0566123,11.953727 L16.0566123,14.4492253 C16.0566123,15.0826005 16.0840127,15.6019682 16.1662138,16.0833333 Z" id="1Y" stroke="#000000" stroke-width="0.4" fill="#000000" fill-rule="nonzero"></path>
    </g>
</svg>