<?xml version="1.0" encoding="UTF-8"?>
<svg width="22px" height="22px" viewBox="0 0 22 22" version="1.1" xmlns="http://www.w3.org/2000/svg" xmlns:xlink="http://www.w3.org/1999/xlink">
    <!-- Generator: Sketch 57.1 (83088) - https://sketch.com -->
    <title>1y</title>
    <desc>Created with Sketch.</desc>
    <g id="1y" stroke="none" stroke-width="1" fill="none" fill-rule="evenodd">
        <polygon id="Path" points="0 0 22 0 22 22 0 22"></polygon>
        <path d="M16.9583333,3.20833333 L16.9583333,4.58333333 L15.8116667,4.58333333 L15.8125,7.5068777 L11.9296667,10.9793333 L15.8125,14.455831 L15.8116667,17.4163333 L16.9583333,17.4166667 L16.9583333,18.7916667 L5.04166667,18.7916667 L5.04166667,17.4166667 L6.18666667,17.4163333 L6.1875,14.455831 L10.0686667,10.9793333 L6.1875,7.5068777 L6.18666667,4.58333333 L5.04166667,4.58333333 L5.04166667,3.20833333 L16.9583333,3.20833333 Z M10.9996667,11.8113333 L7.390625,15.041006 L7.38966667,16.2703333 L14.6086667,16.2703333 L14.609375,15.041006 L10.9996667,11.8113333 Z M14.6066667,4.58333333 L7.39166667,4.58333333 L7.39366667,5.72833333 L14.6046667,5.72833333 L14.6066667,4.58333333 Z" id="Combined-Shape" fill="#EFEFEF" opacity="0.75"></path>
        <path d="M4.13321995,8.43796758 L4.0345805,8.43796758 C3.61741951,8.43796758 3.2804167,8.45855753 2.80417139,8.51046079 L2.25,8.57085677 L2.25,5.82880152 L2.83024493,5.92314792 C3.16999967,5.97839121 3.40705668,5.99210308 3.99716553,5.99210308 L5.14455782,5.99210308 C5.73458826,5.99210308 5.90718795,5.98318007 6.36100892,5.93234684 L6.97628172,5.86342913 L6.91414186,6.47942337 C6.84315578,7.18311051 6.81689342,7.74173736 6.81689342,8.50374065 L6.81689342,14.8655445 C6.81689342,15.5271064 6.8422323,15.9511408 6.91148028,16.4281704 L6.99448989,17 L3.95135318,17 L4.03916934,16.4245687 C4.10656147,15.9829696 4.13321995,15.5287898 4.13321995,14.8655445 L4.13321995,8.43796758 Z M13.7070879,12.5121071 L10.6281045,8.00142663 C10.4611384,7.75441759 10.2900456,7.5230767 9.68378696,6.71727055 L9.08144226,5.91666667 L12.8456845,5.91666667 L12.9570148,6.26408407 C13.0520856,6.56076254 13.214319,6.86814931 13.5600907,7.38930871 L15.1287431,9.85000816 L16.7156504,7.40459698 C17.0580235,6.86010323 17.2283797,6.53236984 17.3027723,6.27688247 L17.4076595,5.91666667 L21.1723252,5.91666667 L20.5653107,6.71846618 C20.2219423,7.17201808 19.8192049,7.72188809 19.6346752,8.00278368 L16.5566123,12.5244271 L16.5566123,14.865892 C16.5566123,15.5177549 16.5868314,15.9927562 16.6590791,16.4158351 L16.758835,17 L13.5212963,17 L13.6024735,16.4295569 C13.6730186,15.9338271 13.7070879,15.4498535 13.7070879,14.865892 L13.7070879,12.5121071 Z" id="1Y" stroke="#000000" fill="#000000" fill-rule="nonzero"></path>
        <path d="M6.41666667,16.5 L4.53344671,16.5 C4.60827664,16.0096633 4.63321995,15.5193267 4.63321995,14.8655445 L4.63321995,7.93796758 L4.0345805,7.93796758 C3.57312925,7.93796758 3.21145125,7.96311305 2.75,8.01340399 L2.75,6.41666667 C3.13662132,6.47953034 3.41099773,6.49210308 3.99716553,6.49210308 L5.14455782,6.49210308 C5.78061224,6.49210308 5.96768707,6.47953034 6.41666667,6.4292394 C6.34183673,7.17103076 6.31689342,7.74937656 6.31689342,8.50374065 L6.31689342,14.8655445 C6.31689342,15.5318994 6.34183673,15.9845179 6.41666667,16.5 Z M16.1662138,16.5 L14.0974864,16.5 C14.1659873,16.0186348 14.2070879,15.5119347 14.2070879,14.865892 L14.2070879,12.3577261 L11.042346,7.7214196 C10.8368433,7.4173995 10.5217391,6.99937186 10.0833333,6.41666667 L12.480865,6.41666667 C12.5904665,6.75868928 12.7685688,7.10071189 13.1384737,7.65808208 L15.125,10.7742881 L17.1389266,7.67074958 C17.4814312,7.1260469 17.6869339,6.74602178 17.7828351,6.41666667 L20.1666667,6.41666667 C19.9748641,6.67001675 19.4542572,7.36672948 19.2213542,7.7214196 L16.0566123,12.3703936 L16.0566123,14.865892 C16.0566123,15.4992672 16.0840127,16.0186348 16.1662138,16.5 Z" id="1Y" stroke="#FFFFFF" stroke-width="0.4" fill="#FFFFFF" fill-rule="nonzero"></path>
    </g>
</svg>