<?xml version="1.0" encoding="UTF-8"?>
<svg width="22px" height="22px" viewBox="0 0 22 22" version="1.1" xmlns="http://www.w3.org/2000/svg" xmlns:xlink="http://www.w3.org/1999/xlink">
    <!-- Generator: Sketch 57.1 (83088) - https://sketch.com -->
    <title>1y</title>
    <desc>Created with Sketch.</desc>
    <g id="1y" stroke="none" stroke-width="1" fill="none" fill-rule="evenodd">
        <polygon id="Path" points="0 0 22 0 22 22 0 22"></polygon>
        <path d="M16.9583333,3.20833333 L16.9583333,4.58333333 L15.8116667,4.58333333 L15.8125,7.5068777 L11.9296667,10.9793333 L15.8125,14.455831 L15.8116667,17.4163333 L16.9583333,17.4166667 L16.9583333,18.7916667 L5.04166667,18.7916667 L5.04166667,17.4166667 L6.18666667,17.4163333 L6.1875,14.455831 L10.0686667,10.9793333 L6.1875,7.5068777 L6.18666667,4.58333333 L5.04166667,4.58333333 L5.04166667,3.20833333 L16.9583333,3.20833333 Z M10.9996667,11.8113333 L7.390625,15.041006 L7.38966667,16.2703333 L14.6086667,16.2703333 L14.609375,15.041006 L10.9996667,11.8113333 Z M14.6066667,4.58333333 L7.39166667,4.58333333 L7.39366667,5.72833333 L14.6046667,5.72833333 L14.6066667,4.58333333 Z" id="Combined-Shape" fill="#EFEFEF" opacity="0.75"></path>
        <path d="M4.13321995,8.82130091 L4.0345805,8.82130091 C3.61741951,8.82130091 3.2804167,8.84189086 2.80417139,8.89379412 L2.25,8.9541901 L2.25,6.21213486 L2.83024493,6.30648126 C3.16999967,6.36172454 3.40705668,6.37543641 3.99716553,6.37543641 L5.14455782,6.37543641 C5.73458826,6.37543641 5.90718795,6.36651341 6.36100892,6.31568018 L6.97628172,6.24676246 L6.91414186,6.8627567 C6.84315578,7.56644385 6.81689342,8.12507069 6.81689342,8.88707398 L6.81689342,15.2488778 C6.81689342,15.9104397 6.8422323,16.3344741 6.91148028,16.8115037 L6.99448989,17.3833333 L3.95135318,17.3833333 L4.03916934,16.807902 C4.10656147,16.3663029 4.13321995,15.9121232 4.13321995,15.2488778 L4.13321995,8.82130091 Z M13.7070879,12.8954404 L10.6281045,8.38475996 C10.4611384,8.13775092 10.2900456,7.90641003 9.68378696,7.10060389 L9.08144226,6.3 L12.8456845,6.3 L12.9570148,6.6474174 C13.0520856,6.94409588 13.214319,7.25148264 13.5600907,7.77264204 L15.1287431,10.2333415 L16.7156504,7.78793031 C17.0580235,7.24343657 17.2283797,6.91570318 17.3027723,6.6602158 L17.4076595,6.3 L21.1723252,6.3 L20.5653107,7.10179952 C20.2219423,7.55535141 19.8192049,8.10522142 19.6346752,8.38611701 L16.5566123,12.9077605 L16.5566123,15.2492253 C16.5566123,15.9010883 16.5868314,16.3760895 16.6590791,16.7991684 L16.758835,17.3833333 L13.5212963,17.3833333 L13.6024735,16.8128903 C13.6730186,16.3171605 13.7070879,15.8331868 13.7070879,15.2492253 L13.7070879,12.8954404 Z" id="1Y" stroke="#000000" fill="#000000" fill-rule="nonzero"></path>
        <path d="M6.41666667,16.8833333 L4.53344671,16.8833333 C4.60827664,16.3929967 4.63321995,15.90266 4.63321995,15.2488778 L4.63321995,8.32130091 L4.0345805,8.32130091 C3.57312925,8.32130091 3.21145125,8.34644638 2.75,8.39673732 L2.75,6.8 C3.13662132,6.86286367 3.41099773,6.87543641 3.99716553,6.87543641 L5.14455782,6.87543641 C5.78061224,6.87543641 5.96768707,6.86286367 6.41666667,6.81257273 C6.34183673,7.55436409 6.31689342,8.13270989 6.31689342,8.88707398 L6.31689342,15.2488778 C6.31689342,15.9152328 6.34183673,16.3678512 6.41666667,16.8833333 Z M16.1662138,16.8833333 L14.0974864,16.8833333 C14.1659873,16.4019682 14.2070879,15.895268 14.2070879,15.2492253 L14.2070879,12.7410595 L11.042346,8.10475293 C10.8368433,7.80073283 10.5217391,7.38270519 10.0833333,6.8 L12.480865,6.8 C12.5904665,7.14202261 12.7685688,7.48404523 13.1384737,8.04141541 L15.125,11.1576214 L17.1389266,8.05408291 C17.4814312,7.50938023 17.6869339,7.12935511 17.7828351,6.8 L20.1666667,6.8 C19.9748641,7.05335008 19.4542572,7.75006281 19.2213542,8.10475293 L16.0566123,12.753727 L16.0566123,15.2492253 C16.0566123,15.8826005 16.0840127,16.4019682 16.1662138,16.8833333 Z" id="1Y" stroke="#FFFFFF" stroke-width="0.4" fill="#FFFFFF" fill-rule="nonzero"></path>
    </g>
</svg>