<?xml version="1.0" encoding="UTF-8"?>
<svg width="22px" height="22px" viewBox="0 0 22 22" version="1.1" xmlns="http://www.w3.org/2000/svg" xmlns:xlink="http://www.w3.org/1999/xlink">
    <!-- Generator: Sketch 57.1 (83088) - https://sketch.com -->
    <title>30min</title>
    <desc>Created with Sketch.</desc>
    <g id="30min" stroke="none" stroke-width="1" fill="none" fill-rule="evenodd">
        <polygon id="Path" points="0 0 22 0 22 22 0 22"></polygon>
        <path d="M16.9583333,3.20833333 L16.9583333,4.58333333 L15.8116667,4.58333333 L15.8125,7.5068777 L11.9296667,10.9793333 L15.8125,14.455831 L15.8116667,17.4163333 L16.9583333,17.4166667 L16.9583333,18.7916667 L5.04166667,18.7916667 L5.04166667,17.4166667 L6.18666667,17.4163333 L6.1875,14.455831 L10.0686667,10.9793333 L6.1875,7.5068777 L6.18666667,4.58333333 L5.04166667,4.58333333 L5.04166667,3.20833333 L16.9583333,3.20833333 Z M10.9996667,11.8113333 L7.390625,15.041006 L7.38966667,16.2703333 L14.6086667,16.2703333 L14.609375,15.041006 L10.9996667,11.8113333 Z M14.6066667,4.58333333 L7.39166667,4.58333333 L7.39366667,5.72833333 L14.6046667,5.72833333 L14.6066667,4.58333333 Z" id="Combined-Shape" fill="#EFEFEF" opacity="0.75"></path>
        <path d="M4.19975709,18.7479859 L4.19975709,19.906407 C4.19975709,20.4427174 4.21593153,20.7221988 4.26185167,21.0024983 L4.35700712,21.5833333 L1.98046364,21.5833333 L2.07292554,21.0044682 C2.11884303,20.7169982 2.13533881,20.4304151 2.13533881,19.906407 L2.13533881,15.8597152 C2.13533881,15.3431864 2.11808631,15.0353561 2.07262933,14.7436544 L1.98271515,14.1666667 L4.54226922,14.1666667 L4.62657439,14.5625161 C4.67972968,14.8121033 4.78156629,15.1200429 4.91351145,15.4261788 L6.19657425,18.3701891 L7.47311894,15.4266348 C7.62222771,15.0835708 7.69336867,14.8593944 7.75005341,14.5704213 L7.82925359,14.1666667 L10.3911262,14.1666667 L10.3157907,14.7326388 C10.2660174,15.106571 10.25149,15.3534991 10.25149,15.8597152 L10.25149,19.906407 C10.25149,20.4671801 10.2670309,20.7327952 10.3128702,20.9982522 L10.4139024,21.5833333 L8.03444809,21.5833333 L8.12436227,21.0063456 C8.17146793,20.7040641 8.18707175,20.4373733 8.18707175,19.906407 L8.1873243,18.7661475 L7.52870144,20.2175703 C7.37779309,20.550603 7.23036914,20.9726336 7.18461186,21.1874839 L7.10030669,21.5833333 L5.2589841,21.5833333 L5.18944586,21.1653977 C5.1569921,20.9703455 5.03990027,20.636802 4.84850637,20.199144 L4.19975709,18.7479859 Z M10.4528898,14.1666667 L12.93495,14.1666667 L12.8369425,14.7495712 C12.7901456,15.0278981 12.7751914,15.2525905 12.7751914,15.7065536 L12.7751914,20.0434464 C12.7751914,20.4926018 12.7905167,20.7243088 12.8369425,21.0004288 L12.93495,21.5833333 L10.4480063,21.5833333 L10.5460138,21.0004288 C10.5924397,20.7243088 10.6077649,20.4926018 10.6077649,20.0434464 L10.6077649,15.7065536 C10.6077649,15.2485561 10.5943809,15.0524831 10.5453517,14.7455318 L10.4528898,14.1666667 Z M15.2388047,17.9181094 L15.2388047,19.8741625 C15.2388047,20.3644527 15.2604602,20.7286595 15.3020965,21.0101802 L15.3868646,21.5833333 L12.9670725,21.5833333 L13.0605937,21.0036917 C13.1003327,20.7573902 13.1228823,20.3704469 13.1228823,19.8661013 L13.1228823,15.7065536 C13.1228823,15.2993399 13.105998,15.0377189 13.0601728,14.7436544 L12.9702586,14.1666667 L15.2371221,14.1666667 L15.3601873,14.4876914 C15.4134374,14.6265982 15.5377717,14.827604 15.8251889,15.2324702 L17.6981641,17.8812292 L17.6981641,15.7791039 C17.6981641,15.3079227 17.6805723,15.0122108 17.636413,14.7495712 L17.5384055,14.1666667 L19.9689617,14.1666667 L19.8764997,14.7455318 C19.8305314,15.0333202 19.8140865,15.3035765 19.8140865,15.7791039 L19.8140865,20.0434464 C19.8140865,20.4858968 19.8313321,20.7563554 19.8746303,20.9935431 L19.9822954,21.5833333 L17.726245,21.5833333 L17.5851422,21.3183177 C17.4615313,21.0861549 17.3319497,20.8843303 17.0686952,20.5092359 L15.2388047,17.9181094 Z" id="MIN" stroke="#000000" fill="#000000" fill-rule="nonzero"></path>
        <path d="M6.69557949,21.0833333 L5.68266533,21.0833333 C5.63974524,20.8253769 5.50240094,20.4465034 5.30496852,19.9950796 L4.06886988,17.2301089 C3.90577353,16.8673576 3.82851736,16.6497069 3.63108494,15.9967546 C3.66542102,16.423995 3.69975709,17.0850084 3.69975709,17.2623534 L3.69975709,19.906407 C3.69975709,20.4626256 3.71692513,20.7689489 3.76842924,21.0833333 L2.56666667,21.0833333 C2.61817078,20.7608878 2.63533881,20.4465034 2.63533881,19.906407 L2.63533881,15.8597152 C2.63533881,15.3357412 2.61817078,14.9971734 2.56666667,14.6666667 L4.13754203,14.6666667 C4.19763015,14.9488065 4.30922239,15.2873744 4.4551507,15.6259422 L6.19770643,19.6242672 L7.93167814,15.6259422 C8.1033585,15.2309464 8.18061467,14.9729899 8.2407028,14.6666667 L9.82016218,14.6666667 C9.76865807,15.0536013 9.75149003,15.3196189 9.75149003,15.8597152 L9.75149003,19.906407 C9.75149003,20.4948702 9.76865807,20.7850712 9.82016218,21.0833333 L8.61839961,21.0833333 C8.66990372,20.7528266 8.68707175,20.4626256 8.68707175,19.906407 L8.68707175,17.2301089 C8.72140783,16.5287898 8.74715988,16.1176717 8.7557439,15.9967546 C8.64415166,16.4320561 8.48105531,16.8834799 8.36087906,17.1736809 L7.0732763,20.0112018 C6.90159594,20.3900754 6.7470836,20.8414992 6.69557949,21.0833333 Z M11.0390928,14.6666667 L12.3438636,14.6666667 C12.2923595,14.9729899 12.2751914,15.2228853 12.2751914,15.7065536 L12.2751914,20.0434464 C12.2751914,20.5190536 12.2923595,20.7770101 12.3438636,21.0833333 L11.0390928,21.0833333 C11.0905969,20.7770101 11.1077649,20.5190536 11.1077649,20.0434464 L11.1077649,15.7065536 C11.1077649,15.206763 11.0905969,14.9891122 11.0390928,14.6666667 Z M19.3827586,21.0833333 L18.0264837,21.0833333 C17.8805554,20.8092546 17.7260431,20.5754816 17.4771065,20.2207915 L15.2624298,17.0850084 C15.0993335,16.8431742 14.884733,16.4965452 14.6787166,16.1176717 C14.6873006,16.2305276 14.6873006,16.2305276 14.7130526,16.5287898 C14.7216367,16.6819514 14.7388047,17.0447027 14.7388047,17.2301089 L14.7388047,19.8741625 C14.7388047,20.4142588 14.7645567,20.7931323 14.8074768,21.0833333 L13.5542102,21.0833333 C13.5971303,20.8173157 13.6228823,20.4142588 13.6228823,19.8661013 L13.6228823,15.7065536 C13.6228823,15.2873744 13.6057143,14.9971734 13.5542102,14.6666667 L14.893317,14.6666667 C14.9705732,14.8681951 15.1250855,15.1100293 15.4169421,15.5211474 L17.5886988,18.5924414 C17.7947152,18.8826424 18.0694038,19.3018216 18.2582522,19.6242672 C18.2239161,19.3098827 18.1981641,18.8262144 18.1981641,18.4876466 L18.1981641,15.7791039 C18.1981641,15.3034966 18.1809961,14.9729899 18.1294919,14.6666667 L19.3827586,14.6666667 C19.3312545,14.9891122 19.3140865,15.2873744 19.3140865,15.7791039 L19.3140865,20.0434464 C19.3140865,20.4948702 19.3312545,20.8011935 19.3827586,21.0833333 Z" id="MIN" stroke="#FFFFFF" stroke-width="0.4" fill="#FFFFFF" fill-rule="nonzero"></path>
        <path d="M9.4137458,6.615772 C10.1320387,7.08790697 10.575754,7.87206167 10.575754,8.86830563 C10.575754,10.7183774 9.05981141,11.9583333 6.90844302,11.9583333 C5.29762396,11.9583333 4.26391208,11.3270537 3.45656142,10.1549329 L3.18953991,9.76726803 L5.05911403,8.30589583 L5.35128058,8.78620678 C5.77297495,9.47945665 6.17469317,9.75219298 6.90844302,9.75219298 C7.7157066,9.75219298 8.08749942,9.42463518 8.08749942,8.79212835 L8.08749942,8.70325485 C8.08749942,8.11106196 7.70271273,7.80667128 6.83212228,7.80667128 L5.39083309,7.80667128 L5.39083309,5.58783472 L6.79396191,5.58783472 C7.57622183,5.58783472 7.90941768,5.31267301 7.90941768,4.84360572 L7.90941768,4.75473223 C7.90941768,4.26253305 7.60490058,3.99780702 6.99748389,3.99780702 C6.37850147,3.99780702 5.9359656,4.26980371 5.59360284,4.83577618 L5.28687217,5.34284391 L3.54574035,3.83669942 L3.80020224,3.46781851 C4.54255115,2.39167174 5.55985657,1.79166667 7.03564427,1.79166667 C9.01480831,1.79166667 10.4231125,2.86991906 10.4231125,4.57698523 C10.4231125,5.44609963 10.037939,6.15827664 9.4137458,6.615772 Z M14.9094012,11.9583333 C12.4345494,11.9583333 11.1912097,10.1117813 11.1912097,6.875 C11.1912097,3.63821865 12.4345494,1.79166667 14.9094012,1.79166667 C17.3842529,1.79166667 18.6275926,3.63821865 18.6275926,6.875 C18.6275926,10.1117813 17.3842529,11.9583333 14.9094012,11.9583333 Z M14.9094012,9.73949677 C15.7179838,9.73949677 16.1011777,9.0922337 16.1011777,7.64946907 L16.1011777,6.10053093 C16.1011777,4.6577663 15.7179838,4.01050323 14.9094012,4.01050323 C14.1008186,4.01050323 13.7176246,4.6577663 13.7176246,6.10053093 L13.7176246,7.64946907 C13.7176246,9.0922337 14.1008186,9.73949677 14.9094012,9.73949677 Z" id="30" stroke="#000000" fill="#000000" fill-rule="nonzero"></path>
        <path d="M5.89083309,6.08783472 L6.79396191,6.08783472 C7.88789259,6.08783472 8.40941768,5.56728994 8.40941768,4.84360572 L8.40941768,4.75473223 C8.40941768,3.95487073 7.84973222,3.49780702 6.99748389,3.49780702 C6.15795569,3.49780702 5.57282998,3.90408587 5.165786,4.57698523 L4.21177669,3.7517313 C4.74602191,2.97726223 5.56010986,2.29166667 7.03564427,2.29166667 C8.71470066,2.29166667 9.92311247,3.14231302 9.92311247,4.57698523 C9.92311247,5.70694829 9.14718489,6.40524007 8.21861582,6.6083795 L8.21861582,6.67186057 C9.22350563,6.86230379 10.075754,7.585988 10.075754,8.86830563 C10.075754,10.4172438 8.80374153,11.4583333 6.90844302,11.4583333 C5.25482687,11.4583333 4.4280188,10.6838643 3.86833333,9.87130656 L4.92410364,9.04605263 C5.35658787,9.75704063 5.87811296,10.252193 6.90844302,10.252193 C7.98965358,10.252193 8.58749942,9.70625577 8.58749942,8.79212835 L8.58749942,8.70325485 C8.58749942,7.80182364 7.95149321,7.30667128 6.83212228,7.30667128 L5.89083309,7.30667128 L5.89083309,6.08783472 Z M14.9094012,11.4583333 C12.6960995,11.4583333 11.6912097,9.76973684 11.6912097,6.875 C11.6912097,3.98026316 12.6960995,2.29166667 14.9094012,2.29166667 C17.1227028,2.29166667 18.1275926,3.98026316 18.1275926,6.875 C18.1275926,9.76973684 17.1227028,11.4583333 14.9094012,11.4583333 Z M14.9094012,10.2394968 C16.1432532,10.2394968 16.6011777,9.1984072 16.6011777,7.64946907 L16.6011777,6.10053093 C16.6011777,4.5515928 16.1432532,3.51050323 14.9094012,3.51050323 C13.6755491,3.51050323 13.2176246,4.5515928 13.2176246,6.10053093 L13.2176246,7.64946907 C13.2176246,9.1984072 13.6755491,10.2394968 14.9094012,10.2394968 Z" id="30" stroke="#FFFFFF" stroke-width="0.4" fill="#FFFFFF" fill-rule="nonzero"></path>
    </g>
</svg>