<?xml version="1.0" encoding="UTF-8"?>
<svg width="22px" height="22px" viewBox="0 0 22 22" version="1.1" xmlns="http://www.w3.org/2000/svg" xmlns:xlink="http://www.w3.org/1999/xlink">
    <!-- Generator: Sketch 57.1 (83088) - https://sketch.com -->
    <title>30min</title>
    <desc>Created with Sketch.</desc>
    <g id="30min" stroke="none" stroke-width="1" fill="none" fill-rule="evenodd">
        <polygon id="Path" points="0 0 22 0 22 22 0 22"></polygon>
        <path d="M16.9583333,3.20833333 L16.9583333,4.58333333 L15.8116667,4.58333333 L15.8125,7.5068777 L11.9296667,10.9793333 L15.8125,14.455831 L15.8116667,17.4163333 L16.9583333,17.4166667 L16.9583333,18.7916667 L5.04166667,18.7916667 L5.04166667,17.4166667 L6.18666667,17.4163333 L6.1875,14.455831 L10.0686667,10.9793333 L6.1875,7.5068777 L6.18666667,4.58333333 L5.04166667,4.58333333 L5.04166667,3.20833333 L16.9583333,3.20833333 Z M10.9996667,11.8113333 L7.390625,15.041006 L7.38966667,16.2703333 L14.6086667,16.2703333 L14.609375,15.041006 L10.9996667,11.8113333 Z M14.6066667,4.58333333 L7.39166667,4.58333333 L7.39366667,5.72833333 L14.6046667,5.72833333 L14.6066667,4.58333333 Z" id="Combined-Shape" fill="#EFEFEF" opacity="0.75"></path>
        <g id="text" transform="translate(2.566667, 1.500000)" fill-rule="nonzero">
            <path d="M1.63309042,16.4563193 L1.63309042,17.6147404 C1.63309042,18.1510507 1.64926487,18.4305321 1.695185,18.7108316 L1.79034045,19.2916667 L-0.586203031,19.2916667 L-0.493741125,18.7128016 C-0.447823641,18.4253315 -0.431327853,18.1387484 -0.431327853,17.6147404 L-0.431327853,13.5680486 C-0.431327853,13.0515198 -0.448580352,12.7436895 -0.494037339,12.4519877 L-0.583951518,11.875 L1.97560255,11.875 L2.05990772,12.2708494 C2.11306301,12.5204366 2.21489962,12.8283762 2.34684478,13.1345121 L3.62990759,16.0785224 L4.90645227,13.1349681 C5.05556104,12.7919042 5.126702,12.5677278 5.18338674,12.2787546 L5.26258692,11.875 L7.82445951,11.875 L7.74912408,12.4409721 C7.69935071,12.8149043 7.68482336,13.0618324 7.68482336,13.5680486 L7.68482336,17.6147404 C7.68482336,18.1755135 7.70036424,18.4411285 7.74620353,18.7065855 L7.84723574,19.2916667 L5.46778142,19.2916667 L5.5576956,18.714679 C5.60480127,18.4123975 5.62040509,18.1457067 5.62040509,17.6147404 L5.62065764,16.4744808 L4.96203477,17.9259037 C4.81112642,18.2589364 4.66370247,18.680967 4.61794519,18.8958173 L4.53364002,19.2916667 L2.69231743,19.2916667 L2.62277919,18.873731 C2.59032543,18.6786788 2.4732336,18.3451353 2.2818397,17.9074774 L1.63309042,16.4563193 Z M7.88622308,11.875 L10.3682833,11.875 L10.2702758,12.4579045 C10.2234789,12.7362315 10.2085248,12.9609238 10.2085248,13.4148869 L10.2085248,17.7517797 C10.2085248,18.2009352 10.22385,18.4326421 10.2702758,18.7087621 L10.3682833,19.2916667 L7.88133968,19.2916667 L7.97934718,18.7087621 C8.02577302,18.4326421 8.04109826,18.2009352 8.04109826,17.7517797 L8.04109826,13.4148869 C8.04109826,12.9568894 8.02771422,12.7608164 7.97868499,12.4538651 L7.88622308,11.875 Z M12.672138,15.6264427 L12.672138,17.5824958 C12.672138,18.072786 12.6937936,18.4369929 12.7354298,18.7185135 L12.8201979,19.2916667 L10.4004059,19.2916667 L10.493927,18.7120251 C10.5336661,18.4657235 10.5562156,18.0787802 10.5562156,17.5744347 L10.5562156,13.4148869 C10.5562156,13.0076733 10.5393313,12.7460523 10.4935062,12.4519877 L10.403592,11.875 L12.6704554,11.875 L12.7935206,12.1960248 C12.8467707,12.3349316 12.971105,12.5359373 13.2585223,12.9408035 L15.1314974,15.5895626 L15.1314974,13.4874372 C15.1314974,13.0162561 15.1139056,12.7205442 15.0697463,12.4579045 L14.9717388,11.875 L17.402295,11.875 L17.3098331,12.4538651 C17.2638647,12.7416535 17.2474198,13.0119099 17.2474198,13.4874372 L17.2474198,17.7517797 C17.2474198,18.1942301 17.2646654,18.4646887 17.3079636,18.7018764 L17.4156287,19.2916667 L15.1595784,19.2916667 L15.0184755,19.0266511 C14.8948646,18.7944882 14.765283,18.5926636 14.5020285,18.2175692 L12.672138,15.6264427 Z" id="MIN" stroke="#000000" fill="#000000"></path>
            <path d="M4.12891283,18.7916667 L3.11599866,18.7916667 C3.07307857,18.5337102 2.93573428,18.1548367 2.73830185,17.7034129 L1.50220321,14.9384422 C1.33910686,14.575691 1.2618507,14.3580402 1.06441828,13.7050879 C1.09875435,14.1323283 1.13309042,14.7933417 1.13309042,14.9706868 L1.13309042,17.6147404 C1.13309042,18.170959 1.15025846,18.4772822 1.20176257,18.7916667 L-1.44773082e-13,18.7916667 C0.0515041101,18.4692211 0.0686721468,18.1548367 0.0686721468,17.6147404 L0.0686721468,13.5680486 C0.0686721468,13.0440745 0.0515041101,12.7055067 -1.44773082e-13,12.375 L1.57087536,12.375 C1.63096349,12.6571399 1.74255573,12.9957077 1.88848404,13.3342755 L3.63103976,17.3326005 L5.36501147,13.3342755 C5.53669184,12.9392797 5.613948,12.6813233 5.67403613,12.375 L7.25349551,12.375 C7.2019914,12.7619347 7.18482336,13.0279523 7.18482336,13.5680486 L7.18482336,17.6147404 C7.18482336,18.2032035 7.2019914,18.4934045 7.25349551,18.7916667 L6.05173294,18.7916667 C6.10323705,18.46116 6.12040509,18.170959 6.12040509,17.6147404 L6.12040509,14.9384422 C6.15474116,14.2371231 6.18049321,13.826005 6.18907723,13.7050879 C6.07748499,14.1403894 5.91438865,14.5918132 5.79421239,14.8820142 L4.50660964,17.7195352 C4.33492927,18.0984087 4.18041694,18.5498325 4.12891283,18.7916667 Z M8.47242611,12.375 L9.7771969,12.375 C9.72569279,12.6813233 9.70852476,12.9312186 9.70852476,13.4148869 L9.70852476,17.7517797 C9.70852476,18.2273869 9.72569279,18.4853434 9.7771969,18.7916667 L8.47242611,18.7916667 C8.52393022,18.4853434 8.54109826,18.2273869 8.54109826,17.7517797 L8.54109826,13.4148869 C8.54109826,12.9150963 8.52393022,12.6974456 8.47242611,12.375 Z M16.816092,18.7916667 L15.4598171,18.7916667 C15.3138887,18.5175879 15.1593764,18.2838149 14.9104399,17.9291248 L12.6957631,14.7933417 C12.5326668,14.5515075 12.3180663,14.2048786 12.1120499,13.826005 C12.1206339,13.938861 12.1206339,13.938861 12.146386,14.2371231 C12.15497,14.3902848 12.172138,14.753036 12.172138,14.9384422 L12.172138,17.5824958 C12.172138,18.1225921 12.1978901,18.5014657 12.2408102,18.7916667 L10.9875435,18.7916667 C11.0304636,18.5256491 11.0562156,18.1225921 11.0562156,17.5744347 L11.0562156,13.4148869 C11.0562156,12.9957077 11.0390476,12.7055067 10.9875435,12.375 L12.3266504,12.375 C12.4039065,12.5765285 12.5584189,12.8183626 12.8502755,13.2294807 L15.0220321,16.3007747 C15.2280486,16.5909757 15.5027371,17.0101549 15.6915855,17.3326005 C15.6572495,17.0182161 15.6314974,16.5345477 15.6314974,16.1959799 L15.6314974,13.4874372 C15.6314974,13.01183 15.6143294,12.6813233 15.5628253,12.375 L16.816092,12.375 C16.7645878,12.6974456 16.7474198,12.9957077 16.7474198,13.4874372 L16.7474198,17.7517797 C16.7474198,18.2032035 16.7645878,18.5095268 16.816092,18.7916667 Z" id="MIN" stroke="#FFFFFF" stroke-width="0.4" fill="#FFFFFF"></path>
            <path d="M6.84707914,4.32410533 C7.56537202,4.7962403 8.00908729,5.580395 8.00908729,6.57663897 C8.00908729,8.42671078 6.49314475,9.66666667 4.34177636,9.66666667 C2.7309573,9.66666667 1.69724541,9.03538706 0.889894753,7.86326621 L0.622873248,7.47560136 L2.49244737,6.01422917 L2.78461391,6.49454011 C3.20630828,7.18778999 3.6080265,7.46052632 4.34177636,7.46052632 C5.14903993,7.46052632 5.52083276,7.13296852 5.52083276,6.50046168 L5.52083276,6.41158818 C5.52083276,5.8193953 5.13604606,5.51500462 4.26545561,5.51500462 L2.82416642,5.51500462 L2.82416642,3.29616805 L4.22729524,3.29616805 C5.00955517,3.29616805 5.34275102,3.02100635 5.34275102,2.55193906 L5.34275102,2.46306556 C5.34275102,1.97086639 5.03823391,1.70614035 4.43081723,1.70614035 C3.8118348,1.70614035 3.36929894,1.97813704 3.02693617,2.54410951 L2.72020551,3.05117724 L0.97907368,1.54503276 L1.23353558,1.17615184 C1.97588448,0.100005069 2.9931899,-0.5 4.4689776,-0.5 C6.44814165,-0.5 7.8564458,0.578252393 7.8564458,2.28531856 C7.8564458,3.15443296 7.47127231,3.86660997 6.84707914,4.32410533 Z M12.3427345,9.66666667 C9.86788272,9.66666667 8.62454307,7.82011468 8.62454307,4.58333333 C8.62454307,1.34655199 9.86788272,-0.5 12.3427345,-0.5 C14.8175863,-0.5 16.0609259,1.34655199 16.0609259,4.58333333 C16.0609259,7.82011468 14.8175863,9.66666667 12.3427345,9.66666667 Z M12.3427345,7.4478301 C13.1513171,7.4478301 13.534511,6.80056703 13.534511,5.3578024 L13.534511,3.80886427 C13.534511,2.36609963 13.1513171,1.71883657 12.3427345,1.71883657 C11.5341519,1.71883657 11.150958,2.36609963 11.150958,3.80886427 L11.150958,5.3578024 C11.150958,6.80056703 11.5341519,7.4478301 12.3427345,7.4478301 Z" id="30" stroke="#000000" fill="#000000"></path>
            <path d="M3.32416642,3.79616805 L4.22729524,3.79616805 C5.32122592,3.79616805 5.84275102,3.27562327 5.84275102,2.55193906 L5.84275102,2.46306556 C5.84275102,1.66320406 5.28306555,1.20614035 4.43081723,1.20614035 C3.59128903,1.20614035 3.00616331,1.61241921 2.59911934,2.28531856 L1.64511002,1.46006464 C2.17935524,0.685595568 2.99344319,3.8191672e-14 4.4689776,3.8191672e-14 C6.148034,3.8191672e-14 7.3564458,0.850646353 7.3564458,2.28531856 C7.3564458,3.41528163 6.58051822,4.11357341 5.65194915,4.31671283 L5.65194915,4.38019391 C6.65683897,4.57063712 7.50908729,5.29432133 7.50908729,6.57663897 C7.50908729,8.1255771 6.23707487,9.16666667 4.34177636,9.16666667 C2.68816021,9.16666667 1.86135213,8.3921976 1.30166667,7.57963989 L2.35743698,6.75438596 C2.7899212,7.46537396 3.31144629,7.96052632 4.34177636,7.96052632 C5.42298692,7.96052632 6.02083276,7.4145891 6.02083276,6.50046168 L6.02083276,6.41158818 C6.02083276,5.51015697 5.38482654,5.01500462 4.26545561,5.01500462 L3.32416642,5.01500462 L3.32416642,3.79616805 Z M12.3427345,9.16666667 C10.1294329,9.16666667 9.12454307,7.47807018 9.12454307,4.58333333 C9.12454307,1.68859649 10.1294329,3.8191672e-14 12.3427345,3.8191672e-14 C14.5560361,3.8191672e-14 15.5609259,1.68859649 15.5609259,4.58333333 C15.5609259,7.47807018 14.5560361,9.16666667 12.3427345,9.16666667 Z M12.3427345,7.9478301 C13.5765865,7.9478301 14.034511,6.90674054 14.034511,5.3578024 L14.034511,3.80886427 C14.034511,2.25992613 13.5765865,1.21883657 12.3427345,1.21883657 C11.1088824,1.21883657 10.650958,2.25992613 10.650958,3.80886427 L10.650958,5.3578024 C10.650958,6.90674054 11.1088824,7.9478301 12.3427345,7.9478301 Z" id="30" stroke="#FFFFFF" stroke-width="0.4" fill="#FFFFFF"></path>
        </g>
    </g>
</svg>