<?xml version="1.0" encoding="UTF-8"?>
<svg width="22px" height="22px" viewBox="0 0 22 22" version="1.1" xmlns="http://www.w3.org/2000/svg" xmlns:xlink="http://www.w3.org/1999/xlink">
    <!-- Generator: Sketch 57.1 (83088) - https://sketch.com -->
    <title>30s-dark</title>
    <desc>Created with Sketch.</desc>
    <g id="30s-dark" stroke="none" stroke-width="1" fill="none" fill-rule="evenodd">
        <polygon id="Path" points="0 0 22 0 22 22 0 22"></polygon>
        <path d="M16.9583333,3.20833333 L16.9583333,4.58333333 L15.8116667,4.58333333 L15.8125,7.5068777 L11.9296667,10.9793333 L15.8125,14.455831 L15.8116667,17.4163333 L16.9583333,17.4166667 L16.9583333,18.7916667 L5.04166667,18.7916667 L5.04166667,17.4166667 L6.18666667,17.4163333 L6.1875,14.455831 L10.0686667,10.9793333 L6.1875,7.5068777 L6.18666667,4.58333333 L5.04166667,4.58333333 L5.04166667,3.20833333 L16.9583333,3.20833333 Z M10.9996667,11.8113333 L7.390625,15.041006 L7.38966667,16.2703333 L14.6086667,16.2703333 L14.609375,15.041006 L10.9996667,11.8113333 Z M14.6066667,4.58333333 L7.39166667,4.58333333 L7.39366667,5.72833333 L14.6046667,5.72833333 L14.6066667,4.58333333 Z" id="Combined-Shape" fill="#B3B3B3"></path>
        <path d="M6.39462363,10.7985251 C6.42250382,10.8200938 6.44965605,10.8425788 6.4766441,10.8664058 C6.56689484,10.9460857 6.62445737,11.0073205 6.80919907,11.2131791 C7.22513612,11.6795327 7.41358315,12.2179528 7.41358315,12.9188904 C7.41358315,13.5850501 7.13467158,14.2604866 6.66361502,14.7314219 C6.01178667,15.3595474 5.05003204,15.6772179 3.86931791,15.6772179 C2.60628067,15.6772179 1.80760067,15.3493413 1.1220064,14.567493 C0.978087859,14.4063042 0.819863891,14.102669 0.604538551,13.6048755 L0.563445807,13.4063708 L0.563445807,12.812614 L2.55071573,12.2137978 L2.68905989,12.7033233 C2.79306619,13.0713456 2.83252881,13.1404052 2.98492452,13.2623394 C3.22280123,13.4497575 3.51174177,13.5430799 3.87926649,13.5430799 C4.60707247,13.5430799 4.99093632,13.2342827 4.99093632,12.7497646 C4.99093632,12.46226 4.87930552,12.2522179 4.68188038,12.1370532 C4.52779194,12.0471683 4.1429446,11.9663979 3.78972928,11.9663979 C3.33838767,11.9663979 3.08073798,11.9777648 2.78365193,12.0127161 L2.2252313,12.0784126 L2.2252313,9.71612582 L2.78724867,9.78637799 C3.07547762,9.82240661 3.27089973,9.83225983 3.69024349,9.83225983 C4.43111562,9.83225983 4.77206758,9.56794386 4.77206758,9.10858458 C4.77206758,8.72040999 4.54524663,8.53413803 3.95885513,8.53413803 C3.58914586,8.53413803 3.33842499,8.60676062 3.21883472,8.7050437 C3.08364009,8.83347861 3.02943598,8.93146295 2.93648837,9.24903396 L2.78944806,9.7514217 L0.631600982,9.01092111 L0.714763477,8.58371923 C0.876553945,7.75260911 1.04733338,7.50409404 1.68547406,7.04246093 C2.28269341,6.60918415 3.03059837,6.4 3.92900939,6.4 C5.84319784,6.4 7.16486867,7.42834963 7.16486867,9.02899595 C7.16486867,9.72661448 6.88005675,10.3800679 6.39462363,10.7985251 Z M10.9925006,15.6573207 C10.0204824,15.6573207 9.17537036,15.330664 8.5497456,14.7050392 C8.1995086,14.3548022 7.9309324,13.9443936 7.7771834,13.5186123 C7.49940659,12.760068 7.35869818,11.9266412 7.35869818,11.0585061 C7.35869818,9.91618454 7.61787229,8.73618006 8.03681505,8.04550179 C8.665839,6.99712854 9.72511999,6.41989716 11.0024492,6.41989716 C11.9765166,6.41989716 12.8307151,6.74774095 13.4551528,7.37217868 C13.8053898,7.72241569 14.073966,8.13282426 14.2269183,8.55644531 C14.5040623,9.30260216 14.6462002,10.15543 14.6462002,11.038609 C14.6462002,12.3587424 14.3526083,13.5331101 13.8161672,14.2749918 C13.1637883,15.1836624 12.1864933,15.6573207 10.9925006,15.6573207 Z M11.0024492,13.5032856 C11.3092776,13.5032856 11.5624431,13.4051194 11.7157418,13.2396595 C12.054821,12.8855101 12.2732963,12.080601 12.2732963,11.0286604 C12.2732963,9.98963515 12.0569132,9.19926742 11.7031911,8.81400601 C11.5689697,8.66300692 11.3101197,8.56398377 10.9925006,8.56398377 C10.6622671,8.56398377 10.4556925,8.6581368 10.2599529,8.89433243 C9.9119441,9.30561555 9.72165353,10.0083932 9.72165353,10.9888661 C9.72165353,11.9347417 9.88878719,12.7107195 10.1377723,13.0686511 C10.3500579,13.3699598 10.6136088,13.5032856 11.0024492,13.5032856 Z M14.4216293,12.236815 L16.8775161,11.9809935 L16.9224612,12.4866259 C16.9550348,12.8530792 16.9887806,12.9602716 17.1004607,13.1030341 C17.2847125,13.3444675 17.6531644,13.493337 18.1554777,13.493337 C18.9003356,13.493337 19.2472503,13.2331509 19.2472503,12.7995075 C19.2472503,12.5715999 19.1544865,12.4022052 19.0145273,12.3254147 C18.9674593,12.3003117 18.9369373,12.2846594 18.9091652,12.2714917 C18.8765507,12.2560281 18.8465687,12.2435288 18.8112248,12.2308372 C18.6587285,12.1760773 18.5243899,12.1432119 17.4082391,11.884388 C16.5933309,11.6996755 16.1334977,11.5142977 15.7079632,11.1833212 C15.0791466,10.6901317 14.7504925,9.99772465 14.7504925,9.17822464 C14.7504925,7.4936498 16.1081268,6.4 18.075889,6.4 C19.3551302,6.4 20.3621255,6.80881004 20.9516313,7.60287766 C21.180658,7.90519284 21.3145603,8.32307326 21.3727957,8.85757827 L21.41996,9.29046851 L19.2188786,9.84385221 L19.125527,9.3148602 C19.0797188,9.05528032 19.0433697,8.96882846 18.9363657,8.84292454 C18.7814565,8.65822519 18.4846962,8.54408661 18.075889,8.54408661 C17.4598113,8.54408661 17.1233965,8.79516697 17.1233965,9.12848174 C17.1233965,9.33205605 17.2121963,9.45045587 17.4892163,9.57102897 C17.6690857,9.64461191 17.7371879,9.66198026 18.8078366,9.90314083 C19.6286309,10.0797674 20.1765996,10.2875281 20.6208674,10.5962867 C21.2850563,11.085689 21.4866848,11.6707093 21.4866848,12.6801245 C21.4866848,13.6892806 21.3559689,14.2756061 20.8699297,14.7615146 C20.2388792,15.3687518 19.3303158,15.6573207 18.1455291,15.6573207 C17.2408409,15.6573207 16.3486733,15.435817 15.776591,15.054419 C15.2940558,14.7287077 14.9407874,14.2697607 14.7152311,13.6880563 C14.6123408,13.4251144 14.5644386,13.2126788 14.4970989,12.7525241 L14.4216293,12.236815 Z" id="30S" stroke="#FFFFFF" fill="#FFFFFF" fill-rule="nonzero"></path>
        <path d="M0.75,13.1591597 L2.18209575,12.8787494 C2.31228627,13.3394235 2.40241817,13.499658 2.65278456,13.6999511 C2.9832682,13.9603322 3.38385442,14.0905227 3.86455789,14.0905227 C4.85600879,14.0905227 5.4869321,13.5797753 5.4869321,12.7886175 C5.4869321,12.3279433 5.28663898,11.9473864 4.92611138,11.7370787 C4.68575965,11.5968735 4.21507084,11.4967269 3.77442599,11.4967269 C3.33378114,11.4967269 3.04335613,11.5067416 2.70285784,11.5468002 L2.70285784,10.3049829 C3.02332682,10.3450415 3.24364924,10.3550562 3.67427943,10.3550562 C4.67574499,10.3550562 5.26660967,9.89438202 5.26660967,9.12325354 C5.26660967,8.43224231 4.79592086,8.04167074 3.94467513,8.04167074 C3.45395701,8.04167074 3.09342941,8.15183195 2.85307767,8.35212506 C2.65278456,8.54240352 2.55263801,8.71265266 2.43246214,9.12325354 L1.00036639,8.88290181 C1.25073278,8.14181729 1.48106986,7.79130435 1.95175867,7.45080606 C2.46250611,7.0802638 3.11345872,6.9 3.91463117,6.9 C5.58707865,6.9 6.66866146,7.74123107 6.66866146,9.0431363 C6.66866146,9.64401563 6.40828041,10.1948217 5.97765022,10.5152907 C5.7573278,10.6855398 5.53700537,10.7656571 5.00622863,10.9058622 C5.71726917,11.0160234 6.08781143,11.1862726 6.43832438,11.5768442 C6.76880801,11.9473864 6.91902785,12.368002 6.91902785,12.9588666 C6.91902785,13.499658 6.68869077,14.0504641 6.31814851,14.4210064 C5.76734245,14.9517831 4.92611138,15.2321935 3.85454323,15.2321935 C2.68282853,15.2321935 1.88165608,14.9317538 1.31082071,14.2808012 C1.06045432,14.0003908 0.930263801,13.7400098 0.75,13.1591597 Z M11.0250366,15.2121641 C10.1737909,15.2121641 9.45273571,14.9317538 8.92195896,14.400977 C8.6215193,14.1005374 8.39118222,13.7500244 8.2609917,13.3894968 C8.00061065,12.6784563 7.87042013,11.8973131 7.87042013,11.086126 C7.87042013,10.0245725 8.11077186,8.92296043 8.48131412,8.31206644 C9.02210552,7.41074744 9.92342452,6.92002931 11.0350513,6.92002931 C11.886297,6.92002931 12.6173669,7.20043967 13.1481436,7.73121641 C13.4485833,8.03165608 13.6789204,8.38216903 13.8091109,8.74269663 C14.0694919,9.44372252 14.1996825,10.244895 14.1996825,11.0660967 C14.1996825,12.2978994 13.9292868,13.3794822 13.4585979,14.0304348 C12.8977772,14.8115779 12.0665608,15.2121641 11.0250366,15.2121641 Z M11.0350513,14.0504641 C11.4756961,14.0504641 11.8662677,13.9002443 12.1166341,13.6298486 C12.5672936,13.1591597 12.81766,12.2277968 12.81766,11.0560821 C12.81766,9.89438202 12.5672936,8.98304836 12.1166341,8.49233024 C11.8762824,8.22193454 11.4756961,8.0717147 11.0250366,8.0717147 C10.5443332,8.0717147 10.1938202,8.23194919 9.90339521,8.58246214 C9.46275037,9.10322423 9.24242794,9.92442599 9.24242794,11.0160234 C9.24242794,12.0675623 9.4327064,12.9388373 9.75317538,13.3995115 C10.0636297,13.8401563 10.4842452,14.0504641 11.0350513,14.0504641 Z M15.0509282,12.7185149 L16.4930386,12.5682951 C16.5330972,13.0189546 16.5931851,13.2192477 16.7734489,13.4495848 C17.063874,13.8301417 17.5846361,14.0404494 18.2355887,14.0404494 C19.2370542,14.0404494 19.8379336,13.5897899 19.8379336,12.8386908 C19.8379336,12.4280899 19.6476551,12.0875916 19.3372008,11.9173425 C19.0367611,11.757108 18.9766732,11.7470933 17.5946507,11.4266243 C16.8435515,11.2563752 16.4429653,11.0961407 16.0824377,10.8157303 C15.5716903,10.4151441 15.3113092,9.86433806 15.3113092,9.19335613 C15.3113092,7.801319 16.4329507,6.9 18.1554714,6.9 C19.2971422,6.9 20.1584025,7.25051295 20.6491207,7.91148021 C20.8994871,8.24196385 21.0196629,8.54240352 21.1398388,9.07318026 L19.707743,9.24342941 C19.6476551,8.90293112 19.5775525,8.73268197 19.4073034,8.53238886 C19.1469223,8.22193454 18.7062775,8.05168539 18.1554714,8.05168539 C17.2841964,8.05168539 16.6933317,8.49233024 16.6933317,9.14328285 C16.6933317,9.56389839 16.9136541,9.8543234 17.3743283,10.0546165 C17.5946507,10.1447484 17.674768,10.1647777 18.7863947,10.4151441 C19.5775525,10.5853933 20.058256,10.7756717 20.4187836,11.0260381 C20.989619,11.4466536 21.25,11.9974597 21.25,12.7485589 C21.25,13.4595994 21.0296776,14.0404494 20.6190767,14.4510503 C20.0883,14.9617978 19.2971422,15.2121641 18.225574,15.2121641 C17.4043723,15.2121641 16.6031998,15.011871 16.1224963,14.6914021 C15.7219101,14.4210064 15.4314851,14.0404494 15.2412066,13.5497313 C15.1510747,13.3193942 15.1110161,13.1291158 15.0509282,12.7185149 Z" id="30S" stroke="#000000" stroke-width="0.4" fill="#000000" fill-rule="nonzero"></path>
    </g>
</svg>