<?xml version="1.0" encoding="UTF-8"?>
<svg width="22px" height="22px" viewBox="0 0 22 22" version="1.1" xmlns="http://www.w3.org/2000/svg" xmlns:xlink="http://www.w3.org/1999/xlink">
    <!-- Generator: Sketch 57.1 (83088) - https://sketch.com -->
    <title>30s-dark</title>
    <desc>Created with Sketch.</desc>
    <g id="30s-dark" stroke="none" stroke-width="1" fill="none" fill-rule="evenodd">
        <polygon id="Path" points="0 0 22 0 22 22 0 22"></polygon>
        <path d="M16.9583333,3.20833333 L16.9583333,4.58333333 L15.8116667,4.58333333 L15.8125,7.5068777 L11.9296667,10.9793333 L15.8125,14.455831 L15.8116667,17.4163333 L16.9583333,17.4166667 L16.9583333,18.7916667 L5.04166667,18.7916667 L5.04166667,17.4166667 L6.18666667,17.4163333 L6.1875,14.455831 L10.0686667,10.9793333 L6.1875,7.5068777 L6.18666667,4.58333333 L5.04166667,4.58333333 L5.04166667,3.20833333 L16.9583333,3.20833333 Z M10.9996667,11.8113333 L7.390625,15.041006 L7.38966667,16.2703333 L14.6086667,16.2703333 L14.609375,15.041006 L10.9996667,11.8113333 Z M14.6066667,4.58333333 L7.39166667,4.58333333 L7.39366667,5.72833333 L14.6046667,5.72833333 L14.6066667,4.58333333 Z" id="Combined-Shape" fill="#B3B3B3"></path>
        <path d="M6.39462363,11.3985251 C6.42250382,11.4200938 6.44965605,11.4425788 6.4766441,11.4664058 C6.56689484,11.5460857 6.62445737,11.6073205 6.80919907,11.8131791 C7.22513612,12.2795327 7.41358315,12.8179528 7.41358315,13.5188904 C7.41358315,14.1850501 7.13467158,14.8604866 6.66361502,15.3314219 C6.01178667,15.9595474 5.05003204,16.2772179 3.86931791,16.2772179 C2.60628067,16.2772179 1.80760067,15.9493413 1.1220064,15.167493 C0.978087859,15.0063042 0.819863891,14.702669 0.604538551,14.2048755 L0.563445807,14.0063708 L0.563445807,13.412614 L2.55071573,12.8137978 L2.68905989,13.3033233 C2.79306619,13.6713456 2.83252881,13.7404052 2.98492452,13.8623394 C3.22280123,14.0497575 3.51174177,14.1430799 3.87926649,14.1430799 C4.60707247,14.1430799 4.99093632,13.8342827 4.99093632,13.3497646 C4.99093632,13.06226 4.87930552,12.8522179 4.68188038,12.7370532 C4.52779194,12.6471683 4.1429446,12.5663979 3.78972928,12.5663979 C3.33838767,12.5663979 3.08073798,12.5777648 2.78365193,12.6127161 L2.2252313,12.6784126 L2.2252313,10.3161258 L2.78724867,10.386378 C3.07547762,10.4224066 3.27089973,10.4322598 3.69024349,10.4322598 C4.43111562,10.4322598 4.77206758,10.1679439 4.77206758,9.70858458 C4.77206758,9.32040999 4.54524663,9.13413803 3.95885513,9.13413803 C3.58914586,9.13413803 3.33842499,9.20676062 3.21883472,9.3050437 C3.08364009,9.43347861 3.02943598,9.53146295 2.93648837,9.84903396 L2.78944806,10.3514217 L0.631600982,9.61092111 L0.714763477,9.18371923 C0.876553945,8.35260911 1.04733338,8.10409404 1.68547406,7.64246093 C2.28269341,7.20918415 3.03059837,7 3.92900939,7 C5.84319784,7 7.16486867,8.02834963 7.16486867,9.62899595 C7.16486867,10.3266145 6.88005675,10.9800679 6.39462363,11.3985251 Z M10.9925006,16.2573207 C10.0204824,16.2573207 9.17537036,15.930664 8.5497456,15.3050392 C8.1995086,14.9548022 7.9309324,14.5443936 7.7771834,14.1186123 C7.49940659,13.360068 7.35869818,12.5266412 7.35869818,11.6585061 C7.35869818,10.5161845 7.61787229,9.33618006 8.03681505,8.64550179 C8.665839,7.59712854 9.72511999,7.01989716 11.0024492,7.01989716 C11.9765166,7.01989716 12.8307151,7.34774095 13.4551528,7.97217868 C13.8053898,8.32241569 14.073966,8.73282426 14.2269183,9.15644531 C14.5040623,9.90260216 14.6462002,10.75543 14.6462002,11.638609 C14.6462002,12.9587424 14.3526083,14.1331101 13.8161672,14.8749918 C13.1637883,15.7836624 12.1864933,16.2573207 10.9925006,16.2573207 Z M11.0024492,14.1032856 C11.3092776,14.1032856 11.5624431,14.0051194 11.7157418,13.8396595 C12.054821,13.4855101 12.2732963,12.680601 12.2732963,11.6286604 C12.2732963,10.5896352 12.0569132,9.79926742 11.7031911,9.41400601 C11.5689697,9.26300692 11.3101197,9.16398377 10.9925006,9.16398377 C10.6622671,9.16398377 10.4556925,9.2581368 10.2599529,9.49433243 C9.9119441,9.90561555 9.72165353,10.6083932 9.72165353,11.5888661 C9.72165353,12.5347417 9.88878719,13.3107195 10.1377723,13.6686511 C10.3500579,13.9699598 10.6136088,14.1032856 11.0024492,14.1032856 Z M14.4216293,12.836815 L16.8775161,12.5809935 L16.9224612,13.0866259 C16.9550348,13.4530792 16.9887806,13.5602716 17.1004607,13.7030341 C17.2847125,13.9444675 17.6531644,14.093337 18.1554777,14.093337 C18.9003356,14.093337 19.2472503,13.8331509 19.2472503,13.3995075 C19.2472503,13.1715999 19.1544865,13.0022052 19.0145273,12.9254147 C18.9674593,12.9003117 18.9369373,12.8846594 18.9091652,12.8714917 C18.8765507,12.8560281 18.8465687,12.8435288 18.8112248,12.8308372 C18.6587285,12.7760773 18.5243899,12.7432119 17.4082391,12.484388 C16.5933309,12.2996755 16.1334977,12.1142977 15.7079632,11.7833212 C15.0791466,11.2901317 14.7504925,10.5977247 14.7504925,9.77822464 C14.7504925,8.0936498 16.1081268,7 18.075889,7 C19.3551302,7 20.3621255,7.40881004 20.9516313,8.20287766 C21.180658,8.50519284 21.3145603,8.92307326 21.3727957,9.45757827 L21.41996,9.89046851 L19.2188786,10.4438522 L19.125527,9.9148602 C19.0797188,9.65528032 19.0433697,9.56882846 18.9363657,9.44292454 C18.7814565,9.25822519 18.4846962,9.14408661 18.075889,9.14408661 C17.4598113,9.14408661 17.1233965,9.39516697 17.1233965,9.72848174 C17.1233965,9.93205605 17.2121963,10.0504559 17.4892163,10.171029 C17.6690857,10.2446119 17.7371879,10.2619803 18.8078366,10.5031408 C19.6286309,10.6797674 20.1765996,10.8875281 20.6208674,11.1962867 C21.2850563,11.685689 21.4866848,12.2707093 21.4866848,13.2801245 C21.4866848,14.2892806 21.3559689,14.8756061 20.8699297,15.3615146 C20.2388792,15.9687518 19.3303158,16.2573207 18.1455291,16.2573207 C17.2408409,16.2573207 16.3486733,16.035817 15.776591,15.654419 C15.2940558,15.3287077 14.9407874,14.8697607 14.7152311,14.2880563 C14.6123408,14.0251144 14.5644386,13.8126788 14.4970989,13.3525241 L14.4216293,12.836815 Z" id="30S" stroke="#FFFFFF" fill="#FFFFFF" fill-rule="nonzero"></path>
        <path d="M0.75,13.7591597 L2.18209575,13.4787494 C2.31228627,13.9394235 2.40241817,14.099658 2.65278456,14.2999511 C2.9832682,14.5603322 3.38385442,14.6905227 3.86455789,14.6905227 C4.85600879,14.6905227 5.4869321,14.1797753 5.4869321,13.3886175 C5.4869321,12.9279433 5.28663898,12.5473864 4.92611138,12.3370787 C4.68575965,12.1968735 4.21507084,12.0967269 3.77442599,12.0967269 C3.33378114,12.0967269 3.04335613,12.1067416 2.70285784,12.1468002 L2.70285784,10.9049829 C3.02332682,10.9450415 3.24364924,10.9550562 3.67427943,10.9550562 C4.67574499,10.9550562 5.26660967,10.494382 5.26660967,9.72325354 C5.26660967,9.03224231 4.79592086,8.64167074 3.94467513,8.64167074 C3.45395701,8.64167074 3.09342941,8.75183195 2.85307767,8.95212506 C2.65278456,9.14240352 2.55263801,9.31265266 2.43246214,9.72325354 L1.00036639,9.48290181 C1.25073278,8.74181729 1.48106986,8.39130435 1.95175867,8.05080606 C2.46250611,7.6802638 3.11345872,7.5 3.91463117,7.5 C5.58707865,7.5 6.66866146,8.34123107 6.66866146,9.6431363 C6.66866146,10.2440156 6.40828041,10.7948217 5.97765022,11.1152907 C5.7573278,11.2855398 5.53700537,11.3656571 5.00622863,11.5058622 C5.71726917,11.6160234 6.08781143,11.7862726 6.43832438,12.1768442 C6.76880801,12.5473864 6.91902785,12.968002 6.91902785,13.5588666 C6.91902785,14.099658 6.68869077,14.6504641 6.31814851,15.0210064 C5.76734245,15.5517831 4.92611138,15.8321935 3.85454323,15.8321935 C2.68282853,15.8321935 1.88165608,15.5317538 1.31082071,14.8808012 C1.06045432,14.6003908 0.930263801,14.3400098 0.75,13.7591597 Z M11.0250366,15.8121641 C10.1737909,15.8121641 9.45273571,15.5317538 8.92195896,15.000977 C8.6215193,14.7005374 8.39118222,14.3500244 8.2609917,13.9894968 C8.00061065,13.2784563 7.87042013,12.4973131 7.87042013,11.686126 C7.87042013,10.6245725 8.11077186,9.52296043 8.48131412,8.91206644 C9.02210552,8.01074744 9.92342452,7.52002931 11.0350513,7.52002931 C11.886297,7.52002931 12.6173669,7.80043967 13.1481436,8.33121641 C13.4485833,8.63165608 13.6789204,8.98216903 13.8091109,9.34269663 C14.0694919,10.0437225 14.1996825,10.844895 14.1996825,11.6660967 C14.1996825,12.8978994 13.9292868,13.9794822 13.4585979,14.6304348 C12.8977772,15.4115779 12.0665608,15.8121641 11.0250366,15.8121641 Z M11.0350513,14.6504641 C11.4756961,14.6504641 11.8662677,14.5002443 12.1166341,14.2298486 C12.5672936,13.7591597 12.81766,12.8277968 12.81766,11.6560821 C12.81766,10.494382 12.5672936,9.58304836 12.1166341,9.09233024 C11.8762824,8.82193454 11.4756961,8.6717147 11.0250366,8.6717147 C10.5443332,8.6717147 10.1938202,8.83194919 9.90339521,9.18246214 C9.46275037,9.70322423 9.24242794,10.524426 9.24242794,11.6160234 C9.24242794,12.6675623 9.4327064,13.5388373 9.75317538,13.9995115 C10.0636297,14.4401563 10.4842452,14.6504641 11.0350513,14.6504641 Z M15.0509282,13.3185149 L16.4930386,13.1682951 C16.5330972,13.6189546 16.5931851,13.8192477 16.7734489,14.0495848 C17.063874,14.4301417 17.5846361,14.6404494 18.2355887,14.6404494 C19.2370542,14.6404494 19.8379336,14.1897899 19.8379336,13.4386908 C19.8379336,13.0280899 19.6476551,12.6875916 19.3372008,12.5173425 C19.0367611,12.357108 18.9766732,12.3470933 17.5946507,12.0266243 C16.8435515,11.8563752 16.4429653,11.6961407 16.0824377,11.4157303 C15.5716903,11.0151441 15.3113092,10.4643381 15.3113092,9.79335613 C15.3113092,8.401319 16.4329507,7.5 18.1554714,7.5 C19.2971422,7.5 20.1584025,7.85051295 20.6491207,8.51148021 C20.8994871,8.84196385 21.0196629,9.14240352 21.1398388,9.67318026 L19.707743,9.84342941 C19.6476551,9.50293112 19.5775525,9.33268197 19.4073034,9.13238886 C19.1469223,8.82193454 18.7062775,8.65168539 18.1554714,8.65168539 C17.2841964,8.65168539 16.6933317,9.09233024 16.6933317,9.74328285 C16.6933317,10.1638984 16.9136541,10.4543234 17.3743283,10.6546165 C17.5946507,10.7447484 17.674768,10.7647777 18.7863947,11.0151441 C19.5775525,11.1853933 20.058256,11.3756717 20.4187836,11.6260381 C20.989619,12.0466536 21.25,12.5974597 21.25,13.3485589 C21.25,14.0595994 21.0296776,14.6404494 20.6190767,15.0510503 C20.0883,15.5617978 19.2971422,15.8121641 18.225574,15.8121641 C17.4043723,15.8121641 16.6031998,15.611871 16.1224963,15.2914021 C15.7219101,15.0210064 15.4314851,14.6404494 15.2412066,14.1497313 C15.1510747,13.9193942 15.1110161,13.7291158 15.0509282,13.3185149 Z" id="30S" stroke="#000000" stroke-width="0.4" fill="#000000" fill-rule="nonzero"></path>
    </g>
</svg>