<?xml version="1.0" encoding="UTF-8"?>
<svg width="22px" height="22px" viewBox="0 0 22 22" version="1.1" xmlns="http://www.w3.org/2000/svg" xmlns:xlink="http://www.w3.org/1999/xlink">
    <!-- Generator: Sketch 57.1 (83088) - https://sketch.com -->
    <title>30s</title>
    <desc>Created with Sketch.</desc>
    <g id="30s" stroke="none" stroke-width="1" fill="none" fill-rule="evenodd">
        <polygon id="Path" points="0 0 22 0 22 22 0 22"></polygon>
        <path d="M16.9583333,3.20833333 L16.9583333,4.58333333 L15.8116667,4.58333333 L15.8125,7.5068777 L11.9296667,10.9793333 L15.8125,14.455831 L15.8116667,17.4163333 L16.9583333,17.4166667 L16.9583333,18.7916667 L5.04166667,18.7916667 L5.04166667,17.4166667 L6.18666667,17.4163333 L6.1875,14.455831 L10.0686667,10.9793333 L6.1875,7.5068777 L6.18666667,4.58333333 L5.04166667,4.58333333 L5.04166667,3.20833333 L16.9583333,3.20833333 Z M10.9996667,11.8113333 L7.390625,15.041006 L7.38966667,16.2703333 L14.6086667,16.2703333 L14.609375,15.041006 L10.9996667,11.8113333 Z M14.6066667,4.58333333 L7.39166667,4.58333333 L7.39366667,5.72833333 L14.6046667,5.72833333 L14.6066667,4.58333333 Z" id="Combined-Shape" fill="#EFEFEF" opacity="0.75"></path>
        <path d="M4.456,10.9126667 L2.944,10.9126667 L2.944,15.4166667 L1.728,15.4166667 L1.728,10.9126667 L0.216,10.9126667 L0.216,9.83266667 L4.456,9.83266667 L4.456,10.9126667 Z M7.328,15.5126667 C5.848,15.5126667 4.872,14.5206667 4.872,12.6246667 C4.872,10.7286667 5.848,9.73666667 7.328,9.73666667 C8.808,9.73666667 9.784,10.7286667 9.784,12.6246667 C9.784,14.5206667 8.808,15.5126667 7.328,15.5126667 Z M7.328,14.4326667 C8.056,14.4326667 8.496,13.9286667 8.496,13.0406667 L8.496,12.2086667 C8.496,11.3206667 8.056,10.8166667 7.328,10.8166667 C6.6,10.8166667 6.16,11.3206667 6.16,12.2086667 L6.16,13.0406667 C6.16,13.9286667 6.6,14.4326667 7.328,14.4326667 Z M10.8,15.4166667 L10.8,9.83266667 L12.904,9.83266667 C14.384,9.83266667 15.36,10.7686667 15.36,12.6246667 C15.36,14.4806667 14.384,15.4166667 12.904,15.4166667 L10.8,15.4166667 Z M12.016,14.3366667 L12.904,14.3366667 C13.624,14.3366667 14.072,13.9446667 14.072,13.0566667 L14.072,12.1926667 C14.072,11.3046667 13.624,10.9126667 12.904,10.9126667 L12.016,10.9126667 L12.016,14.3366667 Z M18.616,15.5126667 C17.136,15.5126667 16.16,14.5206667 16.16,12.6246667 C16.16,10.7286667 17.136,9.73666667 18.616,9.73666667 C20.096,9.73666667 21.072,10.7286667 21.072,12.6246667 C21.072,14.5206667 20.096,15.5126667 18.616,15.5126667 Z M18.616,14.4326667 C19.344,14.4326667 19.784,13.9286667 19.784,13.0406667 L19.784,12.2086667 C19.784,11.3206667 19.344,10.8166667 18.616,10.8166667 C17.888,10.8166667 17.448,11.3206667 17.448,12.2086667 L17.448,13.0406667 C17.448,13.9286667 17.888,14.4326667 18.616,14.4326667 Z" id="TODO" fill="#FF0014" fill-rule="nonzero"></path>
    </g>
</svg>