<?xml version="1.0" encoding="UTF-8"?>
<svg width="22px" height="22px" viewBox="0 0 22 22" version="1.1" xmlns="http://www.w3.org/2000/svg" xmlns:xlink="http://www.w3.org/1999/xlink">
    <!-- Generator: Sketch 57.1 (83088) - https://sketch.com -->
    <title>blank-dark</title>
    <desc>Created with Sketch.</desc>
    <g id="blank-dark" stroke="none" stroke-width="1" fill="none" fill-rule="evenodd">
        <path d="M16.9166667,3 L16.9166667,4.375 L15.77,4.375 L15.7708333,7.29854437 L11.888,10.771 L15.7708333,14.2474977 L15.77,17.208 L16.9166667,17.2083333 L16.9166667,18.5833333 L5,18.5833333 L5,17.2083333 L6.145,17.208 L6.14583333,14.2474977 L10.027,10.771 L6.14583333,7.29854437 L6.145,4.375 L5,4.375 L5,3 L16.9166667,3 Z M10.958,11.603 L7.34895833,14.8326727 L7.348,16.062 L14.567,16.062 L14.5677083,14.8326727 L10.958,11.603 Z M14.565,4.375 L7.35,4.375 L7.352,5.52 L14.563,5.52 L14.565,4.375 Z" id="Combined-Shape" fill="#B3B3B3"></path>
    </g>
</svg>