<?xml version="1.0" encoding="UTF-8"?>
<svg width="22px" height="22px" viewBox="0 0 22 22" version="1.1" xmlns="http://www.w3.org/2000/svg" xmlns:xlink="http://www.w3.org/1999/xlink">
    <!-- Generator: Sketch 57.1 (83088) - https://sketch.com -->
    <title>off-dark</title>
    <desc>Created with Sketch.</desc>
    <g id="off-dark" stroke="none" stroke-width="1" fill="none" fill-rule="evenodd">
        <polygon id="Path" points="0 0 22 0 22 22 0 22"></polygon>
        <path d="M16.9583333,3.20833333 L16.9583333,4.58333333 L15.8116667,4.58333333 L15.8125,7.5068777 L11.9296667,10.9793333 L15.8125,14.455831 L15.8116667,17.4163333 L16.9583333,17.4166667 L16.9583333,18.7916667 L5.04166667,18.7916667 L5.04166667,17.4166667 L6.18666667,17.4163333 L6.1875,14.455831 L10.0686667,10.9793333 L6.1875,7.5068777 L6.18666667,4.58333333 L5.04166667,4.58333333 L5.04166667,3.20833333 L16.9583333,3.20833333 Z M10.9996667,11.8113333 L7.390625,15.041006 L7.38966667,16.2703333 L14.6086667,16.2703333 L14.609375,15.041006 L10.9996667,11.8113333 Z M14.6066667,4.58333333 L7.39166667,4.58333333 L7.39366667,5.72833333 L14.6046667,5.72833333 L14.6066667,4.58333333 Z" id="Combined-Shape" fill="#B3B3B3"></path>
        <path d="M4.36953107,6.5 C5.55326288,6.5 6.49390446,6.87508675 7.23775291,7.65706978 C8.02810511,8.48794063 8.44264706,9.70296922 8.44264706,11.1269188 C8.44264706,13.9215938 6.83702255,15.8039216 4.37905937,15.8039216 C1.9198379,15.8039216 0.325,13.9302648 0.325,11.1269188 C0.325,9.70661263 0.752779353,8.47136985 1.5514735,7.65443699 C2.30407914,6.87471435 3.22488465,6.5 4.36953107,6.5 Z M4.40032722,13.6176471 C5.54543014,13.6176471 6.25259804,12.720737 6.25259804,11.1319224 C6.25259804,10.2500776 6.01602233,9.56403645 5.60458101,9.1574066 C5.28340503,8.84776924 4.87085113,8.68627451 4.39018812,8.68627451 C3.23213109,8.68627451 2.5075,9.5846478 2.5075,11.1419416 C2.5075,12.0174967 2.75587921,12.7315106 3.17579523,13.146515 C3.49762916,13.4567866 3.91054783,13.6176471 4.40032722,13.6176471 Z M10.9290261,12.2465753 L10.9290261,13.8147999 C10.9290261,14.5197441 10.9489792,14.8584909 11.0094642,15.2218127 L11.1063724,15.8039216 L8.29005371,15.8039216 L8.40010313,15.2124596 C8.45632888,14.9102736 8.47889273,14.5165038 8.47889273,13.8354821 L8.47889273,8.38571045 C8.47889273,7.85387043 8.46044825,7.57572308 8.39632893,7.10948587 L8.31445178,6.5141245 L8.91477471,6.54189876 C9.43741089,6.5660788 9.69018757,6.57238786 10.2763805,6.57238786 L13.3292928,6.57238786 C13.9680181,6.57238786 14.304157,6.55540988 14.7669407,6.50315701 L15.3230392,6.44036797 L15.3230392,8.96623512 L14.7577392,8.89176914 C14.3847548,8.84263656 13.998007,8.82366371 13.3292928,8.82366371 L10.9290261,8.82366371 L10.9290261,10.0159817 L12.7623234,10.0159817 C13.4031942,10.0159817 13.7702456,9.99765923 14.1848134,9.94724974 L14.7451665,9.87911343 L14.7451665,12.3871372 L14.1816025,12.3149064 C13.7999036,12.2659848 13.4042564,12.2465753 12.7623234,12.2465753 L10.9290261,12.2465753 Z M17.1893202,12.2465753 L17.1893202,13.8147999 C17.1893202,14.5197441 17.2092733,14.8584909 17.2697583,15.2218127 L17.3666665,15.8039216 L14.5503478,15.8039216 L14.6603973,15.2124596 C14.716623,14.9102736 14.7391869,14.5165038 14.7391869,13.8354821 L14.7391869,8.38571045 C14.7391869,7.85387043 14.7207424,7.57572308 14.656623,7.10948587 L14.5747459,6.5141245 L15.1750688,6.54189876 C15.697705,6.5660788 15.9504817,6.57238786 16.5366746,6.57238786 L19.5895869,6.57238786 C20.2283122,6.57238786 20.5644511,6.55540988 21.0272348,6.50315701 L21.5833333,6.44036797 L21.5833333,8.96623512 L21.0180333,8.89176914 C20.6450489,8.84263656 20.2583011,8.82366371 19.5895869,8.82366371 L17.1893202,8.82366371 L17.1893202,10.0159817 L19.0226175,10.0159817 C19.6634883,10.0159817 20.0305397,9.99765923 20.4451075,9.94724974 L21.0054606,9.87911343 L21.0054606,12.3871372 L20.4418966,12.3149064 C20.0601977,12.2659848 19.6645506,12.2465753 19.0226175,12.2465753 L17.1893202,12.2465753 Z" id="OFF" stroke="#FFFFFF" fill="#FFFFFF" fill-rule="nonzero"></path>
        <path d="M4.36953107,7 C5.41764509,7 6.22755138,7.32053738 6.87547642,8.00167932 C7.571043,8.73290522 7.94264706,9.82473568 7.94264706,11.1269188 C7.94264706,13.6611675 6.54198559,15.3039216 4.37905937,15.3039216 C2.21613316,15.3039216 0.825,13.6711843 0.825,11.1269188 C0.825,9.83475248 1.20613237,8.72288843 1.91122726,8.00167932 C2.5686806,7.32053738 3.35953028,7 4.36953107,7 Z M4.40032722,14.1176471 C5.85021828,14.1176471 6.75259804,12.9754571 6.75259804,11.1319224 C6.75259804,10.1199821 6.46870328,9.30842607 5.95160927,8.79744634 C5.53590623,8.39667793 4.99853402,8.18627451 4.39018812,8.18627451 C2.93015795,8.18627451 2.0075,9.32846449 2.0075,11.1419416 C2.0075,12.1438626 2.30153385,12.9854763 2.82876697,13.5064752 C3.24447,13.9072436 3.78184222,14.1176471 4.40032722,14.1176471 Z M10.4290261,11.7465753 L10.4290261,13.8147999 C10.4290261,14.5490196 10.4508326,14.9109589 10.5162522,15.3039216 L8.89166667,15.3039216 C8.95708622,14.9523234 8.97889273,14.5179962 8.97889273,13.8354821 L8.97889273,8.38571045 C8.97889273,7.8169487 8.95708622,7.51705614 8.89166667,7.04136449 C9.33870026,7.06204674 9.61128172,7.07238786 10.2763805,7.07238786 L12.7623234,7.07238786 C13.4492287,7.07238786 14.009503,7.05170561 14.4674399,7 L14.4674399,8.38571045 C14.0749226,8.33400483 13.4601319,8.32366371 12.7623234,8.32366371 L10.4290261,8.32366371 L10.4290261,10.5159817 L12.7623234,10.5159817 C13.4383254,10.5159817 13.8199394,10.4952995 14.2451665,10.4435939 L14.2451665,11.8189632 C13.841746,11.7672576 13.4274221,11.7465753 12.7623234,11.7465753 L10.4290261,11.7465753 Z M16.9373594,11.7465753 L16.9373594,13.8147999 C16.9373594,14.5490196 16.9591659,14.9109589 17.0245855,15.3039216 L15.4,15.3039216 C15.4654196,14.9523234 15.4872261,14.5179962 15.4872261,13.8354821 L15.4872261,8.38571045 C15.4872261,7.8169487 15.4654196,7.51705614 15.4,7.04136449 C15.8470336,7.06204674 16.1196151,7.07238786 16.7847138,7.07238786 L19.2706567,7.07238786 C19.957562,7.07238786 20.5178363,7.05170561 20.9757732,7 L20.9757732,8.38571045 C20.5832559,8.33400483 19.9684653,8.32366371 19.2706567,8.32366371 L16.9373594,8.32366371 L16.9373594,10.5159817 L19.2706567,10.5159817 C19.9466587,10.5159817 20.3282728,10.4952995 20.7534999,10.4435939 L20.7534999,11.8189632 C20.3500793,11.7672576 19.9357555,11.7465753 19.2706567,11.7465753 L16.9373594,11.7465753 Z" id="OFF" stroke="#000000" stroke-width="0.4" fill="#000000" fill-rule="nonzero"></path>
    </g>
</svg>