<?xml version="1.0" encoding="UTF-8"?>
<svg width="22px" height="22px" viewBox="0 0 22 22" version="1.1" xmlns="http://www.w3.org/2000/svg" xmlns:xlink="http://www.w3.org/1999/xlink">
    <!-- Generator: Sketch 57.1 (83088) - https://sketch.com -->
    <title>off</title>
    <desc>Created with Sketch.</desc>
    <g id="off" stroke="none" stroke-width="1" fill="none" fill-rule="evenodd">
        <polygon id="Path" points="0 0 22 0 22 22 0 22"></polygon>
        <path d="M16.9583333,3.20833333 L16.9583333,4.58333333 L15.8116667,4.58333333 L15.8125,7.5068777 L11.9296667,10.9793333 L15.8125,14.455831 L15.8116667,17.4163333 L16.9583333,17.4166667 L16.9583333,18.7916667 L5.04166667,18.7916667 L5.04166667,17.4166667 L6.18666667,17.4163333 L6.1875,14.455831 L10.0686667,10.9793333 L6.1875,7.5068777 L6.18666667,4.58333333 L5.04166667,4.58333333 L5.04166667,3.20833333 L16.9583333,3.20833333 Z M10.9996667,11.8113333 L7.390625,15.041006 L7.38966667,16.2703333 L14.6086667,16.2703333 L14.609375,15.041006 L10.9996667,11.8113333 Z M14.6066667,4.58333333 L7.39166667,4.58333333 L7.39366667,5.72833333 L14.6046667,5.72833333 L14.6066667,4.58333333 Z" id="Combined-Shape" fill="#EFEFEF" opacity="0.75"></path>
        <path d="M4.36953107,6.83333333 C5.55326288,6.83333333 6.49390446,7.20842008 7.23775291,7.99040311 C8.02810511,8.82127396 8.44264706,10.0363026 8.44264706,11.4602521 C8.44264706,14.2549271 6.83702255,16.1372549 4.37905937,16.1372549 C1.9198379,16.1372549 0.325,14.2635981 0.325,11.4602521 C0.325,10.039946 0.752779353,8.80470318 1.5514735,7.98777033 C2.30407914,7.20804768 3.22488465,6.83333333 4.36953107,6.83333333 Z M4.40032722,13.9509804 C5.54543014,13.9509804 6.25259804,13.0540704 6.25259804,11.4652557 C6.25259804,10.5834109 6.01602233,9.89736978 5.60458101,9.49073993 C5.28340503,9.18110258 4.87085113,9.01960784 4.39018812,9.01960784 C3.23213109,9.01960784 2.5075,9.91798113 2.5075,11.4752749 C2.5075,12.35083 2.75587921,13.064844 3.17579523,13.4798483 C3.49762916,13.79012 3.91054783,13.9509804 4.40032722,13.9509804 Z M10.9290261,12.5799087 L10.9290261,14.1481332 C10.9290261,14.8530774 10.9489792,15.1918242 11.0094642,15.5551461 L11.1063724,16.1372549 L8.29005371,16.1372549 L8.40010313,15.5457929 C8.45632888,15.2436069 8.47889273,14.8498371 8.47889273,14.1688155 L8.47889273,8.71904378 C8.47889273,8.18720377 8.46044825,7.90905642 8.39632893,7.44281921 L8.31445178,6.84745783 L8.91477471,6.87523209 C9.43741089,6.89941213 9.69018757,6.90572119 10.2763805,6.90572119 L13.3292928,6.90572119 C13.9680181,6.90572119 14.304157,6.88874322 14.7669407,6.83649034 L15.3230392,6.7737013 L15.3230392,9.29956845 L14.7577392,9.22510247 C14.3847548,9.17596989 13.998007,9.15699705 13.3292928,9.15699705 L10.9290261,9.15699705 L10.9290261,10.3493151 L12.7623234,10.3493151 C13.4031942,10.3493151 13.7702456,10.3309926 14.1848134,10.2805831 L14.7451665,10.2124468 L14.7451665,12.7204706 L14.1816025,12.6482397 C13.7999036,12.5993181 13.4042564,12.5799087 12.7623234,12.5799087 L10.9290261,12.5799087 Z M17.1893202,12.5799087 L17.1893202,14.1481332 C17.1893202,14.8530774 17.2092733,15.1918242 17.2697583,15.5551461 L17.3666665,16.1372549 L14.5503478,16.1372549 L14.6603973,15.5457929 C14.716623,15.2436069 14.7391869,14.8498371 14.7391869,14.1688155 L14.7391869,8.71904378 C14.7391869,8.18720377 14.7207424,7.90905642 14.656623,7.44281921 L14.5747459,6.84745783 L15.1750688,6.87523209 C15.697705,6.89941213 15.9504817,6.90572119 16.5366746,6.90572119 L19.5895869,6.90572119 C20.2283122,6.90572119 20.5644511,6.88874322 21.0272348,6.83649034 L21.5833333,6.7737013 L21.5833333,9.29956845 L21.0180333,9.22510247 C20.6450489,9.17596989 20.2583011,9.15699705 19.5895869,9.15699705 L17.1893202,9.15699705 L17.1893202,10.3493151 L19.0226175,10.3493151 C19.6634883,10.3493151 20.0305397,10.3309926 20.4451075,10.2805831 L21.0054606,10.2124468 L21.0054606,12.7204706 L20.4418966,12.6482397 C20.0601977,12.5993181 19.6645506,12.5799087 19.0226175,12.5799087 L17.1893202,12.5799087 Z" id="OFF" stroke="#000000" fill="#000000" fill-rule="nonzero"></path>
        <path d="M4.36953107,7.33333333 C5.41764509,7.33333333 6.22755138,7.65387072 6.87547642,8.33501265 C7.571043,9.06623856 7.94264706,10.158069 7.94264706,11.4602521 C7.94264706,13.9945008 6.54198559,15.6372549 4.37905937,15.6372549 C2.21613316,15.6372549 0.825,14.0045176 0.825,11.4602521 C0.825,10.1680858 1.20613237,9.05622176 1.91122726,8.33501265 C2.5686806,7.65387072 3.35953028,7.33333333 4.36953107,7.33333333 Z M4.40032722,14.4509804 C5.85021828,14.4509804 6.75259804,13.3087904 6.75259804,11.4652557 C6.75259804,10.4533154 6.46870328,9.64175941 5.95160927,9.13077968 C5.53590623,8.73001126 4.99853402,8.51960784 4.39018812,8.51960784 C2.93015795,8.51960784 2.0075,9.66179783 2.0075,11.4752749 C2.0075,12.4771959 2.30153385,13.3188096 2.82876697,13.8398086 C3.24447,14.240577 3.78184222,14.4509804 4.40032722,14.4509804 Z M10.4290261,12.0799087 L10.4290261,14.1481332 C10.4290261,14.8823529 10.4508326,15.2442922 10.5162522,15.6372549 L8.89166667,15.6372549 C8.95708622,15.2856567 8.97889273,14.8513296 8.97889273,14.1688155 L8.97889273,8.71904378 C8.97889273,8.15028203 8.95708622,7.85038947 8.89166667,7.37469782 C9.33870026,7.39538007 9.61128172,7.40572119 10.2763805,7.40572119 L12.7623234,7.40572119 C13.4492287,7.40572119 14.009503,7.38503895 14.4674399,7.33333333 L14.4674399,8.71904378 C14.0749226,8.66733817 13.4601319,8.65699705 12.7623234,8.65699705 L10.4290261,8.65699705 L10.4290261,10.8493151 L12.7623234,10.8493151 C13.4383254,10.8493151 13.8199394,10.8286328 14.2451665,10.7769272 L14.2451665,12.1522965 C13.841746,12.1005909 13.4274221,12.0799087 12.7623234,12.0799087 L10.4290261,12.0799087 Z M16.9373594,12.0799087 L16.9373594,14.1481332 C16.9373594,14.8823529 16.9591659,15.2442922 17.0245855,15.6372549 L15.4,15.6372549 C15.4654196,15.2856567 15.4872261,14.8513296 15.4872261,14.1688155 L15.4872261,8.71904378 C15.4872261,8.15028203 15.4654196,7.85038947 15.4,7.37469782 C15.8470336,7.39538007 16.1196151,7.40572119 16.7847138,7.40572119 L19.2706567,7.40572119 C19.957562,7.40572119 20.5178363,7.38503895 20.9757732,7.33333333 L20.9757732,8.71904378 C20.5832559,8.66733817 19.9684653,8.65699705 19.2706567,8.65699705 L16.9373594,8.65699705 L16.9373594,10.8493151 L19.2706567,10.8493151 C19.9466587,10.8493151 20.3282728,10.8286328 20.7534999,10.7769272 L20.7534999,12.1522965 C20.3500793,12.1005909 19.9357555,12.0799087 19.2706567,12.0799087 L16.9373594,12.0799087 Z" id="OFF" stroke="#FFFFFF" stroke-width="0.4" fill="#FFFFFF" fill-rule="nonzero"></path>
    </g>
</svg>