<?xml version="1.0" encoding="UTF-8"?>
<svg width="26px" height="24px" viewBox="0 0 26 24" version="1.1" xmlns="http://www.w3.org/2000/svg" xmlns:xlink="http://www.w3.org/1999/xlink">
    <!-- Generator: Sketch 57.1 (83088) - https://sketch.com -->
    <title>convos-teams-filter-icon</title>
    <desc>Created with Sketch.</desc>
    <g id="convos-teams-filter-icon" stroke="none" stroke-width="1" fill="none" fill-rule="evenodd">
        <g id="chats-icon" transform="translate(0.000000, 1.000000)">
            <polygon id="Shape" points="0 0 14 0 14 14 0 14"></polygon>
            <path d="M11.6666667,3.5 L11.0833333,3.5 L11.0833333,8.16666667 C11.0833333,8.4875 10.8208333,8.75 10.5,8.75 L3.5,8.75 L3.5,9.33333333 C3.5,9.975 4.025,10.5 4.66666667,10.5 L10.5,10.5 L12.8333333,12.8333333 L12.8333333,4.66666667 C12.8333333,4.025 12.3083333,3.5 11.6666667,3.5 Z M9.91666667,6.41666667 L9.91666667,2.33333333 C9.91666667,1.69166667 9.39166667,1.16666667 8.75,1.16666667 L2.33333333,1.16666667 C1.69166667,1.16666667 1.16666667,1.69166667 1.16666667,2.33333333 L1.16666667,9.91666667 L3.5,7.58333333 L8.75,7.58333333 C9.39166667,7.58333333 9.91666667,7.05833333 9.91666667,6.41666667 Z" id="Shape" fill="#000000" fill-rule="nonzero"></path>
        </g>
        <g id="#-icon" transform="translate(13.000000, 1.000000)">
            <rect id="Rectangle" x="0" y="0" width="14" height="14"></rect>
            <path d="M7.75307377,12.25 L8.22643443,9.43069484 L5.70184426,9.43069484 L5.22848361,12.25 L3.74528689,12.25 L4.21864754,9.43069484 L2.625,9.43069484 L2.625,7.9640043 L4.47110656,7.9640043 L4.92868852,5.1609957 L3.33504098,5.1609957 L3.33504098,3.69430516 L5.18114754,3.69430516 L5.6545082,0.875 L7.12192623,0.875 L6.64856557,3.69430516 L9.17315574,3.69430516 L9.64651639,0.875 L11.1297131,0.875 L10.6563525,3.69430516 L12.25,3.69430516 L12.25,5.1609957 L10.4038934,5.1609957 L9.94631148,7.9640043 L11.539959,7.9640043 L11.539959,9.43069484 L9.69385246,9.43069484 L9.2204918,12.25 L7.75307377,12.25 Z M5.93852459,7.9640043 L8.46311475,7.9640043 L8.93647541,5.1609957 L6.41188525,5.1609957 L5.93852459,7.9640043 Z" id="#" fill="#000000"></path>
        </g>
        <circle id="Oval-3" stroke="#000000" fill="#000000" cx="7.5" cy="20.5" r="2"></circle>
        <circle id="Oval-3" fill="#9B9B9B" cx="18.5" cy="20.5" r="2.5"></circle>
    </g>
</svg>