<?xml version="1.0" encoding="UTF-8"?>
<svg width="24px" height="24px" viewBox="0 0 24 24" version="1.1" xmlns="http://www.w3.org/2000/svg" xmlns:xlink="http://www.w3.org/1999/xlink">
    <!-- Generator: Sketch 57.1 (83088) - https://sketch.com -->
    <title>convos-teams-filter-icon</title>
    <desc>Created with Sketch.</desc>
    <g id="convos-teams-filter-icon" stroke="none" stroke-width="1" fill="none" fill-rule="evenodd">
        <g id="chats-icon" transform="translate(0.000000, 2.000000)" fill="#000000" fill-rule="nonzero">
            <path d="M10.6666667,2.5 L10.0833333,2.5 L10.0833333,7.16666667 C10.0833333,7.4875 9.82083333,7.75 9.5,7.75 L2.5,7.75 L2.5,8.33333333 C2.5,8.975 3.025,9.5 3.66666667,9.5 L9.5,9.5 L11.8333333,11.8333333 L11.8333333,3.66666667 C11.8333333,3.025 11.3083333,2.5 10.6666667,2.5 Z M8.91666667,5.41666667 L8.91666667,1.33333333 C8.91666667,0.691666667 8.39166667,0.166666667 7.75,0.166666667 L1.33333333,0.166666667 C0.691666667,0.166666667 0.166666667,0.691666667 0.166666667,1.33333333 L0.166666667,8.91666667 L2.5,6.58333333 L7.75,6.58333333 C8.39166667,6.58333333 8.91666667,6.05833333 8.91666667,5.41666667 Z" id="Shape"></path>
        </g>
        <path d="M19.3530738,13.25 L19.8264344,10.4306948 L17.3018443,10.4306948 L16.8284836,13.25 L15.3452869,13.25 L15.8186475,10.4306948 L14.225,10.4306948 L14.225,8.9640043 L16.0711066,8.9640043 L16.5286885,6.1609957 L14.935041,6.1609957 L14.935041,4.69430516 L16.7811475,4.69430516 L17.2545082,1.875 L18.7219262,1.875 L18.2485656,4.69430516 L20.7731557,4.69430516 L21.2465164,1.875 L22.7297131,1.875 L22.2563525,4.69430516 L23.85,4.69430516 L23.85,6.1609957 L22.0038934,6.1609957 L21.5463115,8.9640043 L23.139959,8.9640043 L23.139959,10.4306948 L21.2938525,10.4306948 L20.8204918,13.25 L19.3530738,13.25 Z M17.5385246,8.9640043 L20.0631148,8.9640043 L20.5364754,6.1609957 L18.0118852,6.1609957 L17.5385246,8.9640043 Z" id="#" fill="#000000"></path>
        <circle id="Oval-3" stroke="#000000" fill="#000000" cx="6.5" cy="20.5" r="2"></circle>
        <circle id="Oval-3" fill="#9B9B9B" cx="17.5" cy="20.5" r="2.5"></circle>
    </g>
</svg>