<?xml version="1.0" encoding="UTF-8"?>
<svg width="24px" height="24px" viewBox="0 0 24 24" version="1.1" xmlns="http://www.w3.org/2000/svg" xmlns:xlink="http://www.w3.org/1999/xlink">
    <!-- Generator: Sketch 57.1 (83088) - https://sketch.com -->
    <title>gear-icon</title>
    <desc>Created with Sketch.</desc>
    <g id="gear-icon" stroke="none" stroke-width="1" fill="none" fill-rule="evenodd">
        <g transform="translate(3.000000, 3.000000)" fill="#000000" fill-rule="nonzero" id="Shape">
            <path d="M15.687,9.882 C15.723,9.594 15.75,9.306 15.75,9 C15.75,8.694 15.723,8.406 15.687,8.118 L17.586,6.633 C17.757,6.498 17.802,6.255 17.694,6.057 L15.894,2.943 C15.786,2.745 15.543,2.673 15.345,2.745 L13.104,3.645 C12.636,3.285 12.132,2.988 11.583,2.763 L11.241,0.378 C11.214,0.162 11.025,0 10.8,0 L7.2,0 C6.975,0 6.786,0.162 6.759,0.378 L6.417,2.763 C5.868,2.988 5.364,3.294 4.896,3.645 L2.655,2.745 C2.448,2.664 2.214,2.745 2.106,2.943 L0.306,6.057 C0.189,6.255 0.243,6.498 0.414,6.633 L2.313,8.118 C2.277,8.406 2.25,8.703 2.25,9 C2.25,9.297 2.277,9.594 2.313,9.882 L0.414,11.367 C0.243,11.502 0.198,11.745 0.306,11.943 L2.106,15.057 C2.214,15.255 2.457,15.327 2.655,15.255 L4.896,14.355 C5.364,14.715 5.868,15.012 6.417,15.237 L6.759,17.622 C6.786,17.838 6.975,18 7.2,18 L10.8,18 C11.025,18 11.214,17.838 11.241,17.622 L11.583,15.237 C12.132,15.012 12.636,14.706 13.104,14.355 L15.345,15.255 C15.552,15.336 15.786,15.255 15.894,15.057 L17.694,11.943 C17.802,11.745 17.757,11.502 17.586,11.367 L15.687,9.882 Z M9,12.15 C7.263,12.15 5.85,10.737 5.85,9 C5.85,7.263 7.263,5.85 9,5.85 C10.737,5.85 12.15,7.263 12.15,9 C12.15,10.737 10.737,12.15 9,12.15 Z"></path>
        </g>
    </g>
</svg>