<?xml version="1.0" encoding="UTF-8"?>
<svg width="24px" height="24px" viewBox="0 0 24 24" version="1.1" xmlns="http://www.w3.org/2000/svg" xmlns:xlink="http://www.w3.org/1999/xlink">
    <!-- Generator: Sketch 57.1 (83088) - https://sketch.com -->
    <title>regex-search-icon</title>
    <desc>Created with Sketch.</desc>
    <g id="regex-search-icon" stroke="none" stroke-width="1" fill="none" fill-rule="evenodd">
        <path d="M2.4,3.7 L5.775,3.7 L5.775,4.99199219 L3.89414063,4.99199219 L3.89414063,18.9490234 L5.775,18.9490234 L5.775,20.2410156 L2.4,20.2410156 L2.4,3.7 Z M21.605,3.7 L21.605,20.2410156 L18.23,20.2410156 L18.23,18.9490234 L20.1020703,18.9490234 L20.1020703,4.99199219 L18.23,4.99199219 L18.23,3.7 L21.605,3.7 Z M9.35,15.7 C10.0955844,15.7 10.7,16.3044156 10.7,17.05 C10.7,17.7955844 10.0955844,18.4 9.35,18.4 C8.60441559,18.4 8,17.7955844 8,17.05 C8,16.3044156 8.60441559,15.7 9.35,15.7 Z M14.4695312,4.6 L14.4695312,6.55996094 L16.3855469,5.89199219 L16.7371094,6.86757812 L14.8210937,7.49160156 L16.0076172,9.14394531 L15.1375,9.76796875 L13.9861328,8.05410156 L12.8259766,9.76796875 L11.9294922,9.14394531 L13.1335937,7.49160156 L11.2,6.86757812 L11.5515625,5.89199219 L13.45,6.57753906 L13.45,4.6 L14.4695312,4.6 Z" id="[]" fill="#000000" fill-rule="nonzero"></path>
    </g>
</svg>