<?xml version="1.0" encoding="UTF-8"?>
<svg width="24px" height="24px" viewBox="0 0 24 24" version="1.1" xmlns="http://www.w3.org/2000/svg" xmlns:xlink="http://www.w3.org/1999/xlink">
    <!-- Generator: Sketch 57.1 (83088) - https://sketch.com -->
    <title>timer-1d-icon</title>
    <desc>Created with Sketch.</desc>
    <g id="timer-1d-icon" stroke="none" stroke-width="1" fill="none" fill-rule="evenodd">
        <g id="timer">
            <rect id="Rectangle" x="0" y="0" width="24" height="24"></rect>
            <g id="timer-icon" transform="translate(3.000000, 0.000000)" fill="#000000" fill-rule="nonzero">
                <path d="M12.5333333,5.46666667 C11.5583333,4.49166667 10.2833333,4 9,4 L9,9 L5.46666667,12.5333333 C7.41666667,14.4833333 10.5833333,14.4833333 12.5416667,12.5333333 C14.4916667,10.5833333 14.4916667,7.41666667 12.5333333,5.46666667 Z M9,0.666666667 C4.4,0.666666667 0.666666667,4.4 0.666666667,9 C0.666666667,13.6 4.4,17.3333333 9,17.3333333 C13.6,17.3333333 17.3333333,13.6 17.3333333,9 C17.3333333,4.4 13.6,0.666666667 9,0.666666667 Z M9,15.6666667 C5.31666667,15.6666667 2.33333333,12.6833333 2.33333333,9 C2.33333333,5.31666667 5.31666667,2.33333333 9,2.33333333 C12.6833333,2.33333333 15.6666667,5.31666667 15.6666667,9 C15.6666667,12.6833333 12.6833333,15.6666667 9,15.6666667 Z" id="Shape"></path>
            </g>
        </g>
        <path d="M9.1,19.9176563 L9.1,19.5133594 C9.48086128,19.4762498 9.74648362,19.4142387 9.896875,19.3273242 C10.0472664,19.2404097 10.1595699,19.0348454 10.2337891,18.710625 L10.6498047,18.710625 L10.6498047,22.8883594 L10.0873047,22.8883594 L10.0873047,19.9176563 L9.1,19.9176563 Z M12.5833984,21.3561328 C12.5833984,21.692072 12.6546868,21.9733192 12.7972656,22.1998828 C12.9398445,22.4264464 13.1683578,22.5397266 13.4828125,22.5397266 C13.7269543,22.5397266 13.9276359,22.4347471 14.0848633,22.2247852 C14.2420906,22.0148232 14.3207031,21.7135567 14.3207031,21.3209766 C14.3207031,20.9244902 14.2396492,20.6310361 14.0775391,20.4406055 C13.9154289,20.2501748 13.7152356,20.1549609 13.4769531,20.1549609 C13.2113268,20.1549609 12.9959969,20.2565224 12.830957,20.4596484 C12.6659171,20.6627745 12.5833984,20.9615996 12.5833984,21.3561328 Z M13.3773437,19.695 C13.6175793,19.695 13.8187492,19.7457807 13.9808594,19.8473438 C14.0746098,19.9059378 14.1810541,20.0084758 14.3001953,20.1549609 L14.3001953,18.57 L14.8070312,18.57 L14.8070312,22.8883594 L14.3324219,22.8883594 L14.3324219,22.4518359 C14.2093744,22.6451963 14.063868,22.7848433 13.8958984,22.8707813 C13.7279288,22.9567192 13.535548,22.9996875 13.31875,22.9996875 C12.9691389,22.9996875 12.6664075,22.8527163 12.4105469,22.5587695 C12.1546862,22.2648227 12.0267578,21.8737134 12.0267578,21.3854297 C12.0267578,20.9283962 12.1434559,20.532404 12.3768555,20.1974414 C12.6102551,19.8624788 12.9437478,19.695 13.3773437,19.695 Z" id="1d" fill="#000000" fill-rule="nonzero"></path>
    </g>
</svg>