<?xml version="1.0" encoding="UTF-8"?>
<svg width="24px" height="24px" viewBox="0 0 24 24" version="1.1" xmlns="http://www.w3.org/2000/svg" xmlns:xlink="http://www.w3.org/1999/xlink">
    <!-- Generator: Sketch 57.1 (83088) - https://sketch.com -->
    <title>timer-30min-icon</title>
    <desc>Created with Sketch.</desc>
    <g id="timer-30min-icon" stroke="none" stroke-width="1" fill="none" fill-rule="evenodd">
        <g id="timer">
            <rect id="Rectangle" x="0" y="0" width="24" height="24"></rect>
            <g id="timer-icon" transform="translate(3.000000, 0.000000)" fill="#000000" fill-rule="nonzero">
                <path d="M12.5333333,5.46666667 C11.5583333,4.49166667 10.2833333,4 9,4 L9,9 L5.46666667,12.5333333 C7.41666667,14.4833333 10.5833333,14.4833333 12.5416667,12.5333333 C14.4916667,10.5833333 14.4916667,7.41666667 12.5333333,5.46666667 Z M9,0.666666667 C4.4,0.666666667 0.666666667,4.4 0.666666667,9 C0.666666667,13.6 4.4,17.3333333 9,17.3333333 C13.6,17.3333333 17.3333333,13.6 17.3333333,9 C17.3333333,4.4 13.6,0.666666667 9,0.666666667 Z M9,15.6666667 C5.31666667,15.6666667 2.33333333,12.6833333 2.33333333,9 C2.33333333,5.31666667 5.31666667,2.33333333 9,2.33333333 C12.6833333,2.33333333 15.6666667,5.31666667 15.6666667,9 C15.6666667,12.6833333 12.6833333,15.6666667 9,15.6666667 Z" id="Shape"></path>
            </g>
        </g>
        <path d="M5.51503906,22.9979687 C5.01894283,22.9979687 4.65908315,22.8617396 4.43544922,22.5892773 C4.21181529,22.316815 4.1,21.9852754 4.1,21.5946484 L4.65078125,21.5946484 C4.67421887,21.8661342 4.72499961,22.0633978 4.803125,22.1864453 C4.93984443,22.4071495 5.18691228,22.5175 5.54433594,22.5175 C5.82168107,22.5175 6.0443351,22.443282 6.21230469,22.2948437 C6.38027428,22.1464055 6.46425781,21.9550012 6.46425781,21.720625 C6.46425781,21.4315611 6.37587979,21.2294146 6.19912109,21.1141797 C6.0223624,20.9989447 5.77675938,20.9413281 5.46230469,20.9413281 C5.42714826,20.9413281 5.39150409,20.9418164 5.35537109,20.942793 C5.3192381,20.9437695 5.28261737,20.9452344 5.24550781,20.9471875 L5.24550781,20.4813672 C5.30019559,20.4872266 5.34609356,20.4911328 5.38320312,20.4930859 C5.42031269,20.4950391 5.46035135,20.4960156 5.50332031,20.4960156 C5.70058692,20.4960156 5.86269468,20.4647659 5.98964844,20.4022656 C6.2123058,20.2928901 6.32363281,20.0975795 6.32363281,19.8163281 C6.32363281,19.6073427 6.2494148,19.4462115 6.10097656,19.3329297 C5.95253832,19.2196479 5.77968849,19.1630078 5.58242187,19.1630078 C5.23085762,19.1630078 4.98769599,19.2801941 4.85292969,19.5145703 C4.77871057,19.6434772 4.7367188,19.8270691 4.72695312,20.0653516 L4.20546875,20.0653516 C4.20546875,19.75285 4.26796812,19.4872277 4.39296875,19.2684766 C4.60781357,18.8778496 4.98573948,18.6825391 5.52675781,18.6825391 C5.95449433,18.6825391 6.2855457,18.777753 6.51992187,18.9681836 C6.75429805,19.1586142 6.87148437,19.4344904 6.87148437,19.7958203 C6.87148437,20.0536341 6.80214913,20.2626164 6.66347656,20.4227734 C6.57753863,20.5223833 6.46621162,20.6005075 6.32949219,20.6571484 C6.55019642,20.7176956 6.72255797,20.8343937 6.84658203,21.0072461 C6.97060609,21.1800985 7.03261719,21.3915222 7.03261719,21.6415234 C7.03261719,22.0419161 6.90078257,22.3680847 6.63710937,22.6200391 C6.37343618,22.8719934 5.99941648,22.9979687 5.51503906,22.9979687 Z M8.91640625,18.6883984 C9.45937771,18.6883984 9.85195191,18.912029 10.0941406,19.3592969 C10.2816416,19.7050017 10.3753906,20.1786298 10.3753906,20.7801953 C10.3753906,21.3505107 10.2904305,21.8221856 10.1205078,22.1952344 C9.87441283,22.7303933 9.47207311,22.9979687 8.91347656,22.9979687 C8.40956779,22.9979687 8.03457154,22.7792209 7.78847656,22.3417187 C7.58339741,21.9764825 7.48085937,21.4862531 7.48085937,20.8710156 C7.48085937,20.3944507 7.5423822,19.9852751 7.66542969,19.6434766 C7.89589959,19.0067546 8.31288761,18.6883984 8.91640625,18.6883984 Z M8.91054687,22.5175 C9.18398574,22.5175 9.401757,22.3964075 9.56386719,22.1542187 C9.72597737,21.91203 9.80703125,21.4608627 9.80703125,20.8007031 C9.80703125,20.3241382 9.74843809,19.9320523 9.63125,19.6244336 C9.51406191,19.3168149 9.28652513,19.1630078 8.94863281,19.1630078 C8.63808438,19.1630078 8.41103587,19.3090024 8.26748047,19.6009961 C8.12392506,19.8929897 8.05214844,20.3231612 8.05214844,20.8915234 C8.05214844,21.31926 8.09804642,21.6630078 8.18984375,21.9227734 C8.33046945,22.3192598 8.57070143,22.5175 8.91054687,22.5175 Z M11.0169922,19.7460156 L11.5384766,19.7460156 L11.5384766,20.1913281 C11.6634772,20.0370305 11.7767573,19.9247269 11.8783203,19.8544141 C12.0521493,19.7352728 12.249413,19.6757031 12.4701172,19.6757031 C12.7201184,19.6757031 12.9212883,19.7372259 13.0736328,19.8602734 C13.1595707,19.9305863 13.237695,20.0341009 13.3080078,20.1708203 C13.4251959,20.0028507 13.5628898,19.8783402 13.7210937,19.7972852 C13.8792977,19.7162301 14.0570303,19.6757031 14.2542969,19.6757031 C14.676174,19.6757031 14.9632805,19.8280454 15.115625,20.1327344 C15.1976567,20.2967977 15.2386719,20.5174986 15.2386719,20.7948437 L15.2386719,22.8837109 L14.6908203,22.8837109 L14.6908203,20.7040234 C14.6908203,20.495038 14.6385747,20.3514848 14.534082,20.2733594 C14.4295893,20.195234 14.3021492,20.1561719 14.1517578,20.1561719 C13.9447255,20.1561719 13.7665047,20.2255071 13.6170898,20.3641797 C13.467675,20.5028523 13.3929687,20.7342953 13.3929687,21.0585156 L13.3929687,22.8837109 L12.8568359,22.8837109 L12.8568359,20.8358594 C12.8568359,20.6229677 12.8314456,20.4676958 12.7806641,20.3700391 C12.7005855,20.223554 12.551173,20.1503125 12.3324219,20.1503125 C12.1332021,20.1503125 11.9520516,20.2274602 11.7889648,20.3817578 C11.6258781,20.5360555 11.5443359,20.8153495 11.5443359,21.2196484 L11.5443359,22.8837109 L11.0169922,22.8837109 L11.0169922,19.7460156 Z M16.0150391,19.7606641 L16.5511719,19.7606641 L16.5511719,22.8837109 L16.0150391,22.8837109 L16.0150391,19.7606641 Z M16.0150391,18.58 L16.5511719,18.58 L16.5511719,19.1776562 L16.0150391,19.1776562 L16.0150391,18.58 Z M17.3480469,19.7460156 L17.8490234,19.7460156 L17.8490234,20.1913281 C17.9974617,20.0077335 18.1546867,19.8758988 18.3207031,19.7958203 C18.4867196,19.7157418 18.671288,19.6757031 18.8744141,19.6757031 C19.3197288,19.6757031 19.620507,19.830975 19.7767578,20.1415234 C19.8626957,20.3114462 19.9056641,20.5546078 19.9056641,20.8710156 L19.9056641,22.8837109 L19.3695312,22.8837109 L19.3695312,20.9061719 C19.3695312,20.7147647 19.3412112,20.5604693 19.2845703,20.4432812 C19.1908198,20.2479678 19.0208997,20.1503125 18.7748047,20.1503125 C18.6498041,20.1503125 18.547266,20.1630077 18.4671875,20.1883984 C18.3226555,20.2313674 18.1957037,20.317304 18.0863281,20.4462109 C17.9984371,20.5497271 17.9413087,20.6566596 17.9149414,20.7670117 C17.8885741,20.8773638 17.8753906,21.0350771 17.8753906,21.2401562 L17.8753906,22.8837109 L17.3480469,22.8837109 L17.3480469,19.7460156 Z" id="30min" fill="#000000" fill-rule="nonzero"></path>
    </g>
</svg>