<?xml version="1.0" encoding="UTF-8"?>
<svg width="24px" height="24px" viewBox="0 0 24 24" version="1.1" xmlns="http://www.w3.org/2000/svg" xmlns:xlink="http://www.w3.org/1999/xlink">
    <!-- Generator: Sketch 57.1 (83088) - https://sketch.com -->
    <title>timer-10s-icon</title>
    <desc>Created with Sketch.</desc>
    <g id="timer-10s-icon" stroke="none" stroke-width="1" fill="none" fill-rule="evenodd">
        <g id="timer">
            <rect id="Rectangle" x="0" y="0" width="24" height="24"></rect>
            <g id="timer-icon" transform="translate(3.000000, 0.000000)" fill="#000000" fill-rule="nonzero">
                <path d="M12.5333333,5.46666667 C11.5583333,4.49166667 10.2833333,4 9,4 L9,9 L5.46666667,12.5333333 C7.41666667,14.4833333 10.5833333,14.4833333 12.5416667,12.5333333 C14.4916667,10.5833333 14.4916667,7.41666667 12.5333333,5.46666667 Z M9,0.666666667 C4.4,0.666666667 0.666666667,4.4 0.666666667,9 C0.666666667,13.6 4.4,17.3333333 9,17.3333333 C13.6,17.3333333 17.3333333,13.6 17.3333333,9 C17.3333333,4.4 13.6,0.666666667 9,0.666666667 Z M9,15.6666667 C5.31666667,15.6666667 2.33333333,12.6833333 2.33333333,9 C2.33333333,5.31666667 5.31666667,2.33333333 9,2.33333333 C12.6833333,2.33333333 15.6666667,5.31666667 15.6666667,9 C15.6666667,12.6833333 12.6833333,15.6666667 9,15.6666667 Z" id="Shape"></path>
            </g>
        </g>
        <path d="M7.5,19.9046094 L7.5,19.5003125 C7.88086128,19.4632029 8.14648362,19.4011918 8.296875,19.3142773 C8.44726638,19.2273628 8.55956994,19.0217985 8.63378906,18.6975781 L9.04980469,18.6975781 L9.04980469,22.8753125 L8.48730469,22.8753125 L8.48730469,19.9046094 L7.5,19.9046094 Z M11.8857422,18.68 C12.4287137,18.68 12.8212879,18.9036306 13.0634766,19.3508984 C13.2509775,19.6966033 13.3447266,20.1702314 13.3447266,20.7717969 C13.3447266,21.3421122 13.2597665,21.8137872 13.0898438,22.1868359 C12.8437488,22.7219949 12.441409,22.9895703 11.8828125,22.9895703 C11.3789037,22.9895703 11.0039075,22.7708225 10.7578125,22.3333203 C10.5527333,21.9680841 10.4501953,21.4778546 10.4501953,20.8626172 C10.4501953,20.3860523 10.5117181,19.9768767 10.6347656,19.6350781 C10.8652355,18.9983562 11.2822235,18.68 11.8857422,18.68 Z M11.8798828,22.5091016 C12.1533217,22.5091016 12.3710929,22.388009 12.5332031,22.1458203 C12.6953133,21.9036316 12.7763672,21.4524642 12.7763672,20.7923047 C12.7763672,20.3157398 12.717774,19.9236539 12.6005859,19.6160352 C12.4833979,19.3084164 12.2558611,19.1546094 11.9179688,19.1546094 C11.6074203,19.1546094 11.3803718,19.300604 11.2368164,19.5925977 C11.093261,19.8845913 11.0214844,20.3147628 11.0214844,20.883125 C11.0214844,21.3108615 11.0673824,21.6546094 11.1591797,21.914375 C11.2998054,22.3108614 11.5400374,22.5091016 11.8798828,22.5091016 Z M14.2998047,21.8909375 C14.3154298,22.0667196 14.3593746,22.2014839 14.4316406,22.2952344 C14.5644538,22.4651571 14.7949202,22.5501172 15.1230469,22.5501172 C15.3183604,22.5501172 15.4902336,22.5076371 15.6386719,22.4226758 C15.7871101,22.3377144 15.8613281,22.2063681 15.8613281,22.0286328 C15.8613281,21.8938665 15.8017584,21.7913285 15.6826172,21.7210156 C15.6064449,21.6780467 15.4560558,21.6282425 15.2314453,21.5716016 L14.8125,21.4661328 C14.5449205,21.3997262 14.3476569,21.3255082 14.2207031,21.2434766 C13.9941395,21.1008977 13.8808594,20.9036341 13.8808594,20.6516797 C13.8808594,20.3548032 13.9877919,20.1145712 14.2016602,19.9309766 C14.4155284,19.7473819 14.7031232,19.6555859 15.0644531,19.6555859 C15.5371117,19.6555859 15.8779286,19.7942564 16.0869141,20.0716016 C16.2177741,20.2473837 16.28125,20.4368349 16.2773438,20.6399609 L15.7792969,20.6399609 C15.7695312,20.5208197 15.7275394,20.4124224 15.6533203,20.3147656 C15.532226,20.1760931 15.3222671,20.1067578 15.0234375,20.1067578 C14.8242178,20.1067578 14.6733404,20.1448434 14.5708008,20.2210156 C14.4682612,20.2971879 14.4169922,20.3977728 14.4169922,20.5227734 C14.4169922,20.6594929 14.4843743,20.7688668 14.6191406,20.8508984 C14.697266,20.8997268 14.8124992,20.9426951 14.9648438,20.9798047 L15.3134766,21.0647656 C15.6923847,21.156563 15.9462884,21.2454293 16.0751953,21.3313672 C16.2802745,21.4661335 16.3828125,21.6780454 16.3828125,21.9671094 C16.3828125,22.2464076 16.2768565,22.4876162 16.0649414,22.6907422 C15.8530263,22.8938682 15.5302756,22.9954297 15.0966797,22.9954297 C14.6298805,22.9954297 14.2993174,22.8894737 14.1049805,22.6775586 C13.9106436,22.4656435 13.8066407,22.2034391 13.7929688,21.8909375 L14.2998047,21.8909375 Z" id="10s" fill="#000000" fill-rule="nonzero"></path>
    </g>
</svg>