<?xml version="1.0" encoding="UTF-8"?>
<svg width="24px" height="24px" viewBox="0 0 24 24" version="1.1" xmlns="http://www.w3.org/2000/svg" xmlns:xlink="http://www.w3.org/1999/xlink">
    <!-- Generator: Sketch 57.1 (83088) - https://sketch.com -->
    <title>timer-1y-icon</title>
    <desc>Created with Sketch.</desc>
    <g id="timer-1y-icon" stroke="none" stroke-width="1" fill="none" fill-rule="evenodd">
        <g id="timer">
            <rect id="Rectangle" x="0" y="0" width="24" height="24"></rect>
            <g id="timer-icon" transform="translate(3.000000, 0.000000)" fill="#000000" fill-rule="nonzero">
                <path d="M12.5333333,5.46666667 C11.5583333,4.49166667 10.2833333,4 9,4 L9,9 L5.46666667,12.5333333 C7.41666667,14.4833333 10.5833333,14.4833333 12.5416667,12.5333333 C14.4916667,10.5833333 14.4916667,7.41666667 12.5333333,5.46666667 Z M9,0.666666667 C4.4,0.666666667 0.666666667,4.4 0.666666667,9 C0.666666667,13.6 4.4,17.3333333 9,17.3333333 C13.6,17.3333333 17.3333333,13.6 17.3333333,9 C17.3333333,4.4 13.6,0.666666667 9,0.666666667 Z M9,15.6666667 C5.31666667,15.6666667 2.33333333,12.6833333 2.33333333,9 C2.33333333,5.31666667 5.31666667,2.33333333 9,2.33333333 C12.6833333,2.33333333 15.6666667,5.31666667 15.6666667,9 C15.6666667,12.6833333 12.6833333,15.6666667 9,15.6666667 Z" id="Shape"></path>
            </g>
        </g>
        <path d="M9.2,19.7070312 L9.2,19.3027344 C9.58086128,19.2656248 9.84648362,19.2036137 9.996875,19.1166992 C10.1472664,19.0297847 10.2595699,18.8242204 10.3337891,18.5 L10.7498047,18.5 L10.7498047,22.6777344 L10.1873047,22.6777344 L10.1873047,19.7070312 L9.2,19.7070312 Z M14.309375,19.5400391 L14.8923828,19.5400391 C14.8181637,19.7412119 14.6531263,20.2001917 14.3972656,20.9169922 C14.2058584,21.4560574 14.0457038,21.8955061 13.9167969,22.2353516 C13.6121079,23.0361368 13.3972662,23.5244132 13.2722656,23.7001953 C13.147265,23.8759774 12.9324234,23.9638672 12.6277344,23.9638672 C12.5535153,23.9638672 12.4963869,23.9609375 12.4563477,23.9550781 C12.4163084,23.9492187 12.3669925,23.9384766 12.3083984,23.9228516 L12.3083984,23.4423828 C12.4001958,23.4677736 12.4666014,23.4833984 12.5076172,23.4892578 C12.548633,23.4951172 12.5847655,23.4980469 12.6160156,23.4980469 C12.7136724,23.4980469 12.785449,23.4819338 12.8313477,23.449707 C12.8772463,23.4174803 12.9158202,23.3779299 12.9470703,23.3310547 C12.956836,23.3154296 12.9919919,23.2353523 13.0525391,23.0908203 C13.1130862,22.9462883 13.1570311,22.8388675 13.184375,22.7685547 L12.0242187,19.5400391 L12.621875,19.5400391 L13.4626953,22.0947266 L14.309375,19.5400391 Z" id="1y" fill="#000000" fill-rule="nonzero"></path>
    </g>
</svg>