<?xml version="1.0" encoding="UTF-8"?>
<svg width="24px" height="24px" viewBox="0 0 24 24" version="1.1" xmlns="http://www.w3.org/2000/svg" xmlns:xlink="http://www.w3.org/1999/xlink">
    <!-- Generator: Sketch 57.1 (83088) - https://sketch.com -->
    <title>timer-1w-icon</title>
    <desc>Created with Sketch.</desc>
    <g id="timer-1w-icon" stroke="none" stroke-width="1" fill="none" fill-rule="evenodd">
        <g id="timer">
            <rect id="Rectangle" x="0" y="0" width="24" height="24"></rect>
            <g id="timer-icon" transform="translate(3.000000, 0.000000)" fill="#000000" fill-rule="nonzero">
                <path d="M12.5333333,5.46666667 C11.5583333,4.49166667 10.2833333,4 9,4 L9,9 L5.46666667,12.5333333 C7.41666667,14.4833333 10.5833333,14.4833333 12.5416667,12.5333333 C14.4916667,10.5833333 14.4916667,7.41666667 12.5333333,5.46666667 Z M9,0.666666667 C4.4,0.666666667 0.666666667,4.4 0.666666667,9 C0.666666667,13.6 4.4,17.3333333 9,17.3333333 C13.6,17.3333333 17.3333333,13.6 17.3333333,9 C17.3333333,4.4 13.6,0.666666667 9,0.666666667 Z M9,15.6666667 C5.31666667,15.6666667 2.33333333,12.6833333 2.33333333,9 C2.33333333,5.31666667 5.31666667,2.33333333 9,2.33333333 C12.6833333,2.33333333 15.6666667,5.31666667 15.6666667,9 C15.6666667,12.6833333 12.6833333,15.6666667 9,15.6666667 Z" id="Shape"></path>
            </g>
        </g>
        <path d="M8.5,20.0270313 L8.5,19.6227344 C8.88086128,19.5856248 9.14648362,19.5236137 9.296875,19.4366992 C9.44726638,19.3497847 9.55956994,19.1442204 9.63378906,18.82 L10.0498047,18.82 L10.0498047,22.9977344 L9.48730469,22.9977344 L9.48730469,20.0270313 L8.5,20.0270313 Z M11.8925781,19.8600391 L12.4960938,22.3326953 L13.1083984,19.8600391 L13.7001953,19.8600391 L14.3154297,22.3180469 L14.9570312,19.8600391 L15.484375,19.8600391 L14.5732422,22.9977344 L14.0253906,22.9977344 L13.3867188,20.5690234 L12.7685547,22.9977344 L12.2207031,22.9977344 L11.3154297,19.8600391 L11.8925781,19.8600391 Z" id="1w" fill="#000000" fill-rule="nonzero"></path>
    </g>
</svg>