<?xml version="1.0" encoding="UTF-8"?>
<svg width="24px" height="24px" viewBox="0 0 24 24" version="1.1" xmlns="http://www.w3.org/2000/svg" xmlns:xlink="http://www.w3.org/1999/xlink">
    <!-- Generator: Sketch 57.1 (83088) - https://sketch.com -->
    <title>timer-off-icon</title>
    <desc>Created with Sketch.</desc>
    <g id="timer-off-icon" stroke="none" stroke-width="1" fill="none" fill-rule="evenodd">
        <g id="timer">
            <rect id="Rectangle" x="0" y="0" width="24" height="24"></rect>
            <g id="timer-icon" transform="translate(3.000000, 0.000000)" fill="#000000" fill-rule="nonzero">
                <path d="M12.5333333,5.46666667 C11.5583333,4.49166667 10.2833333,4 9,4 L9,9 L5.46666667,12.5333333 C7.41666667,14.4833333 10.5833333,14.4833333 12.5416667,12.5333333 C14.4916667,10.5833333 14.4916667,7.41666667 12.5333333,5.46666667 Z M9,0.666666667 C4.4,0.666666667 0.666666667,4.4 0.666666667,9 C0.666666667,13.6 4.4,17.3333333 9,17.3333333 C13.6,17.3333333 17.3333333,13.6 17.3333333,9 C17.3333333,4.4 13.6,0.666666667 9,0.666666667 Z M9,15.6666667 C5.31666667,15.6666667 2.33333333,12.6833333 2.33333333,9 C2.33333333,5.31666667 5.31666667,2.33333333 9,2.33333333 C12.6833333,2.33333333 15.6666667,5.31666667 15.6666667,9 C15.6666667,12.6833333 12.6833333,15.6666667 9,15.6666667 Z" id="Shape"></path>
            </g>
        </g>
        <path d="M10.2589844,22.5453906 C10.6085955,22.5453906 10.8483392,22.4130677 10.9782227,22.148418 C11.1081061,21.8837682 11.1730469,21.5893376 11.1730469,21.2651172 C11.1730469,20.972147 11.1261723,20.7338681 11.0324219,20.5502734 C10.8839836,20.2612095 10.6281268,20.1166797 10.2648438,20.1166797 C9.94257651,20.1166797 9.70820386,20.2397253 9.56171875,20.4858203 C9.41523364,20.7319153 9.34199219,21.0287873 9.34199219,21.3764453 C9.34199219,21.7104314 9.41523364,21.9887489 9.56171875,22.2114062 C9.70820386,22.4340636 9.94062341,22.5453906 10.2589844,22.5453906 Z M10.2794922,19.6567187 C10.6837911,19.6567187 11.0255845,19.791483 11.3048828,20.0610156 C11.5841811,20.3305482 11.7238281,20.7270286 11.7238281,21.2504687 C11.7238281,21.7563307 11.6007825,22.1742952 11.3546875,22.504375 C11.1085925,22.8344548 10.7267604,22.9994922 10.2091797,22.9994922 C9.7775369,22.9994922 9.43476689,22.8534976 9.18085938,22.5615039 C8.92695186,22.2695103 8.8,21.8774243 8.8,21.3852344 C8.8,20.857888 8.93378772,20.4379703 9.20136719,20.1254687 C9.46894665,19.8129672 9.82831806,19.6567187 10.2794922,19.6567187 Z M12.4826172,19.27 C12.4904297,19.0512489 12.5285153,18.8910943 12.596875,18.7895312 C12.7199225,18.6098429 12.9572248,18.52 13.3087891,18.52 C13.3419924,18.52 13.3761717,18.5209766 13.4113281,18.5229297 C13.4464846,18.5248828 13.4865232,18.5278125 13.5314453,18.5317187 L13.5314453,19.0121875 C13.4767575,19.0082812 13.4372072,19.0058398 13.412793,19.0048633 C13.3883788,19.0038867 13.3654298,19.0033984 13.3439453,19.0033984 C13.1837883,19.0033984 13.0880861,19.0449019 13.0568359,19.1279102 C13.0255858,19.2109184 13.0099609,19.4223421 13.0099609,19.7621875 L13.5314453,19.7621875 L13.5314453,20.1782031 L13.0041016,20.1782031 L13.0041016,22.8852344 L12.4826172,22.8852344 L12.4826172,20.1782031 L12.0460938,20.1782031 L12.0460938,19.7621875 L12.4826172,19.7621875 L12.4826172,19.27 Z M14.0441406,19.27 C14.0519532,19.0512489 14.0900387,18.8910943 14.1583984,18.7895312 C14.2814459,18.6098429 14.5187482,18.52 14.8703125,18.52 C14.9035158,18.52 14.9376951,18.5209766 14.9728516,18.5229297 C15.008008,18.5248828 15.0480467,18.5278125 15.0929688,18.5317187 L15.0929688,19.0121875 C15.038281,19.0082812 14.9987306,19.0058398 14.9743164,19.0048633 C14.9499022,19.0038867 14.9269532,19.0033984 14.9054688,19.0033984 C14.7453117,19.0033984 14.6496095,19.0449019 14.6183594,19.1279102 C14.5871092,19.2109184 14.5714844,19.4223421 14.5714844,19.7621875 L15.0929688,19.7621875 L15.0929688,20.1782031 L14.565625,20.1782031 L14.565625,22.8852344 L14.0441406,22.8852344 L14.0441406,20.1782031 L13.6076172,20.1782031 L13.6076172,19.7621875 L14.0441406,19.7621875 L14.0441406,19.27 Z" id="off" fill="#000000" fill-rule="nonzero"></path>
    </g>
</svg>