<?xml version="1.0" encoding="UTF-8"?>
<svg width="24px" height="24px" viewBox="0 0 24 24" version="1.1" xmlns="http://www.w3.org/2000/svg" xmlns:xlink="http://www.w3.org/1999/xlink">
    <!-- Generator: Sketch 57.1 (83088) - https://sketch.com -->
    <title>write-message-icon</title>
    <desc>Created with Sketch.</desc>
    <g id="write-message-icon" stroke="none" stroke-width="1" fill="none" fill-rule="evenodd">
        <g id="crop_din-24px" transform="translate(3.000000, 5.000000)" fill="#000000" fill-rule="nonzero">
            <path d="M13.8333333,0.5 L2.16666667,0.5 C1.25,0.5 0.5,1.25 0.5,2.16666667 L0.5,13.8333333 C0.5,14.75 1.25,15.5 2.16666667,15.5 L13.8333333,15.5 C14.75,15.5 15.5,14.75 15.5,13.8333333 L15.5,2.16666667 C15.5,1.25 14.75,0.5 13.8333333,0.5 Z M13.8333333,13.8333333 L2.16666667,13.8333333 L2.16666667,2.16666667 L13.8333333,2.16666667 L13.8333333,13.8333333 Z" id="Shape"></path>
        </g>
        <g id="pencil-icon" transform="translate(10.000000, 1.000000)" fill="#000000" fill-rule="nonzero">
            <path d="M0,10.5 L0,13 L2.5,13 L9.87333333,5.62666667 L7.37333333,3.12666667 L0,10.5 Z M11.8066667,3.69333333 C12.0666667,3.43333333 12.0666667,3.01333333 11.8066667,2.75333333 L10.2466667,1.19333333 C9.98666667,0.933333333 9.56666667,0.933333333 9.30666667,1.19333333 L8.08666667,2.41333333 L10.5866667,4.91333333 L11.8066667,3.69333333 Z" id="Shape"></path>
        </g>
        <rect id="Rectangle" x="0" y="0" width="24" height="24"></rect>
    </g>
</svg>