<?xml version="1.0" encoding="UTF-8"?>
<svg width="24px" height="24px" viewBox="0 0 24 24" version="1.1" xmlns="http://www.w3.org/2000/svg" xmlns:xlink="http://www.w3.org/1999/xlink">
    <!-- Generator: Sketch 57.1 (83088) - https://sketch.com -->
    <title>12h</title>
    <desc>Created with Sketch.</desc>
    <g id="12h" stroke="none" stroke-width="1" fill="none" fill-rule="evenodd">
        <polygon id="Path" points="0 0 24 0 24 24 0 24"></polygon>
        <path d="M6.584,22.096 L5.376,22.096 C5.424,21.784 5.44,21.472 5.44,21.056 L5.44,16.648 L5.056,16.648 C4.76,16.648 4.528,16.664 4.232,16.696 L4.232,15.68 C4.48,15.72 4.656,15.728 5.032,15.728 L5.768,15.728 C6.176,15.728 6.296,15.72 6.584,15.688 C6.536,16.16 6.52,16.528 6.52,17.008 L6.52,21.056 C6.52,21.48 6.536,21.768 6.584,22.096 Z M12.728,22.096 L10.16,22.096 C9.536,22.096 9.408,22.104 9.128,22.136 C9.176,21.68 9.232,21.4 9.336,21.112 C9.552,20.528 9.912,20.016 10.432,19.544 C10.712,19.296 10.952,19.112 11.752,18.576 C12.488,18.072 12.712,17.808 12.712,17.4 C12.712,16.856 12.288,16.52 11.608,16.52 C11.144,16.52 10.792,16.68 10.592,16.992 C10.456,17.184 10.4,17.36 10.344,17.728 L9.2,17.592 C9.312,16.984 9.456,16.656 9.752,16.312 C10.152,15.848 10.784,15.6 11.584,15.6 C12.984,15.6 13.848,16.272 13.848,17.368 C13.848,17.896 13.672,18.28 13.28,18.648 C13.056,18.856 12.976,18.92 11.936,19.632 C11.584,19.88 11.184,20.216 10.984,20.432 C10.744,20.688 10.648,20.848 10.528,21.152 L12.768,21.152 C13.272,21.152 13.672,21.128 13.936,21.088 L13.936,22.144 C13.56,22.112 13.24,22.096 12.728,22.096 Z M19.24,15.728 L20.432,15.728 C20.384,16.056 20.368,16.296 20.368,16.752 L20.368,21.064 C20.368,21.528 20.384,21.76 20.432,22.096 L19.24,22.096 C19.288,21.784 19.304,21.536 19.304,21.064 L19.304,19.256 L16.088,19.256 L16.088,21.064 C16.088,21.528 16.104,21.768 16.152,22.096 L14.96,22.096 C15.008,21.792 15.024,21.536 15.024,21.064 L15.024,16.76 C15.024,16.288 15.008,16.04 14.96,15.728 L16.152,15.728 C16.104,16.064 16.088,16.328 16.088,16.752 L16.088,18.296 L19.304,18.296 L19.304,16.76 C19.304,16.304 19.288,16.016 19.24,15.728 Z" id="12H" fill="#FFFFFF" fill-rule="nonzero"></path>
        <path d="M13.75,1.58333333 L10.25,1.58333333 L10.25,2.75 L13.75,2.75 L13.75,1.58333333 Z M11.4166667,9.16666667 L12.5833333,9.16666667 L12.5833333,5.66666667 L11.4166667,5.66666667 L11.4166667,9.16666667 Z M16.1008333,5.31083333 L16.9291667,4.4825 C16.6783333,4.185 16.4041667,3.905 16.1066667,3.66 L15.2783333,4.48833333 C14.3741667,3.765 13.2366667,3.33333333 12,3.33333333 C9.10083333,3.33333333 6.75,5.68416667 6.75,8.58333333 C6.75,11.4825 9.095,13.8333333 12,13.8333333 C14.905,13.8333333 17.25,11.4825 17.25,8.58333333 C17.25,7.34666667 16.8183333,6.20916667 16.1008333,5.31083333 Z M12,12.6666667 C9.7425,12.6666667 7.91666667,10.8408333 7.91666667,8.58333333 C7.91666667,6.32583333 9.7425,4.5 12,4.5 C14.2575,4.5 16.0833333,6.32583333 16.0833333,8.58333333 C16.0833333,10.8408333 14.2575,12.6666667 12,12.6666667 Z" id="Shape" fill="#EFEFEF" fill-rule="nonzero"></path>
    </g>
</svg>