<?xml version="1.0" encoding="UTF-8"?>
<svg width="24px" height="24px" viewBox="0 0 24 24" version="1.1" xmlns="http://www.w3.org/2000/svg" xmlns:xlink="http://www.w3.org/1999/xlink">
    <!-- Generator: Sketch 57.1 (83088) - https://sketch.com -->
    <title>timer-1h-icon</title>
    <desc>Created with Sketch.</desc>
    <g id="timer-1h-icon" stroke="none" stroke-width="1" fill="none" fill-rule="evenodd">
        <g id="timer">
            <rect id="Rectangle" x="0" y="0" width="24" height="24"></rect>
            <g id="timer-icon" transform="translate(3.000000, 0.000000)" fill="#000000" fill-rule="nonzero">
                <path d="M12.5333333,5.46666667 C11.5583333,4.49166667 10.2833333,4 9,4 L9,9 L5.46666667,12.5333333 C7.41666667,14.4833333 10.5833333,14.4833333 12.5416667,12.5333333 C14.4916667,10.5833333 14.4916667,7.41666667 12.5333333,5.46666667 Z M9,0.666666667 C4.4,0.666666667 0.666666667,4.4 0.666666667,9 C0.666666667,13.6 4.4,17.3333333 9,17.3333333 C13.6,17.3333333 17.3333333,13.6 17.3333333,9 C17.3333333,4.4 13.6,0.666666667 9,0.666666667 Z M9,15.6666667 C5.31666667,15.6666667 2.33333333,12.6833333 2.33333333,9 C2.33333333,5.31666667 5.31666667,2.33333333 9,2.33333333 C12.6833333,2.33333333 15.6666667,5.31666667 15.6666667,9 C15.6666667,12.6833333 12.6833333,15.6666667 9,15.6666667 Z" id="Shape"></path>
            </g>
        </g>
        <path d="M9.15,20.0276562 L9.15,19.6233594 C9.53086128,19.5862498 9.79648362,19.5242387 9.946875,19.4373242 C10.0972664,19.3504097 10.2095699,19.1448454 10.2837891,18.820625 L10.6998047,18.820625 L10.6998047,22.9983594 L10.1373047,22.9983594 L10.1373047,20.0276562 L9.15,20.0276562 Z M12.2994141,18.68 L12.8267578,18.68 L12.8267578,20.2854687 C12.9517584,20.1272648 13.064062,20.0159378 13.1636719,19.9514844 C13.3335946,19.8401557 13.5455065,19.7844922 13.7994141,19.7844922 C14.2544945,19.7844922 14.5630851,19.9436703 14.7251953,20.2620312 C14.8130864,20.4358602 14.8570313,20.6770688 14.8570313,20.9856641 L14.8570313,22.9983594 L14.3150391,22.9983594 L14.3150391,21.0208203 C14.3150391,20.7903504 14.2857425,20.6214068 14.2271484,20.5139844 C14.1314448,20.3421085 13.9517591,20.2561719 13.6880859,20.2561719 C13.4693348,20.2561719 13.2710946,20.3313664 13.0933594,20.4817578 C12.9156241,20.6321492 12.8267578,20.916326 12.8267578,21.3342969 L12.8267578,22.9983594 L12.2994141,22.9983594 L12.2994141,18.68 Z" id="1h" fill="#000000" fill-rule="nonzero"></path>
    </g>
</svg>