<?xml version="1.0" encoding="UTF-8"?>
<svg width="24px" height="24px" viewBox="0 0 24 24" version="1.1" xmlns="http://www.w3.org/2000/svg" xmlns:xlink="http://www.w3.org/1999/xlink">
    <!-- Generator: Sketch 57.1 (83088) - https://sketch.com -->
    <title>1min</title>
    <desc>Created with Sketch.</desc>
    <g id="1min" stroke="none" stroke-width="1" fill="none" fill-rule="evenodd">
        <polygon id="Path" points="0 0 24 0 24 24 0 24"></polygon>
        <path d="M4.584,22.096 L3.376,22.096 C3.424,21.784 3.44,21.472 3.44,21.056 L3.44,16.648 L3.056,16.648 C2.76,16.648 2.528,16.664 2.232,16.696 L2.232,15.68 C2.48,15.72 2.656,15.728 3.032,15.728 L3.768,15.728 C4.176,15.728 4.296,15.72 4.584,15.688 C4.536,16.16 4.52,16.528 4.52,17.008 L4.52,21.056 C4.52,21.48 4.536,21.768 4.584,22.096 Z M11.112,22.096 L10.168,22.096 C10.128,21.84 10,21.464 9.816,21.016 L8.664,18.272 C8.512,17.912 8.44,17.696 8.256,17.048 C8.288,17.472 8.32,18.128 8.32,18.304 L8.32,20.928 C8.32,21.48 8.336,21.784 8.384,22.096 L7.264,22.096 C7.312,21.776 7.328,21.464 7.328,20.928 L7.328,16.912 C7.328,16.392 7.312,16.056 7.264,15.728 L8.728,15.728 C8.784,16.008 8.888,16.344 9.024,16.68 L10.648,20.648 L12.264,16.68 C12.424,16.288 12.496,16.032 12.552,15.728 L14.024,15.728 C13.976,16.112 13.96,16.376 13.96,16.912 L13.96,20.928 C13.96,21.512 13.976,21.8 14.024,22.096 L12.904,22.096 C12.952,21.768 12.968,21.48 12.968,20.928 L12.968,18.272 C13,17.576 13.024,17.168 13.032,17.048 C12.928,17.48 12.776,17.928 12.664,18.216 L11.464,21.032 C11.304,21.408 11.16,21.856 11.112,22.096 Z M15.16,15.728 L16.376,15.728 C16.328,16.032 16.312,16.28 16.312,16.76 L16.312,21.064 C16.312,21.536 16.328,21.792 16.376,22.096 L15.16,22.096 C15.208,21.792 15.224,21.536 15.224,21.064 L15.224,16.76 C15.224,16.264 15.208,16.048 15.16,15.728 Z M22.936,22.096 L21.672,22.096 C21.536,21.824 21.392,21.592 21.16,21.24 L19.096,18.128 C18.944,17.888 18.744,17.544 18.552,17.168 C18.56,17.28 18.56,17.28 18.584,17.576 C18.592,17.728 18.608,18.088 18.608,18.272 L18.608,20.896 C18.608,21.432 18.632,21.808 18.672,22.096 L17.504,22.096 C17.544,21.832 17.568,21.432 17.568,20.888 L17.568,16.76 C17.568,16.344 17.552,16.056 17.504,15.728 L18.752,15.728 C18.824,15.928 18.968,16.168 19.24,16.576 L21.264,19.624 C21.456,19.912 21.712,20.328 21.888,20.648 C21.856,20.336 21.832,19.856 21.832,19.52 L21.832,16.832 C21.832,16.36 21.816,16.032 21.768,15.728 L22.936,15.728 C22.888,16.048 22.872,16.344 22.872,16.832 L22.872,21.064 C22.872,21.512 22.888,21.816 22.936,22.096 Z" id="1MIN" fill="#FFFFFF" fill-rule="nonzero"></path>
        <path d="M13.75,1.58333333 L10.25,1.58333333 L10.25,2.75 L13.75,2.75 L13.75,1.58333333 Z M11.4166667,9.16666667 L12.5833333,9.16666667 L12.5833333,5.66666667 L11.4166667,5.66666667 L11.4166667,9.16666667 Z M16.1008333,5.31083333 L16.9291667,4.4825 C16.6783333,4.185 16.4041667,3.905 16.1066667,3.66 L15.2783333,4.48833333 C14.3741667,3.765 13.2366667,3.33333333 12,3.33333333 C9.10083333,3.33333333 6.75,5.68416667 6.75,8.58333333 C6.75,11.4825 9.095,13.8333333 12,13.8333333 C14.905,13.8333333 17.25,11.4825 17.25,8.58333333 C17.25,7.34666667 16.8183333,6.20916667 16.1008333,5.31083333 Z M12,12.6666667 C9.7425,12.6666667 7.91666667,10.8408333 7.91666667,8.58333333 C7.91666667,6.32583333 9.7425,4.5 12,4.5 C14.2575,4.5 16.0833333,6.32583333 16.0833333,8.58333333 C16.0833333,10.8408333 14.2575,12.6666667 12,12.6666667 Z" id="Shape" fill="#EFEFEF" fill-rule="nonzero"></path>
    </g>
</svg>