<?xml version="1.0" encoding="UTF-8"?>
<svg width="24px" height="24px" viewBox="0 0 24 24" version="1.1" xmlns="http://www.w3.org/2000/svg" xmlns:xlink="http://www.w3.org/1999/xlink">
    <!-- Generator: Sketch 57.1 (83088) - https://sketch.com -->
    <title>timer-1mo-icon</title>
    <desc>Created with Sketch.</desc>
    <g id="timer-1mo-icon" stroke="none" stroke-width="1" fill="none" fill-rule="evenodd">
        <g id="timer">
            <rect id="Rectangle" x="0" y="0" width="24" height="24"></rect>
            <g id="timer-icon" transform="translate(3.000000, 0.000000)" fill="#000000" fill-rule="nonzero">
                <path d="M12.5333333,5.46666667 C11.5583333,4.49166667 10.2833333,4 9,4 L9,9 L5.46666667,12.5333333 C7.41666667,14.4833333 10.5833333,14.4833333 12.5416667,12.5333333 C14.4916667,10.5833333 14.4916667,7.41666667 12.5333333,5.46666667 Z M9,0.666666667 C4.4,0.666666667 0.666666667,4.4 0.666666667,9 C0.666666667,13.6 4.4,17.3333333 9,17.3333333 C13.6,17.3333333 17.3333333,13.6 17.3333333,9 C17.3333333,4.4 13.6,0.666666667 9,0.666666667 Z M9,15.6666667 C5.31666667,15.6666667 2.33333333,12.6833333 2.33333333,9 C2.33333333,5.31666667 5.31666667,2.33333333 9,2.33333333 C12.6833333,2.33333333 15.6666667,5.31666667 15.6666667,9 C15.6666667,12.6833333 12.6833333,15.6666667 9,15.6666667 Z" id="Shape"></path>
            </g>
        </g>
        <path d="M6.6,19.9170313 L6.6,19.5127344 C6.98086128,19.4756248 7.24648362,19.4136137 7.396875,19.3266992 C7.54726638,19.2397847 7.65956994,19.0342204 7.73378906,18.71 L8.14980469,18.71 L8.14980469,22.8877344 L7.58730469,22.8877344 L7.58730469,19.9170313 L6.6,19.9170313 Z M9.74941406,19.7500391 L10.2708984,19.7500391 L10.2708984,20.1953516 C10.3958991,20.0410539 10.5091792,19.9287504 10.6107422,19.8584375 C10.7845712,19.7392963 10.9818348,19.6797266 11.2025391,19.6797266 C11.4525403,19.6797266 11.6537102,19.7412494 11.8060547,19.8642969 C11.8919926,19.9346097 11.9701168,20.0381243 12.0404297,20.1748438 C12.1576178,20.0068742 12.2953117,19.8823637 12.4535156,19.8013086 C12.6117195,19.7202535 12.7894521,19.6797266 12.9867187,19.6797266 C13.4085959,19.6797266 13.6957024,19.8320688 13.8480469,20.1367578 C13.9300785,20.3008211 13.9710937,20.5215221 13.9710937,20.7988672 L13.9710937,22.8877344 L13.4232422,22.8877344 L13.4232422,20.7080469 C13.4232422,20.4990615 13.3709966,20.3555082 13.2665039,20.2773828 C13.1620112,20.1992574 13.0345711,20.1601953 12.8841797,20.1601953 C12.6771474,20.1601953 12.4989265,20.2295306 12.3495117,20.3682031 C12.2000969,20.5068757 12.1253906,20.7383187 12.1253906,21.0625391 L12.1253906,22.8877344 L11.5892578,22.8877344 L11.5892578,20.8398828 C11.5892578,20.6269911 11.5638674,20.4717192 11.5130859,20.3740625 C11.4330074,20.2275774 11.2835948,20.1543359 11.0648437,20.1543359 C10.865624,20.1543359 10.6844735,20.2314836 10.5213867,20.3857813 C10.3583,20.5400789 10.2767578,20.819373 10.2767578,21.2236719 L10.2767578,22.8877344 L9.74941406,22.8877344 L9.74941406,19.7500391 Z M15.9925781,22.5478906 C16.3421892,22.5478906 16.5819329,22.4155677 16.7118164,22.150918 C16.8416999,21.8862682 16.9066406,21.5918376 16.9066406,21.2676172 C16.9066406,20.974647 16.8597661,20.7363681 16.7660156,20.5527734 C16.6175774,20.2637095 16.3617206,20.1191797 15.9984375,20.1191797 C15.6761703,20.1191797 15.4417976,20.2422253 15.2953125,20.4883203 C15.1488274,20.7344153 15.0755859,21.0312873 15.0755859,21.3789453 C15.0755859,21.7129314 15.1488274,21.9912489 15.2953125,22.2139063 C15.4417976,22.4365636 15.6742172,22.5478906 15.9925781,22.5478906 Z M16.0130859,19.6592188 C16.4173848,19.6592188 16.7591783,19.793983 17.0384766,20.0635156 C17.3177748,20.3330482 17.4574219,20.7295286 17.4574219,21.2529688 C17.4574219,21.7588307 17.3343762,22.1767952 17.0882812,22.506875 C16.8421863,22.8369548 16.4603542,23.0019922 15.9427734,23.0019922 C15.5111307,23.0019922 15.1683606,22.8559976 14.9144531,22.5640039 C14.6605456,22.2720103 14.5335937,21.8799243 14.5335937,21.3877344 C14.5335937,20.860388 14.6673815,20.4404703 14.9349609,20.1279688 C15.2025404,19.8154672 15.5619118,19.6592188 16.0130859,19.6592188 Z" id="1mo" fill="#000000" fill-rule="nonzero"></path>
    </g>
</svg>