<?xml version="1.0" encoding="UTF-8"?>
<svg width="24px" height="24px" viewBox="0 0 24 24" version="1.1" xmlns="http://www.w3.org/2000/svg" xmlns:xlink="http://www.w3.org/1999/xlink">
    <!-- Generator: Sketch 57.1 (83088) - https://sketch.com -->
    <title>1y</title>
    <desc>Created with Sketch.</desc>
    <g id="1y" stroke="none" stroke-width="1" fill="none" fill-rule="evenodd">
        <polygon id="Path" points="0 0 24 0 24 24 0 24"></polygon>
        <path d="M9.584,22.096 L8.376,22.096 C8.424,21.784 8.44,21.472 8.44,21.056 L8.44,16.648 L8.056,16.648 C7.76,16.648 7.528,16.664 7.232,16.696 L7.232,15.68 C7.48,15.72 7.656,15.728 8.032,15.728 L8.768,15.728 C9.176,15.728 9.296,15.72 9.584,15.688 C9.536,16.16 9.52,16.528 9.52,17.008 L9.52,21.056 C9.52,21.48 9.536,21.768 9.584,22.096 Z M15.336,22.096 L14.128,22.096 C14.168,21.792 14.192,21.472 14.192,21.064 L14.192,19.48 L12.344,16.552 C12.224,16.36 12.04,16.096 11.784,15.728 L13.184,15.728 C13.248,15.944 13.352,16.16 13.568,16.512 L14.728,18.48 L15.904,16.52 C16.104,16.176 16.224,15.936 16.28,15.728 L17.672,15.728 C17.56,15.888 17.256,16.328 17.12,16.552 L15.272,19.488 L15.272,21.064 C15.272,21.464 15.288,21.792 15.336,22.096 Z" id="1Y" fill="#FFFFFF" fill-rule="nonzero"></path>
        <path d="M13.75,1.58333333 L10.25,1.58333333 L10.25,2.75 L13.75,2.75 L13.75,1.58333333 Z M11.4166667,9.16666667 L12.5833333,9.16666667 L12.5833333,5.66666667 L11.4166667,5.66666667 L11.4166667,9.16666667 Z M16.1008333,5.31083333 L16.9291667,4.4825 C16.6783333,4.185 16.4041667,3.905 16.1066667,3.66 L15.2783333,4.48833333 C14.3741667,3.765 13.2366667,3.33333333 12,3.33333333 C9.10083333,3.33333333 6.75,5.68416667 6.75,8.58333333 C6.75,11.4825 9.095,13.8333333 12,13.8333333 C14.905,13.8333333 17.25,11.4825 17.25,8.58333333 C17.25,7.34666667 16.8183333,6.20916667 16.1008333,5.31083333 Z M12,12.6666667 C9.7425,12.6666667 7.91666667,10.8408333 7.91666667,8.58333333 C7.91666667,6.32583333 9.7425,4.5 12,4.5 C14.2575,4.5 16.0833333,6.32583333 16.0833333,8.58333333 C16.0833333,10.8408333 14.2575,12.6666667 12,12.6666667 Z" id="Shape" fill="#EFEFEF" fill-rule="nonzero"></path>
    </g>
</svg>