<?xml version="1.0" encoding="UTF-8"?>
<svg width="24px" height="24px" viewBox="0 0 24 24" version="1.1" xmlns="http://www.w3.org/2000/svg" xmlns:xlink="http://www.w3.org/1999/xlink">
    <!-- Generator: Sketch 57.1 (83088) - https://sketch.com -->
    <title>timer-30min-icon</title>
    <desc>Created with Sketch.</desc>
    <g id="timer-30min-icon" stroke="none" stroke-width="1" fill="none" fill-rule="evenodd">
        <polygon id="Path" points="0 0 24 0 24 24 0 24"></polygon>
        <path d="M0.5,21.2118371 L1.46366833,21.0231468 C1.55127454,21.333138 1.61192499,21.440961 1.78039848,21.5757398 C2.00278347,21.7509522 2.27234105,21.8385585 2.59581014,21.8385585 C3.26296513,21.8385585 3.68751831,21.4948725 3.68751831,20.9624963 C3.68751831,20.6525051 3.55273953,20.3964254 3.31013771,20.2549077 C3.14840316,20.1605626 2.83167301,20.0931732 2.53515968,20.0931732 C2.23864635,20.0931732 2.04321711,20.0999121 1.81409317,20.1268679 L1.81409317,19.2912394 C2.02973923,19.3181951 2.1779959,19.3249341 2.46777029,19.3249341 C3.14166423,19.3249341 3.53926165,19.0149429 3.53926165,18.4960445 C3.53926165,18.0310577 3.2225315,17.7682391 2.64972165,17.7682391 C2.31951362,17.7682391 2.07691181,17.8423674 1.91517726,17.9771462 C1.78039848,18.1051861 1.71300908,18.219748 1.63214181,18.4960445 L0.668473484,18.33431 C0.836946967,17.8356285 0.991942573,17.5997656 1.30867272,17.3706417 C1.65235863,17.1213009 2.09038969,17 2.62950483,17 C3.75490771,17 4.48271316,17.5660709 4.48271316,18.442133 C4.48271316,18.8464694 4.30750073,19.217111 4.01772634,19.4327571 C3.86946967,19.5473191 3.72121301,19.6012306 3.36404922,19.6955757 C3.84251392,19.7697041 4.09185467,19.884266 4.32771755,20.1470847 C4.55010255,20.3964254 4.65118664,20.6794609 4.65118664,21.0770583 C4.65118664,21.440961 4.49619103,21.8116027 4.24685028,22.0609435 C3.87620861,22.4181072 3.31013771,22.6067975 2.5890712,22.6067975 C1.80061529,22.6067975 1.26150015,22.4046294 0.877380604,21.9665983 C0.70890712,21.777908 0.621300908,21.6026956 0.5,21.2118371 Z M7.41415177,22.5933197 C6.84134193,22.5933197 6.35613829,22.4046294 5.99897451,22.0474656 C5.79680633,21.8452974 5.64181072,21.6094345 5.55420451,21.3668327 C5.37899209,20.888368 5.29138588,20.3627307 5.29138588,19.8168766 C5.29138588,19.1025491 5.45312042,18.3612657 5.70246118,17.9501904 C6.0663639,17.3436859 6.67286844,17.0134779 7.42089071,17.0134779 C7.99370056,17.0134779 8.48564313,17.2021682 8.84280691,17.559332 C9.0449751,17.7615001 9.1999707,17.997363 9.28757691,18.2399648 C9.46278933,18.7116906 9.55039555,19.2508057 9.55039555,19.8033988 C9.55039555,20.6322883 9.36844418,21.3600938 9.05171403,21.7981248 C8.67433343,22.3237621 8.11500146,22.5933197 7.41415177,22.5933197 Z M7.42089071,21.8116027 C7.71740404,21.8116027 7.98022268,21.7105186 8.14869616,21.5285672 C8.45194843,21.2118371 8.62042192,20.5851157 8.62042192,19.7966598 C8.62042192,19.0149429 8.45194843,18.4016994 8.14869616,18.0714914 C7.98696162,17.88954 7.71740404,17.7884559 7.41415177,17.7884559 C7.09068268,17.7884559 6.85481981,17.8962789 6.65939057,18.1321418 C6.36287723,18.4825667 6.21462057,19.0351597 6.21462057,19.7697041 C6.21462057,20.4772927 6.34266042,21.0635804 6.55830648,21.3735716 C6.7672136,21.670085 7.05024905,21.8116027 7.42089071,21.8116027 Z M13.5398476,22.4854966 L12.7446528,22.4854966 C12.7109581,22.2698506 12.6031351,21.9531204 12.4481395,21.5757398 L11.4777322,19.2642836 C11.3496924,18.9610314 11.2890419,18.77908 11.1340463,18.2332259 C11.1610021,18.5903897 11.1879578,19.1429827 11.1879578,19.2912394 L11.1879578,21.5016115 C11.1879578,21.9665983 11.2014357,22.222678 11.2418693,22.4854966 L10.2984178,22.4854966 C10.3388515,22.2159391 10.3523293,21.9531204 10.3523293,21.5016115 L10.3523293,18.1186639 C10.3523293,17.6806329 10.3388515,17.3975974 10.2984178,17.1213009 L11.5316437,17.1213009 C11.5788163,17.3571638 11.6664225,17.6401992 11.7809845,17.9232347 L13.1489892,21.2657486 L14.5102549,17.9232347 C14.6450337,17.5930267 14.7056841,17.3773806 14.7528567,17.1213009 L15.9928216,17.1213009 C15.9523879,17.44477 15.93891,17.667155 15.93891,18.1186639 L15.93891,21.5016115 C15.93891,21.9935541 15.9523879,22.2361559 15.9928216,22.4854966 L15.0493701,22.4854966 C15.0898037,22.2092001 15.1032816,21.9665983 15.1032816,21.5016115 L15.1032816,19.2642836 C15.1302373,18.6779959 15.1504541,18.33431 15.1571931,18.2332259 C15.0695869,18.5971286 14.941547,18.9745092 14.8472019,19.217111 L13.836361,21.5892177 C13.7015822,21.9059478 13.5802813,22.2833285 13.5398476,22.4854966 Z M16.949751,17.1213009 L17.9740697,17.1213009 C17.9336361,17.3773806 17.9201582,17.5862877 17.9201582,17.9906241 L17.9201582,21.6161735 C17.9201582,22.0137709 17.9336361,22.2294169 17.9740697,22.4854966 L16.949751,22.4854966 C16.9901846,22.2294169 17.0036625,22.0137709 17.0036625,21.6161735 L17.0036625,17.9906241 C17.0036625,17.5728098 16.9901846,17.3908585 16.949751,17.1213009 Z M23.5,22.4854966 L22.4352476,22.4854966 C22.3206856,22.2563727 22.1993847,22.0609435 22.0039555,21.7644301 L20.2653091,19.1429827 C20.1372693,18.9408145 19.9687958,18.6510401 19.8070612,18.33431 C19.8138002,18.4286551 19.8138002,18.4286551 19.834017,18.6779959 C19.8407559,18.8060357 19.8542338,19.109288 19.8542338,19.2642836 L19.8542338,21.4746557 C19.8542338,21.9261647 19.8744506,22.2428948 19.9081453,22.4854966 L18.9242602,22.4854966 C18.9579549,22.2631116 18.9781717,21.9261647 18.9781717,21.4679168 L18.9781717,17.9906241 C18.9781717,17.6401992 18.9646938,17.3975974 18.9242602,17.1213009 L19.9755347,17.1213009 C20.0361852,17.2897744 20.1574861,17.4919426 20.38661,17.8356285 L22.0915617,20.4031644 C22.2532962,20.6457662 22.4689423,20.996191 22.6171989,21.2657486 C22.5902432,21.00293 22.5700264,20.5985936 22.5700264,20.3155582 L22.5700264,18.0512745 C22.5700264,17.6536771 22.5565485,17.3773806 22.5161149,17.1213009 L23.5,17.1213009 C23.4595664,17.3908585 23.4460885,17.6401992 23.4460885,18.0512745 L23.4460885,21.6161735 C23.4460885,21.9935541 23.4595664,22.2496338 23.5,22.4854966 Z" id="30MIN" fill="#FFFFFF" fill-rule="nonzero"></path>
        <path d="M13.75,1.58333333 L10.25,1.58333333 L10.25,2.75 L13.75,2.75 L13.75,1.58333333 Z M11.4166667,9.16666667 L12.5833333,9.16666667 L12.5833333,5.66666667 L11.4166667,5.66666667 L11.4166667,9.16666667 Z M16.1008333,5.31083333 L16.9291667,4.4825 C16.6783333,4.185 16.4041667,3.905 16.1066667,3.66 L15.2783333,4.48833333 C14.3741667,3.765 13.2366667,3.33333333 12,3.33333333 C9.10083333,3.33333333 6.75,5.68416667 6.75,8.58333333 C6.75,11.4825 9.095,13.8333333 12,13.8333333 C14.905,13.8333333 17.25,11.4825 17.25,8.58333333 C17.25,7.34666667 16.8183333,6.20916667 16.1008333,5.31083333 Z M12,12.6666667 C9.7425,12.6666667 7.91666667,10.8408333 7.91666667,8.58333333 C7.91666667,6.32583333 9.7425,4.5 12,4.5 C14.2575,4.5 16.0833333,6.32583333 16.0833333,8.58333333 C16.0833333,10.8408333 14.2575,12.6666667 12,12.6666667 Z" id="Shape" fill="#EFEFEF" fill-rule="nonzero"></path>
    </g>
</svg>