<?xml version="1.0" encoding="UTF-8"?>
<svg width="24px" height="24px" viewBox="0 0 24 24" version="1.1" xmlns="http://www.w3.org/2000/svg" xmlns:xlink="http://www.w3.org/1999/xlink">
    <!-- Generator: Sketch 57.1 (83088) - https://sketch.com -->
    <title>30min</title>
    <desc>Created with Sketch.</desc>
    <g id="30min" stroke="none" stroke-width="1" fill="none" fill-rule="evenodd">
        <polygon id="Path" points="0 0 24 0 24 24 0 24"></polygon>
        <path d="M-2.61901612e-13,21.3949604 L1.00556695,21.1980662 C1.09698213,21.5215353 1.16026956,21.6340463 1.33606798,21.774685 C1.56812189,21.9575154 1.84939936,22.0489306 2.18693232,22.0489306 C2.88309405,22.0489306 3.32610607,21.6903018 3.32610607,21.1347788 C3.32610607,20.8113097 3.18546733,20.5440961 2.93231761,20.3964254 C2.76355113,20.2979783 2.4330501,20.227659 2.12364489,20.227659 C1.81423967,20.227659 1.61031351,20.2346909 1.37122766,20.2628186 L1.37122766,19.3908585 C1.59624963,19.4189862 1.75095224,19.4260182 2.05332552,19.4260182 C2.75651919,19.4260182 3.17140346,19.1025491 3.17140346,18.56109 C3.17140346,18.0758863 2.84090243,17.8016408 2.24318781,17.8016408 C1.89862291,17.8016408 1.64547319,17.8789921 1.47670671,18.0196308 C1.33606798,18.1532376 1.26574861,18.2727805 1.18136537,18.56109 L0.175798418,18.3923235 C0.351596836,17.8719602 0.51333138,17.6258424 0.843832406,17.3867565 C1.20246118,17.1265749 1.65953706,17 2.222092,17 C3.39642543,17 4.1558746,17.5906827 4.1558746,18.5048345 C4.1558746,18.9267507 3.97304424,19.3135072 3.67067096,19.5385292 C3.51596836,19.6580721 3.36126575,19.7143276 2.9885731,19.8127747 C3.48784061,19.890126 3.74802227,20.0096689 3.99414005,20.2839144 C4.22619396,20.5440961 4.33167301,20.8394374 4.33167301,21.2543217 C4.33167301,21.6340463 4.16993847,22.0208028 3.90975681,22.2809845 C3.52300029,22.6536771 2.93231761,22.8505713 2.17990038,22.8505713 C1.35716379,22.8505713 0.794608849,22.6396132 0.393788456,22.1825374 C0.217990038,21.9856431 0.126574861,21.8028128 -2.61901612e-13,21.3949604 Z M7.21476707,22.8365075 C6.61705245,22.8365075 6.110753,22.6396132 5.73806036,22.2669206 C5.52710226,22.0559625 5.36536771,21.8098447 5.27395253,21.556695 C5.09112218,21.0574275 4.999707,20.5089364 4.999707,19.9393495 C4.999707,19.1939643 5.16847348,18.4204512 5.42865514,17.9915031 C5.80837972,17.3586288 6.44125403,17.0140639 7.221799,17.0140639 C7.81951362,17.0140639 8.332845,17.2109581 8.70553765,17.5836507 C8.91649575,17.7946088 9.0782303,18.0407266 9.16964547,18.2938764 C9.35247583,18.7861119 9.443891,19.3486669 9.443891,19.9252857 C9.443891,20.7902139 9.25402871,21.5496631 8.92352769,22.0067389 C8.52973923,22.55523 7.94608849,22.8365075 7.21476707,22.8365075 Z M7.221799,22.0208028 C7.53120422,22.0208028 7.80544975,21.9153238 7.98124817,21.7254615 C8.29768532,21.3949604 8.47348374,20.7409903 8.47348374,19.9182537 C8.47348374,19.1025491 8.29768532,18.4626428 7.98124817,18.1180779 C7.81248169,17.9282156 7.53120422,17.8227366 7.21476707,17.8227366 C6.8772341,17.8227366 6.63111632,17.9352476 6.42719016,18.1813654 C6.11778494,18.5470261 5.96308233,19.1236449 5.96308233,19.890126 C5.96308233,20.6284793 6.09668913,21.2402578 6.3217111,21.5637269 C6.53970114,21.8731321 6.83504248,22.0208028 7.221799,22.0208028 Z M13.6067975,22.7239965 L12.777029,22.7239965 C12.7418693,22.4989745 12.6293583,22.1684735 12.4676238,21.774685 L11.4550249,19.3627307 C11.3214181,19.0462936 11.2581307,18.8564313 11.0963961,18.2868444 C11.1245239,18.6595371 11.1526516,19.2361559 11.1526516,19.3908585 L11.1526516,21.6973337 C11.1526516,22.1825374 11.1667155,22.449751 11.2089071,22.7239965 L10.224436,22.7239965 C10.2666276,22.442719 10.2806915,22.1684735 10.2806915,21.6973337 L10.2806915,18.1673015 C10.2806915,17.7102256 10.2666276,17.4148843 10.224436,17.1265749 L11.5112804,17.1265749 C11.560504,17.3726926 11.6519191,17.668034 11.7714621,17.9633753 L13.1989452,21.4512159 L14.6193964,17.9633753 C14.7600352,17.6188104 14.8233226,17.3937885 14.8725461,17.1265749 L16.1664225,17.1265749 C16.1242309,17.4641078 16.110167,17.6961617 16.110167,18.1673015 L16.110167,21.6973337 C16.110167,22.2106651 16.1242309,22.4638148 16.1664225,22.7239965 L15.1819514,22.7239965 C15.224143,22.4356871 15.2382069,22.1825374 15.2382069,21.6973337 L15.2382069,19.3627307 C15.2663346,18.7509522 15.2874304,18.3923235 15.2944623,18.2868444 C15.2030472,18.666569 15.0694404,19.0603575 14.9709933,19.3135072 L13.9162028,21.7887489 C13.775564,22.1192499 13.6489892,22.5130384 13.6067975,22.7239965 Z M17.1649575,17.1265749 L18.2338119,17.1265749 C18.1916203,17.3937885 18.1775564,17.6117785 18.1775564,18.0336947 L18.1775564,21.8168766 C18.1775564,22.2317609 18.1916203,22.4567829 18.2338119,22.7239965 L17.1649575,22.7239965 C17.2071491,22.4567829 17.221213,22.2317609 17.221213,21.8168766 L17.221213,18.0336947 C17.221213,17.5977146 17.2071491,17.4078523 17.1649575,17.1265749 Z M24,22.7239965 L22.888954,22.7239965 C22.7694111,22.4849106 22.6428362,22.2809845 22.43891,21.9715793 L20.6246704,19.2361559 C20.4910636,19.0251978 20.3152652,18.7228245 20.1464987,18.3923235 C20.1535306,18.4907706 20.1535306,18.4907706 20.1746264,18.7509522 C20.1816584,18.884559 20.1957222,19.2009962 20.1957222,19.3627307 L20.1957222,21.669206 C20.1957222,22.1403457 20.216818,22.4708468 20.2519777,22.7239965 L19.225315,22.7239965 C19.2604747,22.4919426 19.2815705,22.1403457 19.2815705,21.662174 L19.2815705,18.0336947 C19.2815705,17.668034 19.2675066,17.4148843 19.225315,17.1265749 L20.3222971,17.1265749 C20.3855845,17.3023733 20.5121594,17.5133314 20.7512452,17.8719602 L22.5303252,20.551128 C22.6990917,20.8042778 22.9241137,21.1699385 23.0788163,21.4512159 C23.0506885,21.1769704 23.0295927,20.7550542 23.0295927,20.4597129 L23.0295927,18.0969821 C23.0295927,17.6820979 23.0155289,17.3937885 22.9733372,17.1265749 L24,17.1265749 C23.9578084,17.4078523 23.9437445,17.668034 23.9437445,18.0969821 L23.9437445,21.8168766 C23.9437445,22.2106651 23.9578084,22.4778787 24,22.7239965 Z" id="30MIN" stroke="#FFFFFF" stroke-width="0.2" fill="#FFFFFF" fill-rule="nonzero"></path>
        <path d="M13.75,1.58333333 L10.25,1.58333333 L10.25,2.75 L13.75,2.75 L13.75,1.58333333 Z M11.4166667,9.16666667 L12.5833333,9.16666667 L12.5833333,5.66666667 L11.4166667,5.66666667 L11.4166667,9.16666667 Z M16.1008333,5.31083333 L16.9291667,4.4825 C16.6783333,4.185 16.4041667,3.905 16.1066667,3.66 L15.2783333,4.48833333 C14.3741667,3.765 13.2366667,3.33333333 12,3.33333333 C9.10083333,3.33333333 6.75,5.68416667 6.75,8.58333333 C6.75,11.4825 9.095,13.8333333 12,13.8333333 C14.905,13.8333333 17.25,11.4825 17.25,8.58333333 C17.25,7.34666667 16.8183333,6.20916667 16.1008333,5.31083333 Z M12,12.6666667 C9.7425,12.6666667 7.91666667,10.8408333 7.91666667,8.58333333 C7.91666667,6.32583333 9.7425,4.5 12,4.5 C14.2575,4.5 16.0833333,6.32583333 16.0833333,8.58333333 C16.0833333,10.8408333 14.2575,12.6666667 12,12.6666667 Z" id="Shape" stroke="#EFEFEF" stroke-width="0.2" fill="#EFEFEF" fill-rule="nonzero"></path>
    </g>
</svg>