<?xml version="1.0" encoding="UTF-8"?>
<svg width="24px" height="24px" viewBox="0 0 24 24" version="1.1" xmlns="http://www.w3.org/2000/svg" xmlns:xlink="http://www.w3.org/1999/xlink">
    <!-- Generator: Sketch 57.1 (83088) - https://sketch.com -->
    <title>timer-off-icon</title>
    <desc>Created with Sketch.</desc>
    <g id="timer-off-icon" stroke="none" stroke-width="1" fill="none" fill-rule="evenodd">
        <polygon id="Path" points="0 0 24 0 24 24 0 24"></polygon>
        <path d="M13.75,1.58333333 L10.25,1.58333333 L10.25,2.75 L13.75,2.75 L13.75,1.58333333 Z M11.4166667,9.16666667 L12.5833333,9.16666667 L12.5833333,5.66666667 L11.4166667,5.66666667 L11.4166667,9.16666667 Z M16.1008333,5.31083333 L16.9291667,4.4825 C16.6783333,4.185 16.4041667,3.905 16.1066667,3.66 L15.2783333,4.48833333 C14.3741667,3.765 13.2366667,3.33333333 12,3.33333333 C9.10083333,3.33333333 6.75,5.68416667 6.75,8.58333333 C6.75,11.4825 9.095,13.8333333 12,13.8333333 C14.905,13.8333333 17.25,11.4825 17.25,8.58333333 C17.25,7.34666667 16.8183333,6.20916667 16.1008333,5.31083333 Z M12,12.6666667 C9.7425,12.6666667 7.91666667,10.8408333 7.91666667,8.58333333 C7.91666667,6.32583333 9.7425,4.5 12,4.5 C14.2575,4.5 16.0833333,6.32583333 16.0833333,8.58333333 C16.0833333,10.8408333 14.2575,12.6666667 12,12.6666667 Z" id="Shape" fill="#EFEFEF" fill-rule="nonzero"></path>
        <text id="OFF" font-family="HiraginoSansGB-W6, Hiragino Sans GB" font-size="8" font-weight="500" fill="#FFFFFF">
            <tspan x="3.5" y="22">OFF</tspan>
        </text>
    </g>
</svg>