<?xml version="1.0" encoding="UTF-8"?>
<svg width="24px" height="24px" viewBox="0 0 24 24" version="1.1" xmlns="http://www.w3.org/2000/svg" xmlns:xlink="http://www.w3.org/1999/xlink">
    <!-- Generator: Sketch 57.1 (83088) - https://sketch.com -->
    <title>off</title>
    <desc>Created with Sketch.</desc>
    <g id="off" stroke="none" stroke-width="1" fill="none" fill-rule="evenodd">
        <polygon id="Path" points="0 0 24 0 24 24 0 24"></polygon>
        <path d="M13.75,1.58333333 L10.25,1.58333333 L10.25,2.75 L13.75,2.75 L13.75,1.58333333 Z M11.4166667,9.16666667 L12.5833333,9.16666667 L12.5833333,5.66666667 L11.4166667,5.66666667 L11.4166667,9.16666667 Z M16.1008333,5.31083333 L16.9291667,4.4825 C16.6783333,4.185 16.4041667,3.905 16.1066667,3.66 L15.2783333,4.48833333 C14.3741667,3.765 13.2366667,3.33333333 12,3.33333333 C9.10083333,3.33333333 6.75,5.68416667 6.75,8.58333333 C6.75,11.4825 9.095,13.8333333 12,13.8333333 C14.905,13.8333333 17.25,11.4825 17.25,8.58333333 C17.25,7.34666667 16.8183333,6.20916667 16.1008333,5.31083333 Z M12,12.6666667 C9.7425,12.6666667 7.91666667,10.8408333 7.91666667,8.58333333 C7.91666667,6.32583333 9.7425,4.5 12,4.5 C14.2575,4.5 16.0833333,6.32583333 16.0833333,8.58333333 C16.0833333,10.8408333 14.2575,12.6666667 12,12.6666667 Z" id="Shape" stroke="#EFEFEF" stroke-width="0.2" fill="#EFEFEF" fill-rule="nonzero"></path>
        <path d="M6.836,15.6 C7.716,15.6 8.396,15.856 8.94,16.4 C9.524,16.984 9.836,17.856 9.836,18.896 C9.836,20.92 8.66,22.232 6.844,22.232 C5.028,22.232 3.86,20.928 3.86,18.896 C3.86,17.864 4.18,16.976 4.772,16.4 C5.324,15.856 5.988,15.6 6.836,15.6 Z M6.86,21.28 C8.004,21.28 8.716,20.368 8.716,18.896 C8.716,18.088 8.492,17.44 8.084,17.032 C7.756,16.712 7.332,16.544 6.852,16.544 C5.7,16.544 4.972,17.456 4.972,18.904 C4.972,19.704 5.204,20.376 5.62,20.792 C5.948,21.112 6.372,21.28 6.86,21.28 Z M11.9,19.344 L11.9,20.944 C11.9,21.512 11.916,21.792 11.964,22.096 L10.772,22.096 C10.82,21.824 10.836,21.488 10.836,20.96 L10.836,16.744 C10.836,16.304 10.82,16.072 10.772,15.704 C11.1,15.72 11.3,15.728 11.788,15.728 L14.028,15.728 C14.532,15.728 14.788,15.712 15.124,15.672 L15.124,16.752 C14.836,16.712 14.54,16.696 14.028,16.696 L11.9,16.696 L11.9,18.392 L13.612,18.392 C14.108,18.392 14.388,18.376 14.7,18.336 L14.7,19.4 C14.404,19.36 14.1,19.344 13.612,19.344 L11.9,19.344 Z M17.052,19.344 L17.052,20.944 C17.052,21.512 17.068,21.792 17.116,22.096 L15.924,22.096 C15.972,21.824 15.988,21.488 15.988,20.96 L15.988,16.744 C15.988,16.304 15.972,16.072 15.924,15.704 C16.252,15.72 16.452,15.728 16.94,15.728 L19.18,15.728 C19.684,15.728 19.94,15.712 20.276,15.672 L20.276,16.752 C19.988,16.712 19.692,16.696 19.18,16.696 L17.052,16.696 L17.052,18.392 L18.764,18.392 C19.26,18.392 19.54,18.376 19.852,18.336 L19.852,19.4 C19.556,19.36 19.252,19.344 18.764,19.344 L17.052,19.344 Z" id="OFF" stroke="#FFFFFF" stroke-width="0.2" fill="#FFFFFF" fill-rule="nonzero"></path>
    </g>
</svg>